<svg width="542.000000" height="609.000000" viewBox="0 0 542 609" fill="none" xmlns="http://www.w3.org/2000/svg" xmlns:xlink="http://www.w3.org/1999/xlink">
	<desc>
			Created with Pixso.
	</desc>
	<defs/>
	<path id="Path" d="M538.65 395.3C531.43 435.94 510.67 472.95 479.75 500.3C469.07 509.71 457.52 518.08 445.25 525.3C402 551.45 348.4 567.3 292.6 580.3L283.04 582.45C274.75 584.33 266.24 585.1 257.75 584.75C169 581.05 108.55 449.5 89.75 311.04C73.35 187.8 100.8 48.2 223.7 41.9C269.85 39.6 323.7 62.6 373.7 99.6C377.3 102.25 380.9 105 384.45 107.8L386.65 109.55C480 183.95 556.25 304.6 538.65 395.3Z" fill="#FDE6D6" fill-opacity="1.000000" fill-rule="nonzero"/>
	<path id="Path" d="M103.05 511.35C110 525.4 112.55 543.2 98.6 548.9C83 555.3 58.1 545 50.9 521.55C46.25 506.55 47.85 485.65 60.9 477.6C71.55 470.7 94.75 494.15 103.05 511.35Z" fill="#F5F9FD" fill-opacity="1.000000" fill-rule="nonzero"/>
	<path id="Path" d="M484.75 196.25C478.5 190.8 473.5 182.7 478.8 177.25C484.1 171.8 498.4 171.35 506.8 181.3C512.15 187.65 515.84 198.05 511.8 204.4C508.2 209.8 492.55 202.9 484.75 196.25Z" fill="#FFAD69" fill-opacity="1.000000" fill-rule="nonzero"/>
	<path id="Shape" d="M233.85 608.5C230.496 608.299 227.156 607.899 223.85 607.3C223.679 607.277 223.526 607.182 223.43 607.038C223.364 606.938 223.33 606.823 223.33 606.705C223.33 606.653 223.336 606.601 223.35 606.55C223.375 606.39 223.463 606.246 223.594 606.152C223.726 606.058 223.891 606.021 224.05 606.05C227.356 606.65 230.696 607.05 234.05 607.25C234.218 607.249 234.379 607.319 234.493 607.443C234.596 607.554 234.652 607.7 234.652 607.85C234.652 607.867 234.651 607.883 234.65 607.9C234.64 608.093 234.545 608.272 234.391 608.388C234.236 608.504 234.038 608.545 233.85 608.5ZM243.85 608.5C243.519 608.5 243.25 608.231 243.25 607.9C243.244 607.867 243.241 607.833 243.241 607.8C243.241 607.671 243.286 607.545 243.371 607.445C243.478 607.319 243.635 607.247 243.8 607.25C247.157 607.023 250.497 606.589 253.8 605.95C254.144 605.888 254.475 606.109 254.55 606.45C254.556 606.485 254.56 606.521 254.56 606.557C254.56 606.681 254.521 606.803 254.448 606.906C254.354 607.037 254.21 607.125 254.05 607.15C250.747 607.799 247.407 608.25 244.05 608.5L243.85 608.5ZM214.25 605C211.041 604.019 207.886 602.868 204.8 601.55C204.561 601.443 204.416 601.207 204.416 600.957C204.416 600.888 204.427 600.818 204.45 600.75C204.606 600.438 204.969 600.288 205.3 600.4C208.336 601.701 211.441 602.836 214.6 603.8C214.887 603.881 215.074 604.141 215.074 604.425C215.074 604.483 215.066 604.542 215.05 604.6C214.898 604.889 214.566 605.034 214.25 604.95L214.25 605ZM263.5 604.7C263.219 604.709 262.97 604.522 262.9 604.25C262.881 604.187 262.872 604.123 262.872 604.061C262.872 603.794 263.037 603.545 263.3 603.45C264.75 603 266.25 602.45 267.75 601.9L272.75 600.05C272.902 599.985 273.074 599.986 273.226 600.052C273.377 600.119 273.494 600.244 273.55 600.4C273.596 600.482 273.619 600.574 273.619 600.666C273.619 600.741 273.603 600.816 273.573 600.886C273.504 601.043 273.366 601.159 273.2 601.2L268.2 603.1C266.7 603.65 265.15 604.2 263.65 604.65L263.5 604.7ZM282.2 597.65C281.952 597.643 281.733 597.484 281.65 597.25C281.604 597.167 281.581 597.076 281.581 596.984C281.581 596.909 281.597 596.834 281.628 596.764C281.696 596.607 281.834 596.491 282 596.45L291.3 592.75C291.617 592.643 291.963 592.795 292.1 593.1C292.123 593.168 292.134 593.238 292.134 593.307C292.134 593.557 291.989 593.793 291.75 593.9L282.45 597.6L282.2 597.65ZM195.85 597.2L195.55 597.2C192.65 595.65 189.75 593.9 186.9 592.2C186.795 592.078 186.742 591.926 186.742 591.775C186.742 591.624 186.795 591.472 186.9 591.35C187.013 591.237 187.166 591.173 187.325 591.173C187.484 591.173 187.637 591.237 187.75 591.35C190.55 593.2 193.45 594.9 196.3 596.35C196.406 596.472 196.458 596.624 196.458 596.775C196.458 596.926 196.406 597.078 196.3 597.2C196.149 597.238 195.989 597.22 195.85 597.15L195.85 597.2ZM300.85 590.15C300.61 590.166 300.387 590.024 300.3 589.8C300.26 589.713 300.242 589.621 300.242 589.531C300.242 589.293 300.374 589.064 300.6 588.95C303.7 587.7 306.8 586.4 309.85 585.05C310.166 584.966 310.498 585.111 310.65 585.4C310.687 585.48 310.706 585.566 310.706 585.652C310.706 585.723 310.693 585.795 310.667 585.863C310.611 586.013 310.497 586.135 310.35 586.2C307.25 587.55 304.2 588.85 301.1 590.1L300.85 590.15ZM179.15 586.35C179.036 586.388 178.914 586.388 178.8 586.35C176.2 584.35 173.8 582.25 171 580C170.854 579.877 170.779 579.701 170.779 579.525C170.779 579.383 170.827 579.241 170.925 579.125C171.146 578.863 171.538 578.829 171.8 579.05C174.35 581.25 176.8 583.4 179.55 585.35C179.679 585.464 179.753 585.628 179.753 585.8C179.753 585.972 179.679 586.136 179.55 586.25C179.399 586.339 179.216 586.357 179.05 586.3L179.15 586.35ZM319.15 582.25C318.902 582.243 318.683 582.084 318.6 581.85C318.563 581.77 318.545 581.684 318.545 581.598C318.545 581.527 318.557 581.455 318.583 581.387C318.639 581.237 318.753 581.115 318.9 581.05C321.95 579.65 325 578.3 328 576.85C328.214 576.678 328.512 576.659 328.746 576.802C328.942 576.921 329.057 577.133 329.057 577.356C329.057 577.4 329.053 577.444 329.044 577.487C328.989 577.756 328.771 577.961 328.5 578L319.4 582.2L319.15 582.25ZM337.3 573.75C337.064 573.752 336.848 573.615 336.75 573.4C336.699 573.309 336.674 573.208 336.674 573.107C336.674 573.039 336.685 572.972 336.708 572.907C336.765 572.744 336.89 572.614 337.05 572.55L345.95 568.05C346.147 567.859 346.443 567.813 346.689 567.934C346.913 568.044 347.052 568.271 347.052 568.517C347.052 568.541 347.051 568.566 347.048 568.591C347.017 568.864 346.817 569.087 346.55 569.15C343.55 570.7 340.6 572.2 337.55 573.65L337.3 573.75ZM163.9 573.25C163.771 573.3 163.629 573.3 163.5 573.25C161.167 570.95 158.817 568.55 156.45 566.05C156.323 565.945 156.249 565.79 156.249 565.625C156.249 565.46 156.323 565.304 156.45 565.2C156.702 564.959 157.099 564.959 157.35 565.2C159.7 567.7 162.05 570.2 164.35 572.35C164.477 572.454 164.551 572.61 164.551 572.775C164.551 572.94 164.477 573.095 164.35 573.2C164.208 573.271 164.042 573.271 163.9 573.2L163.9 573.25ZM355.1 564.55C354.87 564.531 354.665 564.4 354.55 564.2C354.503 564.107 354.481 564.008 354.481 563.91C354.481 563.687 354.596 563.471 354.8 563.35C357.75 561.75 360.7 560.1 363.5 558.35C363.744 558.139 364.106 558.139 364.35 558.35C364.463 558.463 364.526 558.615 364.526 558.775C364.526 558.934 364.463 559.087 364.35 559.2L355.6 564.2L355.1 564.55ZM150.1 558.65C149.939 558.712 149.761 558.712 149.6 558.65C147.45 556.2 145.35 553.65 143.25 550.9C143.162 550.789 143.12 550.657 143.12 550.525C143.12 550.346 143.199 550.169 143.35 550.05C143.612 549.843 143.993 549.888 144.2 550.15C146.3 552.8 148.45 555.15 150.55 557.85C150.671 557.976 150.731 558.138 150.731 558.3C150.731 558.462 150.671 558.624 150.55 558.75L150.1 558.65ZM372.25 554.5C372.04 554.504 371.846 554.387 371.75 554.2C371.637 554.087 371.574 553.934 371.574 553.775C371.574 553.615 371.637 553.463 371.75 553.35C374.65 551.55 377.5 549.75 380.2 547.95C380.313 547.837 380.466 547.773 380.625 547.773C380.785 547.773 380.938 547.837 381.05 547.95C381.163 548.062 381.227 548.215 381.227 548.375C381.227 548.534 381.163 548.687 381.05 548.8C378.35 550.6 375.5 552.4 372.6 554.2L372.25 554.5ZM389 543.45C388.841 543.523 388.659 543.523 388.5 543.45C388.387 543.337 388.324 543.184 388.324 543.025C388.324 542.865 388.387 542.713 388.5 542.6C391.25 540.6 393.95 538.65 396.55 536.65C396.663 536.537 396.816 536.474 396.975 536.474C397.135 536.474 397.287 536.537 397.4 536.65C397.513 536.763 397.577 536.916 397.577 537.075C397.577 537.234 397.513 537.387 397.4 537.5C394.8 539.5 392.1 541.5 389.3 543.45C389.248 543.441 389.197 543.424 389.15 543.4L389 543.45ZM137.65 542.95C137.443 542.943 137.254 542.83 137.15 542.65C135.2 540.05 133.25 537.3 131.35 534.5C131.241 534.37 131.186 534.21 131.186 534.05C131.186 533.89 131.241 533.73 131.35 533.6C131.602 533.359 131.999 533.359 132.25 533.6C134.15 536.35 136.1 539.1 138 541.75C138.113 541.863 138.177 542.015 138.177 542.175C138.177 542.334 138.113 542.487 138 542.6C137.963 542.717 137.894 542.821 137.8 542.9L137.65 542.95ZM404.9 531.3C404.706 531.29 404.525 531.199 404.4 531.05C404.287 530.937 404.224 530.784 404.224 530.625C404.224 530.465 404.287 530.312 404.4 530.2C406.95 528.05 409.4 525.85 411.95 523.65C412.063 523.537 412.216 523.474 412.375 523.474C412.535 523.474 412.688 523.537 412.8 523.65C412.921 523.776 412.981 523.938 412.981 524.1C412.981 524.262 412.921 524.424 412.8 524.55L405.2 531.1C405.159 531.158 405.108 531.208 405.05 531.25L404.9 531.3ZM126.35 526.3C126.13 526.292 125.926 526.181 125.8 526C124.05 523.25 122.25 520.35 120.5 517.5C120.395 517.378 120.342 517.226 120.342 517.075C120.342 516.923 120.395 516.772 120.5 516.65C120.613 516.537 120.766 516.474 120.925 516.474C121.084 516.474 121.237 516.537 121.35 516.65C123.05 519.5 124.85 522.35 126.6 525.15C126.705 525.272 126.758 525.423 126.758 525.575C126.758 525.726 126.705 525.878 126.6 526L126.35 526.3ZM419.75 517.8C419.624 517.862 419.476 517.862 419.35 517.8C419.223 517.695 419.149 517.54 419.149 517.375C419.149 517.21 419.223 517.054 419.35 516.95C421.7 514.55 424.05 511.95 426.25 509.75C426.363 509.637 426.516 509.573 426.675 509.573C426.834 509.573 426.987 509.637 427.1 509.75C427.221 509.876 427.281 510.038 427.281 510.2C427.281 510.362 427.221 510.524 427.1 510.65C424.9 513.05 422.55 515.65 420.15 517.9C420.009 517.915 419.867 517.879 419.75 517.8ZM116.05 509.2C115.827 509.201 115.62 509.088 115.5 508.9C113.9 506.05 112.25 503.1 110.5 500.1C110.489 500.051 110.483 500.001 110.483 499.952C110.483 499.718 110.61 499.497 110.822 499.381C111.078 499.241 111.397 499.29 111.6 499.5C113.2 502.5 114.85 505.45 116.6 508.25C116.705 508.372 116.758 508.523 116.758 508.675C116.758 508.826 116.705 508.978 116.6 509.1L116.05 509.2ZM433.25 503L432.85 503C432.729 502.874 432.669 502.712 432.669 502.55C432.669 502.388 432.729 502.226 432.85 502.1C434.95 499.5 437 497.1 438.95 494.2C439.063 494.087 439.216 494.023 439.375 494.023C439.535 494.023 439.688 494.087 439.8 494.2C439.913 494.312 439.977 494.465 439.977 494.625C439.977 494.784 439.913 494.937 439.8 495.05C437.85 497.7 435.8 500.4 433.65 503C433.552 503.028 433.448 503.028 433.35 503L433.25 503ZM106.55 491.55C106.314 491.552 106.099 491.415 106 491.2C104.45 488.2 102.95 485.15 101.55 482.2C101.513 482.12 101.495 482.034 101.495 481.948C101.495 481.877 101.507 481.805 101.533 481.737C101.589 481.587 101.703 481.465 101.85 481.4C102.078 481.196 102.422 481.196 102.65 481.4L107.1 490.4C107.147 490.493 107.169 490.592 107.169 490.69C107.169 490.913 107.054 491.129 106.85 491.25L106.55 491.55ZM445 486.85L444.7 486.85C444.587 486.737 444.524 486.584 444.524 486.425C444.524 486.266 444.587 486.113 444.7 486C446.5 483.2 448.2 480.35 449.7 477.45C449.762 477.183 449.986 476.983 450.259 476.952C450.532 476.921 450.795 477.064 450.916 477.311C450.961 477.402 450.983 477.5 450.983 477.598C450.983 477.763 450.92 477.926 450.8 478.05C449.15 480.95 447.4 483.85 445.8 486.65C445.634 486.86 445.362 486.958 445.1 486.9L445 486.85ZM97.8501 473.5C97.6138 473.502 97.3984 473.365 97.3 473.15C95.9 470.1 94.55 467.05 93.2001 463.95C93.1631 463.87 93.1445 463.784 93.1445 463.698C93.1445 463.627 93.1572 463.555 93.1827 463.487C93.2391 463.337 93.3534 463.215 93.5 463.15C93.6572 463.068 93.8427 463.059 94.0066 463.127C94.1707 463.194 94.2964 463.331 94.3501 463.5C95.65 466.55 97.05 469.6 98.4 472.6C98.4397 472.687 98.4585 472.779 98.4585 472.869C98.4585 473.107 98.3265 473.336 98.1001 473.45L97.8501 473.5ZM454.75 469.4C454.523 469.286 454.392 469.057 454.392 468.819C454.392 468.729 454.41 468.637 454.45 468.55C455.9 465.6 457.25 462.55 458.55 459.45C458.615 459.303 458.737 459.189 458.887 459.133C459.038 459.076 459.204 459.083 459.35 459.15C459.589 459.257 459.734 459.493 459.734 459.743C459.734 459.812 459.723 459.882 459.7 459.95C458.4 463.05 457.05 466.15 455.6 469.1C455.443 469.412 455.068 469.545 454.75 469.4ZM89.75 455.1C89.5099 455.116 89.287 454.974 89.2001 454.75Q87.25 450.1 85.4501 445.45C85.4045 445.363 85.3817 445.268 85.3817 445.172C85.3817 445.094 85.3966 445.017 85.4269 444.943C85.4944 444.779 85.631 444.654 85.8 444.6C86.1306 444.499 86.4821 444.675 86.6001 445C87.8 448.1 89.05 451.2 90.3501 454.25C90.375 454.324 90.387 454.399 90.387 454.474C90.387 454.733 90.2427 454.979 90 455.1L89.75 455.1ZM462.35 450.9C462.087 450.804 461.922 450.556 461.922 450.289C461.922 450.226 461.931 450.163 461.95 450.1C463.05 446.95 464 443.75 464.9 440.6C464.983 440.269 465.319 440.067 465.65 440.15C465.931 440.22 466.119 440.472 466.119 440.749C466.119 440.799 466.113 440.85 466.1 440.9C465.2 444.1 464.2 447.35 463.15 450.5C463.049 450.742 462.812 450.9 462.55 450.9L462.35 450.9ZM82.3501 436.45C82.0876 436.45 81.851 436.292 81.75 436.05C80.6001 432.95 79.4501 429.8 78.3501 426.65C78.3212 426.576 78.3074 426.5 78.3074 426.425C78.3074 426.178 78.4564 425.945 78.7001 425.85C79.0176 425.726 79.3757 425.882 79.5 426.2C80.65 429.35 81.75 432.5 82.9501 435.65C82.9691 435.713 82.9783 435.776 82.9783 435.839C82.9783 436.106 82.813 436.354 82.55 436.45L82.3501 436.45ZM467.6 431.45C467.298 431.383 467.09 431.115 467.09 430.816C467.09 430.778 467.093 430.739 467.1 430.7C467.8 427.4 468.45 424.1 468.95 420.7C469.025 420.359 469.356 420.138 469.7 420.2C469.86 420.224 470.004 420.312 470.098 420.444C470.171 420.547 470.21 420.669 470.21 420.793C470.21 420.829 470.206 420.864 470.2 420.9C469.7 424.15 469.05 427.45 468.35 430.9C468.402 431.001 468.428 431.111 468.428 431.221C468.428 431.319 468.408 431.417 468.366 431.509C468.279 431.703 468.107 431.848 467.9 431.9L467.6 431.45ZM75.9501 417.6C75.6798 417.579 75.446 417.403 75.3501 417.15C74.3 414 73.25 410.85 72.25 407.65C72.2483 407.63 72.2474 407.611 72.2474 407.592C72.2474 407.314 72.4247 407.065 72.6919 406.976C72.9777 406.88 73.2914 406.994 73.4501 407.25C74.4501 410.45 75.5 413.6 76.55 416.75C76.5782 416.821 76.5923 416.896 76.5923 416.971C76.5923 417.063 76.571 417.155 76.5289 417.239C76.4525 417.392 76.3148 417.505 76.15 417.55L75.9501 417.6ZM470.95 411.95C470.785 411.953 470.628 411.881 470.521 411.755C470.436 411.655 470.391 411.529 470.391 411.4C470.391 411.367 470.394 411.333 470.4 411.3C470.75 408.05 471.05 404.7 471.25 401.3L471.25 401.298C471.25 401.13 471.32 400.971 471.443 400.857C471.567 400.743 471.732 400.686 471.9 400.7C472.229 400.747 472.48 401.018 472.5 401.35C472.5 404.75 472 408.1 471.65 411.35C471.615 411.62 471.415 411.839 471.15 411.9L470.95 411.95ZM69.75 398.5C69.4877 398.5 69.251 398.342 69.15 398.1C68.2001 394.9 67.25 391.65 66.3501 388.45C66.3348 388.396 66.3273 388.341 66.3273 388.286C66.3273 388.179 66.3563 388.072 66.4128 387.978C66.498 387.836 66.6382 387.735 66.8 387.7C66.9525 387.653 67.1173 387.669 67.2581 387.744C67.3988 387.819 67.5039 387.947 67.55 388.1C68.4501 391.35 69.4 394.55 70.3501 397.7C70.3691 397.763 70.3783 397.827 70.3783 397.889C70.3783 398.156 70.213 398.404 69.9501 398.5L69.75 398.5ZM472.2 391.9C471.869 391.9 471.6 391.631 471.6 391.3C471.6 388 471.35 384.65 471.1 381.3C471.094 381.266 471.091 381.232 471.091 381.198C471.091 381.065 471.136 380.934 471.22 380.828C471.324 380.694 471.481 380.612 471.65 380.6C471.823 380.586 471.993 380.642 472.125 380.754C472.256 380.867 472.337 381.027 472.35 381.2C472.35 384.5 472.8 387.9 472.85 391.2L472.85 391.202C472.85 391.541 472.589 391.824 472.25 391.85L472.2 391.9ZM64.4501 379.25C64.1694 379.259 63.92 379.072 63.8501 378.8L63.8501 378.3C63 375.05 62.15 371.8 61.3501 368.3C61.347 368.274 61.3457 368.247 61.3457 368.222C61.3457 367.914 61.5486 367.638 61.8501 367.55C62.1746 367.506 62.4861 367.693 62.6001 368C63.4 371.25 64.2001 374.5 65.05 377.7L65.05 378.2C65.0663 378.258 65.074 378.317 65.074 378.375C65.074 378.659 64.8866 378.919 64.6001 379L64.4501 379.25ZM470.5 371.9C470.192 371.908 469.921 371.699 469.85 371.4C469.35 368.2 468.75 364.9 468.05 361.4C468.042 361.357 468.037 361.314 468.037 361.272C468.037 360.99 468.221 360.734 468.5 360.65C468.844 360.588 469.175 360.809 469.25 361.15C470 364.45 470.6 367.75 471.1 371.15C471.106 371.185 471.11 371.221 471.11 371.257C471.11 371.381 471.071 371.503 470.998 371.606C470.904 371.737 470.76 371.826 470.6 371.85L470.5 371.9ZM59.75 359.3C59.4541 359.304 59.1993 359.092 59.15 358.8C58.4 355.5 57.7001 352.2 57.1001 348.8C57.0863 348.749 57.0796 348.697 57.0796 348.645C57.0796 348.527 57.114 348.411 57.1804 348.312C57.2761 348.168 57.429 348.073 57.6001 348.05C57.7595 348.021 57.9238 348.058 58.0557 348.152C58.1875 348.246 58.2756 348.39 58.3 348.55C58.9501 351.75 59.65 355.05 60.3501 358.55C60.3652 358.604 60.3728 358.659 60.3728 358.714C60.3728 358.821 60.3438 358.928 60.2872 359.022C60.202 359.164 60.0619 359.265 59.9 359.3L59.75 359.3ZM466.45 352.5C466.154 352.504 465.899 352.292 465.85 352C464.95 348.9 463.95 345.65 462.9 342.5C462.872 342.429 462.858 342.354 462.858 342.279C462.858 342.187 462.879 342.095 462.921 342.01C462.998 341.858 463.135 341.745 463.3 341.7C463.459 341.637 463.637 341.645 463.79 341.721C463.942 341.797 464.055 341.935 464.1 342.1C465.15 345.3 466.15 348.55 467.05 351.7C467.065 351.754 467.073 351.809 467.073 351.864C467.073 351.971 467.044 352.078 466.987 352.172C466.902 352.314 466.762 352.415 466.6 352.45L466.45 352.5ZM55.65 339.65C55.3541 339.654 55.0994 339.442 55.05 339.15C54.4501 335.85 53.9 332.5 53.4 329.15C53.3942 329.115 53.3912 329.079 53.3912 329.044C53.3912 328.906 53.4348 328.771 53.5171 328.659C53.6206 328.518 53.7767 328.424 53.9501 328.4C54.292 328.37 54.5985 328.611 54.65 328.95C55.15 332.25 55.7001 335.55 56.25 338.95C56.2571 338.989 56.2604 339.028 56.2604 339.066C56.2604 339.365 56.0525 339.633 55.75 339.7L55.65 339.65ZM459.75 333.5C459.488 333.5 459.251 333.342 459.15 333.1C457.95 330.05 456.7 326.95 455.35 323.85C455.313 323.77 455.295 323.684 455.295 323.598C455.295 323.527 455.307 323.455 455.333 323.387C455.389 323.237 455.503 323.115 455.65 323.05C455.968 322.905 456.343 323.038 456.5 323.35C457.85 326.45 459.15 329.55 460.3 332.65C460.332 332.725 460.348 332.805 460.348 332.885C460.348 332.967 460.331 333.049 460.298 333.125C460.231 333.277 460.106 333.394 459.95 333.45L459.75 333.5ZM52.65 319.85C52.3268 319.854 52.0498 319.619 52 319.3C51.6001 316 51.2001 312.65 50.8501 309.3C50.8442 309.266 50.8414 309.232 50.8414 309.199C50.8414 309.065 50.886 308.934 50.9696 308.828C51.0745 308.694 51.2308 308.612 51.4 308.6C51.7419 308.57 52.0486 308.811 52.1001 309.15C52.4501 312.45 52.8501 315.8 53.25 319.15C53.2559 319.184 53.2587 319.218 53.2587 319.251C53.2587 319.385 53.2141 319.516 53.1305 319.622C53.0256 319.755 52.8693 319.838 52.7001 319.85L52.65 319.85ZM451.85 315.15C451.605 315.138 451.381 315.008 451.25 314.8C449.85 311.9 448.3 308.9 446.7 305.9C446.595 305.778 446.542 305.626 446.542 305.475C446.542 305.323 446.595 305.172 446.7 305.05C447.005 304.897 447.376 305.006 447.55 305.3C449.15 308.3 450.7 311.3 452.15 314.25C452.19 314.337 452.208 314.429 452.208 314.519C452.208 314.757 452.077 314.986 451.85 315.1L451.85 315.15ZM50.55 299.9C50.2373 299.901 49.9761 299.662 49.9501 299.35C49.9501 295.95 49.4501 292.55 49.3 289.35L49.3 289.348C49.3 289.009 49.5614 288.726 49.9 288.7C50.0676 288.686 50.2334 288.743 50.3571 288.857C50.4801 288.971 50.55 289.13 50.55 289.298L50.55 289.3C50.55 292.55 50.9501 295.9 51.2001 299.3C51.2014 299.317 51.2021 299.333 51.2021 299.35C51.2021 299.5 51.1458 299.646 51.043 299.757C50.929 299.88 50.7682 299.951 50.6001 299.95L50.55 299.9ZM442.35 297.5C442.14 297.504 441.946 297.387 441.85 297.2C440.2 294.35 438.45 291.5 436.85 288.65C436.741 288.52 436.686 288.36 436.686 288.2C436.686 288.04 436.741 287.88 436.85 287.75C437.094 287.539 437.456 287.539 437.7 287.75C439.5 290.65 441.25 293.5 442.7 296.35C442.813 296.463 442.876 296.615 442.876 296.775C442.876 296.934 442.813 297.087 442.7 297.2L442.35 297.5ZM431.75 280.5C431.573 280.565 431.378 280.565 431.2 280.5C429.4 277.8 427.5 275.05 425.55 272.25C425.437 272.137 425.374 271.984 425.374 271.825C425.374 271.665 425.437 271.513 425.55 271.4C425.802 271.159 426.198 271.159 426.45 271.4C428.45 274.15 430.35 276.95 432.15 279.65C432.255 279.772 432.308 279.923 432.308 280.075C432.308 280.226 432.255 280.378 432.15 280.5C432.022 280.556 431.878 280.556 431.75 280.5ZM49.75 279.9C49.4187 279.9 49.15 279.631 49.15 279.3L49.15 269.25C49.15 268.919 49.4187 268.65 49.75 268.65C49.9176 268.636 50.0834 268.693 50.207 268.807C50.3301 268.921 50.4 269.08 50.4 269.248L50.4 269.25L50.4 279.25C50.4015 279.267 50.4021 279.283 50.4021 279.3C50.4021 279.45 50.3457 279.596 50.243 279.707C50.1289 279.831 49.9683 279.901 49.8 279.9L49.75 279.9ZM420.3 264.2C420.141 264.273 419.959 264.273 419.8 264.2C417.75 261.5 415.7 258.85 413.65 256.3C413.537 256.187 413.474 256.034 413.474 255.875C413.474 255.715 413.537 255.562 413.65 255.45C413.764 255.321 413.928 255.247 414.1 255.247C414.272 255.247 414.436 255.321 414.55 255.45C416.55 258 418.65 260.45 420.7 263.35C420.821 263.476 420.881 263.638 420.881 263.8C420.881 263.962 420.821 264.124 420.7 264.25L420.3 264.2ZM49.75 259.85C49.5819 259.851 49.4211 259.781 49.3071 259.657C49.2043 259.546 49.1479 259.4 49.1479 259.25C49.1479 259.233 49.1487 259.217 49.15 259.2C49.15 255.85 49.5 252.5 49.75 249.2L49.75 249.198C49.75 249.03 49.8199 248.871 49.9431 248.757C50.0667 248.643 50.2324 248.586 50.4 248.6C50.7448 248.65 51.0001 248.945 51.0001 249.293L51 249.3C51 252.55 50.55 255.95 50.4 259.3C50.3503 259.619 50.0734 259.854 49.75 259.85ZM407.6 248.55C407.44 248.617 407.26 248.617 407.1 248.55L400.55 240.95C400.437 240.837 400.374 240.684 400.374 240.525C400.374 240.365 400.437 240.213 400.55 240.1C400.664 239.971 400.828 239.897 401 239.897C401.172 239.897 401.336 239.971 401.45 240.1C403.6 242.5 405.8 245.1 408 247.65C408.121 247.776 408.181 247.938 408.181 248.1C408.181 248.262 408.121 248.424 408 248.55C407.871 248.6 407.729 248.6 407.6 248.55ZM51.3501 239.9C51.0299 239.851 50.7975 239.576 50.7975 239.258C50.7975 239.239 50.7983 239.219 50.8 239.2C51.2001 235.85 51.65 232.5 52.2001 229.2C52.2245 229.04 52.3126 228.896 52.4445 228.802C52.5763 228.708 52.7406 228.671 52.9 228.7C53.0673 228.709 53.2213 228.793 53.3186 228.93C53.386 229.024 53.4211 229.136 53.4211 229.249C53.4211 229.3 53.4142 229.35 53.4 229.4C52.9 232.6 52.4501 235.95 52.05 239.4C51.9761 239.719 51.676 239.934 51.3501 239.9ZM394.3 233.55C394.157 233.614 393.993 233.614 393.85 233.55C391.6 231.1 389.25 228.55 386.95 226.3C386.829 226.174 386.769 226.012 386.769 225.85C386.769 225.688 386.829 225.526 386.95 225.4C387.21 225.182 387.59 225.182 387.85 225.4C390.15 227.8 392.5 230.4 394.75 232.7C394.871 232.826 394.931 232.988 394.931 233.15C394.931 233.312 394.871 233.474 394.75 233.6C394.598 233.627 394.442 233.61 394.3 233.55ZM54.75 220.15C54.579 220.127 54.426 220.032 54.3303 219.888C54.264 219.789 54.2296 219.673 54.2296 219.555C54.2296 219.503 54.2363 219.451 54.25 219.4C54.9 216.15 55.7001 212.85 56.5 209.4C56.5331 209.226 56.6411 209.076 56.7954 208.989C56.9496 208.902 57.1343 208.888 57.3 208.95C57.5791 209.034 57.7628 209.29 57.7628 209.572C57.7628 209.614 57.7587 209.657 57.75 209.7C56.9 212.9 56.15 216.2 55.4501 219.45C55.4514 219.467 55.4521 219.485 55.4521 219.502C55.4521 219.674 55.3842 219.839 55.2617 219.962C55.1271 220.096 54.9399 220.165 54.75 220.15ZM380.422 219.251C380.329 219.26 380.235 219.243 380.15 219.2C377.7 216.85 375.15 214.5 372.9 212.25C372.787 212.137 372.724 211.984 372.724 211.825C372.724 211.665 372.787 211.513 372.9 211.4C373.151 211.159 373.549 211.159 373.8 211.4C376.2 213.65 378.8 216 381.05 218.35C381.171 218.476 381.231 218.638 381.231 218.8C381.231 218.962 381.171 219.124 381.05 219.25C380.855 219.37 380.612 219.368 380.422 219.251ZM365.699 205.481C365.632 205.481 365.565 205.471 365.5 205.45C363.05 203.2 360.5 201 357.95 198.85C357.841 198.72 357.786 198.56 357.786 198.4C357.786 198.24 357.841 198.08 357.95 197.95C358.202 197.709 358.599 197.709 358.85 197.95L366.4 204.55C366.509 204.68 366.564 204.84 366.564 205C366.564 205.16 366.509 205.32 366.4 205.45C366.191 205.597 365.917 205.608 365.699 205.481ZM59.75 200.75C59.4916 200.636 59.3317 200.382 59.3317 200.109C59.3317 200.057 59.3376 200.003 59.3501 199.95C60.4 196.7 61.5 193.5 62.7001 190.45C62.8523 190.161 63.1843 190.016 63.5 190.1C63.6556 190.156 63.7815 190.273 63.8477 190.424C63.8812 190.501 63.8979 190.583 63.8979 190.665C63.8979 190.745 63.882 190.825 63.8501 190.9C62.7001 193.9 61.6001 197.1 60.55 200.3C60.4529 200.645 60.0951 200.846 59.75 200.75ZM350.45 192.4C350.321 192.45 350.179 192.45 350.05 192.4C347.45 190.3 345.05 188.15 342.25 186.15C342.142 186.027 342.087 185.874 342.087 185.72C342.087 185.576 342.135 185.433 342.23 185.314C342.427 185.067 342.773 184.998 343.05 185.15C345.6 187.2 348.05 189.3 350.85 191.45C350.963 191.562 351.026 191.715 351.026 191.875C351.026 192.034 350.963 192.187 350.85 192.3C350.73 192.373 350.59 192.408 350.45 192.4ZM66.8 181.9C66.6399 181.836 66.5151 181.706 66.4578 181.543C66.4348 181.478 66.4236 181.41 66.4236 181.343C66.4236 181.242 66.4493 181.141 66.5 181.05C67.9 178 69.4501 175 71.05 172.1C71.1125 171.833 71.3362 171.633 71.6089 171.602C71.8817 171.571 72.1447 171.714 72.266 171.961C72.311 172.052 72.333 172.15 72.333 172.248C72.333 172.413 72.27 172.576 72.15 172.7C70.55 175.55 69.05 178.55 67.6001 181.6C67.5347 181.747 67.4131 181.861 67.2628 181.917C67.1124 181.974 66.9458 181.967 66.8 181.9ZM334.75 180.05L334.4 180.05C331.75 178.05 329 176.05 326.3 174.15C326.188 174.027 326.13 173.87 326.13 173.711C326.13 173.586 326.166 173.461 326.239 173.351C326.405 173.102 326.719 172.999 327 173.1C329.75 175.05 332.45 177.05 335.15 179.05C335.263 179.163 335.327 179.315 335.327 179.475C335.327 179.634 335.263 179.787 335.15 179.9C335.04 179.997 334.897 180.051 334.75 180.05ZM318.4 168.4C318.29 168.454 318.161 168.454 318.05 168.4L309.75 162.8C309.561 162.683 309.458 162.481 309.458 162.274C309.458 162.163 309.487 162.051 309.55 161.95C309.729 161.66 310.11 161.57 310.4 161.75C313.233 163.55 316.033 165.4 318.8 167.3C318.906 167.422 318.958 167.573 318.958 167.725C318.958 167.876 318.906 168.028 318.8 168.15C318.717 168.295 318.567 168.389 318.4 168.4ZM76.6001 164.65L76.25 164.65C76.1371 164.537 76.0736 164.384 76.0736 164.225C76.0736 164.065 76.1371 163.913 76.25 163.8C78.15 160.95 80.15 158.25 82.2001 155.65C82.3126 155.537 82.4656 155.473 82.625 155.473C82.7845 155.473 82.9375 155.537 83.05 155.65C83.1792 155.764 83.2532 155.928 83.2532 156.1C83.2532 156.272 83.1792 156.436 83.05 156.55C81.05 159.1 79.05 161.55 77.2001 164.55C77.0383 164.701 76.802 164.74 76.6001 164.65ZM301.55 157.55L301.25 157.55C298.45 155.8 295.55 154.1 292.65 152.55C292.468 152.437 292.358 152.238 292.358 152.025C292.358 152.019 292.358 152.012 292.358 152.006C292.365 151.786 292.489 151.585 292.683 151.481C292.877 151.377 293.113 151.384 293.3 151.5C296.2 153.15 299.1 154.9 301.9 156.5C302.013 156.613 302.077 156.765 302.077 156.925C302.077 157.084 302.013 157.237 301.9 157.35C301.813 157.458 301.688 157.53 301.55 157.55ZM89.0707 149.059C88.9495 149.095 88.8197 149.092 88.7001 149.05C88.587 148.937 88.5236 148.784 88.5236 148.625C88.5236 148.465 88.587 148.312 88.7001 148.2C91.05 145.75 93.7001 143.2 96 141.25C96.2515 141.009 96.6486 141.009 96.9 141.25C97.0206 141.376 97.0811 141.538 97.0811 141.7C97.0811 141.862 97.0206 142.024 96.9 142.15C94.4501 144.3 91.9 146.6 89.7001 149C89.5143 149.128 89.2761 149.15 89.0707 149.059ZM284.1 147.55L283.8 147.55C280.867 145.95 277.917 144.4 274.95 142.9C274.773 142.81 274.647 142.643 274.608 142.448C274.599 142.406 274.595 142.363 274.595 142.321C274.595 142.168 274.649 142.018 274.75 141.9C274.824 141.748 274.958 141.635 275.12 141.588C275.282 141.54 275.456 141.563 275.6 141.65C278.5 143.1 281.5 144.7 284.45 146.3C284.563 146.413 284.626 146.565 284.626 146.725C284.626 146.884 284.563 147.037 284.45 147.15C284.42 147.324 284.308 147.472 284.15 147.55L284.1 147.55ZM266.25 138.5L265.95 138.5C263 137.1 259.9 135.7 256.85 134.4C256.624 134.286 256.492 134.057 256.492 133.819C256.492 133.729 256.51 133.637 256.55 133.55C256.615 133.403 256.737 133.289 256.887 133.233C257.038 133.176 257.204 133.182 257.35 133.25C260.45 134.6 263.5 135.95 266.5 137.4C266.647 137.465 266.761 137.587 266.817 137.737C266.843 137.805 266.856 137.877 266.856 137.948C266.856 138.034 266.837 138.12 266.8 138.2C266.696 138.38 266.507 138.493 266.3 138.5L266.25 138.5ZM104.1 135.95C103.9 135.964 103.709 135.868 103.6 135.7C103.487 135.587 103.424 135.434 103.424 135.275C103.424 135.115 103.487 134.963 103.6 134.85C106.35 132.9 109.15 131.05 112.05 129.4C112.344 129.293 112.672 129.411 112.831 129.68C112.892 129.783 112.922 129.897 112.922 130.011C112.922 130.193 112.845 130.373 112.7 130.5C109.85 132.15 107 133.95 104.35 135.85C104.29 135.896 104.222 135.929 104.15 135.95L104.1 135.95ZM247.85 130.55C244.75 129.35 241.6 128.15 238.5 127.05C238.237 126.954 238.072 126.706 238.072 126.439C238.072 126.376 238.081 126.313 238.1 126.25C238.252 125.961 238.584 125.816 238.9 125.9C242.05 127 245.2 128.2 248.3 129.4C248.631 129.4 248.9 129.669 248.9 130C248.9 130.331 248.631 130.6 248.3 130.6L247.85 130.55ZM121.4 125.95C121.17 125.931 120.965 125.8 120.85 125.6C120.81 125.513 120.792 125.421 120.792 125.331C120.792 125.093 120.923 124.864 121.15 124.75C124.15 123.4 127.25 122.1 130.45 120.95C130.602 120.885 130.774 120.886 130.926 120.952C131.077 121.019 131.194 121.144 131.25 121.3C131.273 121.368 131.284 121.438 131.284 121.507C131.284 121.757 131.139 121.993 130.9 122.1C127.75 123.25 124.65 124.55 121.7 125.9L121.4 125.95ZM228.95 123.9C225.75 122.9 222.55 122 219.35 121.15C219.073 121.047 218.894 120.783 218.894 120.494C218.894 120.463 218.896 120.432 218.9 120.4C218.934 120.213 219.047 120.051 219.21 119.955C219.374 119.859 219.571 119.839 219.75 119.9C222.9 120.75 226.15 121.65 229.4 122.7C229.731 122.7 230 122.969 230 123.3C230 123.631 229.731 123.9 229.4 123.9L228.95 123.9ZM140.25 119.15C139.98 119.129 139.746 118.953 139.65 118.7C139.634 118.642 139.626 118.583 139.626 118.525C139.626 118.241 139.813 117.981 140.1 117.9C143.25 117.05 146.55 116.3 150.1 115.65C150.259 115.605 150.43 115.628 150.572 115.713C150.714 115.798 150.815 115.938 150.85 116.1C150.857 116.139 150.86 116.178 150.86 116.216C150.86 116.515 150.653 116.783 150.35 116.85C147.05 117.5 143.8 118.25 140.65 119.1L140.25 119.15ZM209.75 118.75C206.45 118.05 203.15 117.4 199.75 116.9C199.448 116.833 199.24 116.565 199.24 116.266C199.24 116.228 199.243 116.189 199.25 116.15C199.274 115.99 199.363 115.846 199.494 115.752C199.626 115.658 199.791 115.621 199.95 115.65C203.15 116.2 206.5 116.8 209.95 117.55C210.253 117.617 210.46 117.885 210.46 118.184C210.46 118.222 210.457 118.261 210.45 118.3C210.375 118.614 210.066 118.812 209.75 118.75ZM189.75 115.55C186.45 115.2 183.1 114.95 179.75 114.8C179.485 114.876 179.201 114.776 179.041 114.551C178.961 114.438 178.922 114.307 178.922 114.175C178.922 114.043 178.961 113.912 179.041 113.799C179.201 113.574 179.485 113.474 179.75 113.55C183.05 113.55 186.45 113.95 189.75 114.3C189.919 114.312 190.076 114.394 190.18 114.528C190.264 114.634 190.309 114.765 190.309 114.898C190.309 114.932 190.306 114.966 190.3 115C190.259 115.285 190.035 115.509 189.75 115.55ZM159.75 115.55C159.596 115.564 159.443 115.512 159.328 115.408C159.215 115.303 159.15 115.156 159.15 115.002L159.15 115C159.144 114.967 159.141 114.933 159.141 114.9C159.141 114.771 159.186 114.645 159.271 114.545C159.378 114.419 159.535 114.347 159.7 114.35C162.95 114 166.3 113.75 169.7 113.65C170.021 113.674 170.276 113.929 170.3 114.25C170.301 114.267 170.302 114.283 170.302 114.3C170.302 114.45 170.246 114.596 170.143 114.707C170.029 114.831 169.868 114.901 169.7 114.9C166.35 114.9 163 115.2 159.7 115.55L159.75 115.55Z" clip-rule="evenodd" fill="#D8D5DB" fill-opacity="1.000000" fill-rule="evenodd"/>
	<path id="Path" d="M469.75 395.75C469.75 396.35 469.75 396.85 469.75 397.4C468.5 411.35 456.5 441.1 444.75 467.4C445.15 476.9 445.45 485.4 445.5 492.4C445.5 493.7 445.5 494.9 445.5 496.1L444.05 496.1C444.4 502.3 444.85 513.05 445.2 525.4C401.95 551.55 348.35 567.4 292.54 580.4L283 582.55C274.7 584.43 266.19 585.2 257.7 584.84C257.18 582.75 257 580.59 257.15 578.45C258.33 550.26 261.27 522.17 265.95 494.35L262.85 493.9C274.2 455.6 279.9 400.35 282.85 352.4C283.2 346.75 283.5 341.25 283.75 335.8C276.5 343.2 271.5 347.8 271.5 347.8L256.15 322.54C237.2 336.25 219.3 348.35 210.55 353.95C203.3 360.75 190.95 361.75 181.25 348.95C165.55 328.4 143.39 242.15 140.8 227.5C140.42 227.35 140.06 227.15 139.75 226.9C136.14 221.9 123.55 194.65 124.75 189.35C125.95 184.05 131.85 172.6 138.7 171.05C137.89 168.6 137 166.05 135.7 162.5C132.8 154.6 129.35 146.6 134.55 147.5C139.75 148.39 151.64 177.5 153.7 182.5C154 180.15 154.3 178.25 154.3 178.25C155.89 173.55 164.3 171.05 163.05 178.25C161.6 188.25 165.1 193.25 164.95 201.5C164.95 201.95 164.95 202.45 164.95 203.15C164.97 203.45 164.97 203.75 164.95 204.05C164.97 204.26 164.97 204.48 164.95 204.7C164.95 204.7 164.95 204.95 164.95 205.05C163.73 211.19 161.57 217.11 158.55 222.6C164 240.4 189 286.95 203.55 312.6C212.45 305.2 223.55 296.4 235.05 287.6L234.05 285.95C234.05 285.95 293.35 230.5 324.04 226.3C324.5 224.15 324.79 221.8 325.1 219.35C325.4 216.9 325.6 212.75 325.7 209.35C303.15 209.1 301.04 192.5 303.29 171.4L299.75 170.5L305 156.89L305 155.89C304.42 155.22 304.08 154.38 304.04 153.5C304.04 151.85 304.5 150.45 305.4 150.39C305.52 150.35 305.67 150.35 305.79 150.39C305.79 149.2 306.2 148 306.35 146.8C306.75 144.14 307.25 141.8 307.75 139.35C306.41 139.08 305.03 139.08 303.7 139.35L303.29 136.89C304.95 136.6 306.64 136.6 308.29 136.89C309.95 130.19 312.64 123.78 316.25 117.9C309.04 117.4 305.65 115.05 310.65 109.25C318.4 100.25 355.1 95.75 373.6 99.55C380.1 100.9 384.35 103.25 384.4 106.75C384.4 107.15 384.4 107.4 384.4 107.75C386.29 106.94 387.92 105.63 389.1 103.95L391.2 105.35C389.99 107.05 388.42 108.47 386.6 109.5L385.85 109.9C405.65 122.8 377.65 191.9 377.55 191.9C377 203.75 376.65 215.45 376.7 223.7C394.5 225.75 405.75 230.95 413.2 239.1C433.2 255.15 463.9 321 463.9 321L451.35 324.29C460.3 353 467.9 381.8 470.1 391.45C470.16 392.89 470.04 394.33 469.75 395.75Z" fill="#D1CDD3" fill-opacity="1.000000" fill-rule="nonzero"/>
	<g opacity="0.300000">
		<rect id="Rectangle" x="377.050049" y="284.899902" rx="33.599998" width="334.649994" height="261.250000" transform="rotate(180 377.050049 284.899902)" fill="#4D8DFF" fill-opacity="1.000000"/>
	</g>
	<g opacity="0.300000">
		<path id="Shape" d="M354.75 308.55L40.15 308.55C18.0586 308.55 0.150024 290.641 0.150024 268.55L0.150024 40.1499C0.150024 18.0585 18.0586 0.149902 40.15 0.149902L354.75 0.149902C376.841 0.149902 394.75 18.0585 394.75 40.1499L394.75 268.4C394.79 279.035 390.593 289.247 383.087 296.781C375.582 304.315 365.385 308.55 354.75 308.55ZM1.25 40.1499C1.27759 18.6774 18.6776 1.27747 40.15 1.24988L354.75 1.24988C376.222 1.27747 393.622 18.6774 393.65 40.1499L393.65 268.4C393.622 289.872 376.222 307.272 354.75 307.3L40.15 307.3C18.6776 307.272 1.27759 289.872 1.25 268.4L1.25 40.1499Z" clip-rule="evenodd" fill="#4D8DFF" fill-opacity="1.000000" fill-rule="evenodd"/>
	</g>
	<g opacity="0.300000">
		<rect id="Rectangle" x="126.050049" y="101.050049" rx="5.600000" width="55.900002" height="43.650002" transform="rotate(180 126.050049 101.050049)" fill="#4D8DFF" fill-opacity="1.000000"/>
		<rect id="Rectangle" x="200.449951" y="101.050049" rx="5.600000" width="55.900002" height="43.650002" transform="rotate(180 200.449951 101.050049)" fill="#4D8DFF" fill-opacity="1.000000"/>
		<rect id="Rectangle" x="274.900024" y="101.050049" rx="5.600000" width="55.900002" height="43.650002" transform="rotate(180 274.900024 101.050049)" fill="#4D8DFF" fill-opacity="1.000000"/>
		<rect id="Rectangle" x="349.349976" y="101.050049" rx="5.600000" width="55.900002" height="43.650002" transform="rotate(180 349.349976 101.050049)" fill="#4D8DFF" fill-opacity="1.000000"/>
	</g>
	<g opacity="0.300000">
		<rect id="Rectangle" x="126.050049" y="176.100098" rx="5.600000" width="55.900002" height="43.650002" transform="rotate(180 126.050049 176.100098)" fill="#4D8DFF" fill-opacity="1.000000"/>
		<rect id="Rectangle" x="200.449951" y="176.100098" rx="5.600000" width="55.900002" height="43.650002" transform="rotate(180 200.449951 176.100098)" fill="#4D8DFF" fill-opacity="1.000000"/>
		<rect id="Rectangle" x="274.900024" y="176.100098" rx="5.600000" width="55.900002" height="43.650002" transform="rotate(180 274.900024 176.100098)" fill="#4D8DFF" fill-opacity="1.000000"/>
		<rect id="Rectangle" x="349.349976" y="176.100098" rx="5.600000" width="55.900002" height="43.650002" transform="rotate(180 349.349976 176.100098)" fill="#4D8DFF" fill-opacity="1.000000"/>
	</g>
	<g opacity="0.300000">
		<rect id="Rectangle" x="126.050049" y="251.100098" rx="5.600000" width="55.900002" height="43.650002" transform="rotate(180 126.050049 251.100098)" fill="#4D8DFF" fill-opacity="1.000000"/>
		<rect id="Rectangle" x="200.449951" y="251.100098" rx="5.600000" width="55.900002" height="43.650002" transform="rotate(180 200.449951 251.100098)" fill="#4D8DFF" fill-opacity="1.000000"/>
		<rect id="Rectangle" x="274.900024" y="251.100098" rx="5.600000" width="55.900002" height="43.650002" transform="rotate(180 274.900024 251.100098)" fill="#4D8DFF" fill-opacity="1.000000"/>
		<rect id="Rectangle" x="349.349976" y="251.100098" rx="5.600000" width="55.900002" height="43.650002" transform="rotate(180 349.349976 251.100098)" fill="#4D8DFF" fill-opacity="1.000000"/>
	</g>
	<rect id="Rectangle" x="282.000000" y="93.949951" rx="5.600000" width="55.900002" height="43.650002" transform="rotate(180 282.000000 93.949951)" fill="#4D8DFF" fill-opacity="1.000000"/>
	<rect id="Rectangle" x="282.000000" y="244.000000" rx="5.600000" width="55.900002" height="43.650002" transform="rotate(180 282.000000 244.000000)" fill="#FF4E4A" fill-opacity="1.000000"/>
	<rect id="Rectangle" x="133.099976" y="169.000000" rx="5.600000" width="55.900002" height="43.650002" transform="rotate(180 133.099976 169.000000)" fill="#FFC84D" fill-opacity="1.000000"/>
	<path id="Path" d="M416.1 148.75C414.4 159.64 411.1 218.75 412.45 232.25C413.8 245.75 347.45 249.85 356.3 234.8C365.15 219.75 358.85 169.8 358.85 169.8L416.1 148.75Z" fill="#FFAD69" fill-opacity="1.000000" fill-rule="nonzero"/>
	<path id="Path" d="M411.5 150.45L358.85 169.7C360.82 186.17 361.29 202.79 360.25 219.35C381.95 210.4 377.15 192.2 377.15 182.4C377.15 173.5 411.55 152.14 411.5 150.45Z" fill="#D88344" fill-opacity="1.000000" fill-rule="nonzero"/>
	<path id="Path" d="M342.1 152.7L333.9 170.2L343.9 174.25L342.1 152.7Z" fill="#D88344" fill-opacity="1.000000" fill-rule="nonzero"/>
	<path id="Path" d="M341.95 146.89C336.95 180.55 328.75 214.1 369.55 208.55C410.35 203 416.65 150.8 416.55 140.89C415.9 88.3 351.55 80.8 341.95 146.89Z" fill="#FFAD69" fill-opacity="1.000000" fill-rule="nonzero"/>
	<path id="Path" d="M421.5 110.1C423.6 109.01 425.43 107.45 426.85 105.55L424.75 104.15C423.47 105.86 421.74 107.17 419.75 107.95C419.77 107.6 419.77 107.24 419.75 106.9C419.75 93.29 356.45 97.2 346 109.35C339.8 116.55 346.4 118.45 357.1 118.1C356.3 118.71 355.71 119.54 355.4 120.5C348.35 155.05 381.65 189.05 385.4 191.95L412.6 191.95C412.6 191.95 441.1 122.8 421.5 110.1Z" fill="#232323" fill-opacity="1.000000" fill-rule="nonzero"/>
	<path id="Path" d="M505.5 391.5C501.9 375.45 483.15 306 468.25 272.7L430.2 280.79C430.2 280.79 454.75 362.9 467.8 393.55C464.75 410.05 449.35 486.8 439.85 508.25C435.65 518.25 451.55 522.09 455.4 517.3C459.25 512.5 502.95 424.7 505.4 397.3C505.4 396.7 505.4 396.2 505.4 395.65C505.64 394.28 505.68 392.88 505.5 391.5Z" fill="#FFAD69" fill-opacity="1.000000" fill-rule="nonzero"/>
	<path id="Path" d="M448.35 238.85C468.35 254.5 499.3 321.04 499.3 321.04L433.8 338.05C433.8 338.05 395.7 197.65 448.35 238.85Z" fill="#E5AA33" fill-opacity="1.000000" fill-rule="nonzero"/>
	<path id="Path" d="M479.75 500.35C469.07 509.76 457.52 518.13 445.25 525.34C402 551.5 348.4 567.34 292.6 580.34C292.54 579.7 292.54 579.04 292.6 578.4C294.4 547.45 297.6 512.09 302.6 489.65L445.65 492.5L479.45 493.2C479.45 494.9 479.75 497.3 479.75 500.35Z" fill="#232323" fill-opacity="1.000000" fill-rule="nonzero"/>
	<path id="Path" d="M400.45 222.9C439.7 224.2 453 237.45 459.75 260.4C467.45 286.4 481 443.65 481 496.15C481 496.15 363.45 504.5 298.35 493.8C318.75 424.85 320.95 300.9 321.4 263.79C321.7 236.25 350.65 221.25 400.45 222.9Z" fill="#FFC84D" fill-opacity="1.000000" fill-rule="nonzero"/>
	<path id="Shape" d="M408.3 251.4C407.118 251.408 406.003 250.851 405.3 249.9L394.75 235.7C393.898 234.564 393.761 233.043 394.396 231.773C395.031 230.502 396.33 229.7 397.75 229.7L414.1 229.7C415.302 229.733 416.418 230.334 417.108 231.319C417.798 232.305 417.98 233.559 417.6 234.7L411.9 248.9C411.388 250.151 410.242 251.03 408.9 251.2L408.3 251.4ZM396.5 232.9C396.714 232.462 397.163 232.189 397.65 232.2L413.95 232.2C414.37 232.195 414.765 232.402 415 232.75C415.225 233.118 415.225 233.582 415 233.95L409.3 248.1C409.149 248.537 408.76 248.848 408.3 248.9C407.855 248.952 407.416 248.761 407.15 248.4L396.5 234.2C396.245 233.804 396.245 233.296 396.5 232.9Z" clip-rule="evenodd" fill="#FFFFFF" fill-opacity="1.000000" fill-rule="evenodd"/>
	<path id="Path" d="M321.25 272.95C320.95 291.1 320.25 320.04 318.29 352.4C334.95 332.4 351.3 308.75 352.25 291C353.6 266.6 339.75 265.1 321.25 272.95Z" fill="#E5AA33" fill-opacity="1.000000" fill-rule="nonzero"/>
	<path id="Path" d="M343.4 281.4L323.4 248.15C323.4 248.15 268.4 287.79 238.85 312.35C224.25 286.65 199.3 240.1 193.85 222.35C196.86 216.88 199 210.97 200.2 204.85C200.23 204.73 200.23 204.61 200.2 204.5C200.2 204.5 200.2 204.05 200.2 203.85C200.22 203.55 200.22 203.25 200.2 202.95C200.2 202.25 200.2 201.7 200.2 201.25C200.2 193.2 196.85 188.25 198.3 178.05C199.3 170.9 191.15 173.35 189.55 178.05L188.9 182.25C186.85 177.25 174.5 147.89 169.8 147.25C165.1 146.6 168.05 154.5 170.95 162.25C172.2 165.7 173.15 168.4 173.95 170.8C167.05 172.4 160.95 184.2 160 189.15C159.05 194.1 171.55 221.7 175 226.7C175.26 227.03 175.58 227.32 175.95 227.55C178.5 242.25 200.95 328.45 216.35 349.05C226.05 361.8 238.45 360.8 245.7 354.05C263.5 342.7 318.2 305.1 343.4 281.4Z" fill="#FFAD69" fill-opacity="1.000000" fill-rule="nonzero"/>
	<path id="Path" d="M377.15 248.15C375.15 284.85 307.15 347.8 307.15 347.8L269.25 285.79C269.25 285.79 380.85 181.4 377.15 248.15Z" fill="#FFC84D" fill-opacity="1.000000" fill-rule="nonzero"/>
	<path id="Path" d="M356.15 157.3C354.65 166.1 352.45 174.85 360.7 174.2C368.95 173.55 371.05 159.85 371.2 157.25C371.9 143.25 359.1 139.89 356.15 157.3Z" fill="#FFAD69" fill-opacity="1.000000" fill-rule="nonzero"/>
</svg>
