<svg width="520.000000" height="574.000000" viewBox="0 0 520 574" fill="none" xmlns="http://www.w3.org/2000/svg" xmlns:xlink="http://www.w3.org/1999/xlink">
	<desc>
			Created with Pixso.
	</desc>
	<defs/>
	<mask id="mask0_404" mask-type="alpha" maskUnits="userSpaceOnUse" x="0.001221" y="62.301392" width="519.783813" height="511.008606">
		<path id="Clip 2" d="M0 62.3L519.78 62.3L519.78 573.31L0 573.31L0 62.3Z" fill="#000000" fill-opacity="1.000000" fill-rule="evenodd"/>
	</mask>
	<g mask="url(#mask0_404)">
		<path id="Fill 1" d="M456.45 550.18C443 558.28 427.35 564.13 410.1 567.93C398.65 570.43 386.45 572.08 373.75 572.78C327.05 575.63 273.35 566.88 221.6 549.38C210 545.48 198.5 541.13 187.2 536.33C103.05 500.93 29.9 443.13 9.4 376.13C-28.05 253.83 52.35 165.88 145.45 85.18C183.2 52.43 232.4 57.13 283.3 84.78C295.2 91.23 307.15 98.93 319.1 107.68C363.95 140.63 408.35 188.58 445.85 241.88C519.45 346.53 562.05 486.73 456.45 550.18Z" fill="#FDE6D6" fill-opacity="1.000000" fill-rule="evenodd"/>
	</g>
	<path id="Fill 4" d="M417.21 155.93C408.53 138.42 405.35 116.26 422.76 109.12C442.21 101.16 473.2 114.04 482.22 143.26C487.99 161.94 486.01 188.01 470.08 198.03C456.45 206.61 427.87 177.4 417.21 155.93Z" fill="#E8E5EA" fill-opacity="1.000000" fill-rule="evenodd"/>
	<path id="Fill 6" d="M141.485 66.8425L141.44 66.8425C138.095 66.6125 134.74 66.4875 131.48 66.4675C131.13 66.4675 130.855 66.1875 130.855 65.8425C130.86 65.4976 131.135 65.2175 131.48 65.2175L131.485 65.2175C134.775 65.2375 138.155 65.3625 141.53 65.5925C141.862 65.6166 142.111 65.8958 142.111 66.2246C142.111 66.2372 142.111 66.2498 142.11 66.2625C142.085 66.5925 141.81 66.8425 141.485 66.8425ZM111.515 67.8026C111.21 67.8026 110.94 67.5775 110.895 67.2675C110.891 67.2369 110.888 67.2064 110.888 67.1762C110.888 66.872 111.111 66.603 111.425 66.5576C114.655 66.0875 118.025 65.7375 121.43 65.5125C121.82 65.4475 122.075 65.7525 122.095 66.0975C122.096 66.1127 122.097 66.1277 122.097 66.1427C122.097 66.4637 121.845 66.7384 121.515 66.7575C118.14 66.9825 114.805 67.3325 111.605 67.7925C111.575 67.7975 111.545 67.8026 111.515 67.8026ZM161.355 69.3175C161.315 69.3175 161.28 69.3125 161.245 69.3076C157.96 68.7175 154.64 68.2175 151.375 67.8076C151.057 67.7661 150.825 67.5002 150.825 67.1892C150.825 67.1623 150.826 67.135 150.83 67.1075C150.875 66.7675 151.16 66.5375 151.53 66.5675C154.82 66.9775 158.16 67.4875 161.465 68.0775C161.764 68.1311 161.98 68.3959 161.98 68.6941C161.98 68.7299 161.976 68.7661 161.97 68.8026C161.915 69.1025 161.65 69.3175 161.355 69.3175ZM92.025 72.3175C91.76 72.3175 91.515 72.1475 91.4301 71.8775C91.4102 71.8148 91.4006 71.7513 91.4006 71.689C91.4006 71.4235 91.5728 71.1785 91.8401 71.0975C95.0051 70.0975 98.265 69.2075 101.535 68.4425C101.865 68.3625 102.21 68.5725 102.285 68.9075C102.297 68.9557 102.302 69.0039 102.302 69.0513C102.302 69.3336 102.107 69.5891 101.82 69.6575C98.5801 70.4175 95.3451 71.3026 92.2151 72.2875C92.15 72.3076 92.0901 72.3175 92.025 72.3175ZM180.895 73.6975C180.84 73.6975 180.785 73.6925 180.73 73.6776C177.48 72.7975 174.22 71.9926 171.035 71.2775C170.742 71.2128 170.545 70.9542 170.545 70.666C170.545 70.6204 170.55 70.574 170.56 70.5275C170.635 70.1925 170.95 69.9775 171.305 70.0576C174.51 70.7775 177.79 71.5875 181.06 72.4675C181.334 72.5464 181.519 72.7946 181.519 73.0685C181.519 73.1241 181.511 73.1809 181.495 73.2375C181.42 73.5125 181.17 73.6975 180.895 73.6975ZM200.03 79.6475C199.96 79.6475 199.89 79.6375 199.82 79.6125C196.69 78.5075 193.495 77.4525 190.335 76.4675C190.068 76.3825 189.896 76.1367 189.896 75.8737C189.896 75.812 189.905 75.7493 189.925 75.6875C190.025 75.3575 190.38 75.1675 190.705 75.2775C193.88 76.2625 197.09 77.3275 200.235 78.4326C200.492 78.5235 200.655 78.7679 200.655 79.0269C200.655 79.0953 200.644 79.1647 200.62 79.2325C200.53 79.4875 200.29 79.6475 200.03 79.6475ZM73.51 79.8425C73.285 79.8425 73.0651 79.7175 72.9551 79.4976C72.9093 79.4075 72.8875 79.3113 72.8875 79.2164C72.8875 78.9898 73.0116 78.7703 73.2301 78.6575C76.175 77.1575 79.2551 75.7525 82.3801 74.4875C82.6901 74.3475 83.0601 74.5125 83.1901 74.8325C83.2213 74.9094 83.2361 74.9889 83.2361 75.0671C83.2361 75.3143 83.0881 75.5488 82.8451 75.6475C79.7551 76.8975 76.7101 78.2875 73.795 79.7725C73.7051 79.8175 73.6051 79.8425 73.51 79.8425ZM218.71 86.8925C218.63 86.8925 218.55 86.8775 218.465 86.8425C215.405 85.5425 212.29 84.2725 209.2 83.0775C208.954 82.9814 208.802 82.7433 208.802 82.493C208.802 82.4178 208.816 82.3414 208.845 82.2675C208.975 81.9475 209.335 81.7975 209.655 81.9125C212.755 83.1125 215.885 84.3875 218.955 85.6925C219.196 85.7941 219.338 86.0259 219.338 86.2708C219.338 86.3514 219.322 86.4333 219.29 86.5125C219.185 86.7476 218.955 86.8925 218.71 86.8925ZM56.6101 90.4976C56.42 90.4976 56.2401 90.4175 56.1151 90.2575C56.0278 90.1432 55.9855 90.0083 55.9855 89.8745C55.9855 89.6862 56.0693 89.5003 56.2301 89.3775C58.8551 87.3575 61.6301 85.4175 64.4751 83.6226C64.77 83.4425 65.155 83.5275 65.3401 83.8175C65.4054 83.9218 65.4365 84.0373 65.4365 84.151C65.4365 84.3591 65.3325 84.5612 65.145 84.6776C62.3301 86.4575 59.5901 88.3726 56.9901 90.3726C56.8801 90.4575 56.7451 90.4976 56.6101 90.4976ZM236.92 95.2525C236.83 95.2525 236.735 95.2325 236.645 95.1875C233.635 93.7025 230.6 92.2575 227.615 90.8875C227.388 90.7816 227.253 90.5526 227.253 90.316C227.253 90.229 227.271 90.1409 227.31 90.0576C227.455 89.7426 227.825 89.6025 228.14 89.7476C231.13 91.1226 234.18 92.5775 237.2 94.0625C237.421 94.1732 237.548 94.3959 237.548 94.6271C237.548 94.7198 237.528 94.8138 237.485 94.9025C237.375 95.1226 237.15 95.2525 236.92 95.2525ZM42.0051 104.133C41.8551 104.133 41.7101 104.083 41.5901 103.973C41.4508 103.852 41.3804 103.683 41.3804 103.511C41.3804 103.363 41.4332 103.213 41.54 103.093C43.7551 100.598 46.1151 98.1725 48.5601 95.8925C48.8101 95.6525 49.2051 95.6675 49.4401 95.9175C49.5546 96.0392 49.6111 96.1928 49.6111 96.3457C49.6111 96.5131 49.5433 96.6797 49.41 96.8026C47.0001 99.0625 44.665 101.458 42.4701 103.923C42.3501 104.062 42.1801 104.133 42.0051 104.133ZM254.655 104.583C254.55 104.583 254.45 104.558 254.35 104.503C251.445 102.878 248.485 101.273 245.56 99.7325C245.347 99.6207 245.224 99.4014 245.224 99.1754C245.224 99.078 245.247 98.9794 245.295 98.8875C245.46 98.5825 245.84 98.4625 246.14 98.6226C249.08 100.173 252.045 101.783 254.96 103.413C255.164 103.528 255.28 103.741 255.28 103.959C255.28 104.062 255.255 104.167 255.2 104.263C255.085 104.468 254.875 104.583 254.655 104.583ZM271.905 114.793C271.795 114.793 271.68 114.763 271.575 114.698C268.725 112.918 265.85 111.173 263.03 109.503C262.831 109.387 262.72 109.179 262.72 108.966C262.72 108.857 262.749 108.747 262.81 108.648C262.98 108.343 263.365 108.248 263.665 108.428C266.49 110.098 269.38 111.853 272.24 113.638C272.428 113.757 272.531 113.96 272.531 114.169C272.531 114.283 272.5 114.398 272.435 114.503C272.32 114.688 272.115 114.793 271.905 114.793ZM30.1201 120.213C30.0051 120.213 29.895 120.183 29.79 120.118C29.6 120 29.4937 119.793 29.4937 119.582C29.4937 119.471 29.5231 119.359 29.5851 119.258C31.3451 116.393 33.2401 113.583 35.2051 110.913C35.415 110.638 35.8051 110.583 36.0801 110.783C36.2466 110.904 36.3335 111.092 36.3335 111.281C36.3335 111.411 36.2932 111.541 36.2101 111.653C34.265 114.298 32.395 117.073 30.65 119.913C30.535 120.108 30.3301 120.213 30.1201 120.213ZM288.655 125.803C288.53 125.803 288.405 125.763 288.3 125.693C285.53 123.778 282.735 121.898 280 120.098C279.816 119.977 279.717 119.779 279.717 119.576C279.717 119.458 279.75 119.339 279.82 119.233C280.01 118.953 280.395 118.868 280.685 119.053C283.43 120.858 286.23 122.743 289.005 124.658C289.185 124.781 289.28 124.978 289.28 125.177C289.28 125.299 289.244 125.421 289.17 125.528C289.045 125.703 288.85 125.803 288.655 125.803ZM304.86 137.528C304.73 137.528 304.6 137.488 304.485 137.403C301.805 135.378 299.105 133.373 296.455 131.453C296.286 131.329 296.197 131.138 296.197 130.945C296.197 130.819 296.236 130.692 296.315 130.583C296.52 130.298 296.91 130.238 297.19 130.443C299.845 132.363 302.555 134.373 305.24 136.408C305.402 136.528 305.486 136.714 305.486 136.903C305.486 137.036 305.445 137.169 305.36 137.283C305.235 137.443 305.05 137.528 304.86 137.528ZM21.015 138.023C20.9351 138.023 20.8551 138.008 20.775 137.978C20.5349 137.876 20.3905 137.642 20.3905 137.399C20.3905 137.318 20.4064 137.236 20.4401 137.158C21.7501 134.038 23.175 130.968 24.67 128.038C24.8251 127.728 25.2001 127.603 25.51 127.763C25.7285 127.872 25.8527 128.093 25.8527 128.32C25.8527 128.416 25.8308 128.512 25.785 128.603C24.3 131.513 22.89 134.553 21.5901 137.643C21.4901 137.883 21.26 138.023 21.015 138.023ZM320.565 149.988C320.425 149.988 320.285 149.943 320.165 149.848C317.645 147.753 315.03 145.628 312.39 143.533C312.235 143.409 312.154 143.228 312.154 143.045C312.154 142.909 312.198 142.772 312.29 142.658C312.51 142.388 312.9 142.348 313.165 142.553C315.815 144.653 318.44 146.783 320.965 148.883C321.115 149.007 321.193 149.186 321.193 149.367C321.193 149.507 321.146 149.647 321.05 149.763C320.925 149.913 320.745 149.988 320.565 149.988ZM14.4801 156.938C14.42 156.938 14.3651 156.932 14.3101 156.918C14.0359 156.839 13.8514 156.587 13.8514 156.312C13.8514 156.256 13.859 156.199 13.8751 156.143C14.785 152.888 15.785 149.658 16.8551 146.548C16.9701 146.223 17.3301 146.038 17.65 146.158C17.9092 146.249 18.073 146.493 18.073 146.753C18.073 146.82 18.0624 146.887 18.04 146.953C16.9751 150.043 15.9801 153.248 15.0801 156.483C15.0051 156.758 14.7501 156.938 14.4801 156.938ZM335.735 163.168C335.58 163.168 335.435 163.113 335.315 163.003C332.85 160.763 330.325 158.518 327.81 156.333C327.669 156.213 327.597 156.04 327.597 155.865C327.597 155.719 327.647 155.571 327.75 155.453C327.975 155.188 328.37 155.173 328.63 155.393C331.155 157.583 333.68 159.833 336.155 162.078C336.29 162.202 336.359 162.372 336.359 162.542C336.359 162.692 336.305 162.843 336.195 162.963C336.07 163.098 335.905 163.168 335.735 163.168ZM10.17 176.493C10.135 176.493 10.1001 176.488 10.0651 176.483C9.76147 176.433 9.54553 176.169 9.54553 175.871C9.54553 175.835 9.54871 175.799 9.55505 175.763C10.1101 172.438 10.7501 169.123 11.4551 165.903C11.53 165.568 11.8601 165.358 12.2001 165.423C12.49 165.487 12.6901 165.747 12.6901 166.033C12.6901 166.077 12.6852 166.122 12.675 166.168C11.9751 169.368 11.3401 172.668 10.785 175.968C10.7351 176.273 10.4701 176.493 10.17 176.493ZM350.25 176.988C350.09 176.988 349.93 176.928 349.81 176.803C347.445 174.448 345.03 172.098 342.64 169.823C342.511 169.699 342.446 169.534 342.446 169.369C342.446 169.214 342.504 169.059 342.62 168.938C342.855 168.693 343.255 168.678 343.5 168.918C345.9 171.203 348.32 173.557 350.69 175.918C350.812 176.04 350.874 176.2 350.874 176.36C350.874 176.52 350.812 176.68 350.69 176.803C350.57 176.928 350.41 176.988 350.25 176.988ZM364.09 191.478C363.92 191.478 363.755 191.408 363.63 191.273C361.385 188.808 359.09 186.343 356.805 183.953C356.691 183.834 356.635 183.679 356.635 183.524C356.635 183.359 356.699 183.194 356.825 183.073C357.08 182.838 357.47 182.838 357.71 183.093C360.005 185.488 362.305 187.958 364.555 190.433C364.665 190.552 364.719 190.701 364.719 190.851C364.719 191.021 364.649 191.19 364.51 191.312C364.395 191.423 364.245 191.478 364.09 191.478ZM7.75513 196.368L7.70508 196.368C7.37573 196.339 7.12842 196.064 7.12842 195.744C7.12842 195.728 7.12891 195.713 7.13013 195.698C7.39502 192.328 7.7301 188.963 8.12512 185.703C8.16504 185.363 8.44507 185.133 8.82007 185.158C9.13989 185.195 9.36938 185.464 9.36938 185.778C9.36938 185.802 9.36804 185.827 9.36511 185.853C8.9751 189.098 8.64001 192.443 8.37512 195.793C8.3551 196.118 8.08008 196.368 7.75513 196.368ZM377.19 206.643C377.01 206.643 376.83 206.562 376.705 206.413C374.625 203.873 372.46 201.297 370.265 198.758C370.164 198.641 370.114 198.497 370.114 198.353C370.114 198.177 370.189 198.001 370.335 197.878C370.595 197.648 370.99 197.682 371.215 197.943C373.415 200.488 375.59 203.073 377.675 205.623C377.771 205.738 377.817 205.877 377.817 206.016C377.817 206.197 377.738 206.378 377.585 206.503C377.47 206.598 377.33 206.643 377.19 206.643ZM6.94507 216.383C6.6001 216.378 6.32007 216.098 6.32007 215.753C6.33508 212.398 6.41003 209.023 6.54004 205.718C6.55505 205.378 6.82007 205.093 7.19006 205.118C7.52588 205.132 7.79065 205.407 7.79065 205.74C7.79065 205.749 7.79053 205.758 7.79004 205.768C7.66003 209.057 7.58508 212.418 7.57007 215.758C7.57007 216.103 7.29004 216.383 6.94507 216.383ZM389.445 222.498C389.25 222.498 389.06 222.413 388.94 222.243C386.975 219.548 384.955 216.853 382.935 214.243C382.848 214.128 382.805 213.994 382.805 213.861C382.805 213.674 382.889 213.488 383.05 213.363C383.32 213.153 383.71 213.198 383.925 213.478C385.955 216.098 387.98 218.803 389.95 221.508C390.03 221.619 390.068 221.748 390.068 221.876C390.068 222.068 389.98 222.257 389.815 222.378C389.7 222.463 389.57 222.498 389.445 222.498ZM7.51001 236.413C7.18005 236.413 6.90503 236.153 6.88501 235.823C6.68506 232.433 6.53503 229.053 6.44507 225.793C6.44495 225.786 6.44482 225.78 6.44482 225.774C6.44482 225.437 6.7113 225.157 7.05005 225.148L7.07007 225.148C7.40503 225.148 7.68506 225.418 7.69507 225.758C7.78503 229.008 7.93506 232.368 8.13501 235.748C8.13574 235.76 8.13611 235.772 8.13611 235.784C8.13611 236.113 7.87781 236.388 7.54504 236.413L7.51001 236.413ZM400.72 239.058C400.515 239.058 400.31 238.958 400.19 238.768C398.43 235.993 396.58 233.183 394.695 230.418C394.623 230.31 394.589 230.187 394.589 230.066C394.589 229.866 394.683 229.669 394.86 229.548C395.14 229.353 395.535 229.428 395.73 229.713C397.62 232.488 399.48 235.313 401.245 238.098C401.311 238.203 401.343 238.32 401.343 238.436C401.343 238.643 401.241 238.844 401.055 238.963C400.95 239.028 400.835 239.058 400.72 239.058ZM410.84 256.348C410.62 256.348 410.405 256.228 410.29 256.018C408.73 253.118 407.085 250.188 405.395 247.303C405.339 247.205 405.312 247.099 405.312 246.993C405.312 246.779 405.422 246.568 405.62 246.448C405.91 246.268 406.3 246.373 406.475 246.673C408.17 249.568 409.825 252.513 411.39 255.428C411.441 255.521 411.465 255.622 411.465 255.722C411.465 255.945 411.345 256.162 411.135 256.273C411.045 256.323 410.94 256.348 410.84 256.348ZM9.27502 256.373C8.96008 256.373 8.69006 256.138 8.65503 255.818C8.26001 252.453 7.92004 249.088 7.63013 245.838C7.62842 245.819 7.62769 245.801 7.62769 245.782C7.62769 245.461 7.87329 245.186 8.19507 245.158C8.6001 245.123 8.84509 245.383 8.87512 245.723C9.16003 248.968 9.50513 252.318 9.89502 255.678C9.89795 255.702 9.89929 255.726 9.89929 255.75C9.89929 256.061 9.66528 256.33 9.34509 256.368C9.32007 256.373 9.30005 256.373 9.27502 256.373ZM419.585 274.363C419.345 274.363 419.115 274.223 419.01 273.988C417.69 270.943 416.285 267.888 414.84 264.913C414.798 264.825 414.778 264.732 414.778 264.641C414.778 264.409 414.907 264.185 415.13 264.078C415.435 263.923 415.81 264.053 415.965 264.363C417.42 267.363 418.83 270.428 420.16 273.488C420.194 273.569 420.211 273.653 420.211 273.735C420.211 273.978 420.07 274.208 419.835 274.313C419.755 274.343 419.67 274.363 419.585 274.363ZM12.0901 276.213C11.79 276.213 11.525 275.993 11.4751 275.688C10.91 272.343 10.395 269.008 9.94006 265.773C9.93567 265.742 9.93347 265.712 9.93347 265.683C9.93347 265.378 10.1603 265.109 10.4701 265.068C10.79 265.013 11.1251 265.253 11.175 265.598C11.6301 268.823 12.145 272.148 12.7051 275.483C12.7115 275.519 12.7146 275.555 12.7146 275.591C12.7146 275.888 12.4987 276.149 12.1951 276.203C12.16 276.208 12.1251 276.213 12.0901 276.213ZM426.645 293.093C426.38 293.093 426.135 292.928 426.05 292.663C425.055 289.553 423.95 286.388 422.76 283.243C422.733 283.169 422.72 283.095 422.72 283.021C422.72 282.768 422.873 282.531 423.125 282.438C423.445 282.298 423.805 282.473 423.93 282.798C425.13 285.963 426.24 289.153 427.24 292.278C427.26 292.341 427.27 292.406 427.27 292.469C427.27 292.735 427.101 292.983 426.835 293.068C426.77 293.088 426.705 293.093 426.645 293.093ZM15.8651 295.888C15.5751 295.888 15.3201 295.688 15.2551 295.393C14.5551 292.153 13.8801 288.843 13.2551 285.563C13.2465 285.521 13.2423 285.479 13.2423 285.438C13.2423 285.146 13.452 284.89 13.7501 284.833C14.0801 284.743 14.415 284.988 14.4801 285.328C15.1051 288.598 15.775 291.898 16.4751 295.133C16.4851 295.178 16.49 295.223 16.49 295.267C16.49 295.553 16.2893 295.812 15.9951 295.873C15.9551 295.883 15.91 295.888 15.8651 295.888ZM431.645 312.468C431.355 312.468 431.09 312.258 431.035 311.958C430.415 308.773 429.675 305.503 428.83 302.238C428.817 302.185 428.811 302.133 428.811 302.082C428.811 301.803 428.997 301.549 429.28 301.478C429.605 301.393 429.95 301.593 430.04 301.928C430.89 305.213 431.64 308.508 432.26 311.723C432.268 311.762 432.271 311.802 432.271 311.841C432.271 312.132 432.065 312.395 431.765 312.453C431.725 312.463 431.685 312.468 431.645 312.468ZM20.52 315.373C20.2401 315.373 19.9901 315.183 19.915 314.903C19.0701 311.673 18.2551 308.428 17.4801 305.178C17.4684 305.128 17.4628 305.078 17.4628 305.03C17.4628 304.745 17.6541 304.491 17.9401 304.423C18.27 304.343 18.6151 304.548 18.6951 304.883C19.4751 308.128 20.28 311.363 21.1251 314.588C21.1385 314.64 21.1449 314.694 21.1449 314.746C21.1449 315.024 20.9622 315.277 20.6801 315.353C20.6251 315.363 20.5701 315.373 20.52 315.373ZM434.12 332.308C433.79 332.308 433.515 332.048 433.495 331.713C433.325 328.448 433.03 325.108 432.61 321.793C432.606 321.765 432.605 321.738 432.605 321.712C432.605 321.404 432.837 321.134 433.15 321.098C433.525 321.068 433.805 321.298 433.85 321.638C434.27 324.983 434.575 328.353 434.745 331.648C434.746 331.66 434.746 331.672 434.746 331.684C434.746 332.013 434.488 332.288 434.155 332.308L434.12 332.308ZM26.145 335.108C25.8801 335.108 25.635 334.938 25.55 334.668L25.4 334.183C24.425 331.008 23.4651 327.773 22.5601 324.573C22.5436 324.515 22.5356 324.457 22.5356 324.4C22.5356 324.13 22.7134 323.881 22.9901 323.803C23.3351 323.713 23.67 323.903 23.76 324.233C24.67 327.423 25.6251 330.653 26.6001 333.823L26.7401 334.298C26.76 334.36 26.7695 334.423 26.7695 334.486C26.7695 334.75 26.5973 334.992 26.3301 335.078C26.27 335.098 26.2051 335.108 26.145 335.108ZM433.795 352.308L433.755 352.308C433.425 352.284 433.173 352.009 433.173 351.683C433.173 351.668 433.174 351.653 433.175 351.638C433.405 348.368 433.565 345.018 433.64 341.678C433.645 341.333 433.89 341.083 434.28 341.068C434.617 341.073 434.89 341.352 434.89 341.698L434.89 341.708C434.815 345.068 434.655 348.438 434.42 351.728C434.4 352.058 434.12 352.308 433.795 352.308ZM32.3401 354.148C32.0851 354.148 31.8401 353.988 31.7501 353.728C30.67 350.573 29.6101 347.403 28.5751 344.223C28.5548 344.16 28.5452 344.096 28.5452 344.033C28.5452 343.77 28.7137 343.522 28.9801 343.438C29.3101 343.333 29.66 343.513 29.765 343.838C30.8 347.008 31.8551 350.173 32.9351 353.323C32.9574 353.388 32.9679 353.456 32.9679 353.522C32.9679 353.782 32.8042 354.026 32.545 354.118C32.4751 354.138 32.41 354.148 32.3401 354.148ZM431.34 372.158C431.305 372.158 431.27 372.153 431.23 372.148C430.927 372.09 430.715 371.825 430.715 371.531C430.715 371.495 430.719 371.459 430.725 371.423C431.3 368.203 431.8 364.888 432.215 361.563C432.255 361.218 432.585 360.973 432.91 361.018C433.23 361.059 433.459 361.329 433.459 361.643C433.459 361.667 433.458 361.692 433.455 361.718C433.04 365.068 432.535 368.403 431.955 371.638C431.9 371.943 431.64 372.158 431.34 372.158ZM39.1151 372.968C38.8651 372.968 38.6251 372.812 38.535 372.562C37.3551 369.448 36.2001 366.318 35.0651 363.178C35.0389 363.107 35.0265 363.034 35.0265 362.963C35.0265 362.707 35.1859 362.466 35.4401 362.373C35.77 362.263 36.1201 362.428 36.2401 362.753C37.3701 365.888 38.525 369.013 39.7001 372.118C39.7271 372.191 39.7399 372.266 39.7399 372.339C39.7399 372.592 39.588 372.83 39.3401 372.923C39.265 372.953 39.1901 372.968 39.1151 372.968ZM46.515 391.588C46.27 391.588 46.04 391.443 45.9401 391.203C44.655 388.128 43.4 385.033 42.16 381.913C42.1293 381.837 42.1147 381.759 42.1147 381.682C42.1147 381.433 42.2659 381.198 42.51 381.103C42.8201 380.978 43.1901 381.128 43.3201 381.448C44.5551 384.563 45.8151 387.653 47.0901 390.723C47.1238 390.802 47.1396 390.885 47.1396 390.966C47.1396 391.21 46.9952 391.44 46.7551 391.538C46.675 391.573 46.5951 391.588 46.515 391.588ZM426.695 391.603C426.64 391.603 426.58 391.598 426.515 391.578C426.246 391.496 426.073 391.248 426.073 390.98C426.073 390.919 426.082 390.858 426.1 390.798C427.05 387.638 427.925 384.398 428.69 381.178C428.775 380.843 429.095 380.638 429.445 380.713C429.732 380.785 429.927 381.041 429.927 381.324C429.927 381.371 429.922 381.419 429.91 381.468C429.135 384.713 428.255 387.973 427.295 391.158C427.215 391.428 426.965 391.603 426.695 391.603ZM54.535 409.953C54.3 409.953 54.0751 409.818 53.9701 409.588C52.5851 406.563 51.2151 403.508 49.8701 400.433C49.8358 400.353 49.8196 400.269 49.8196 400.187C49.8196 399.945 49.96 399.712 50.1951 399.608C50.51 399.478 50.8801 399.613 51.02 399.933C52.3601 403.003 53.7201 406.048 55.1051 409.068C55.144 409.152 55.1625 409.241 55.1625 409.328C55.1625 409.565 55.0267 409.792 54.8 409.898C54.7151 409.938 54.6251 409.953 54.535 409.953ZM419.785 410.368C419.7 410.368 419.615 410.353 419.53 410.313C419.296 410.212 419.159 409.983 419.159 409.742C419.159 409.658 419.175 409.574 419.21 409.493C420.54 406.473 421.79 403.363 422.94 400.248C423.06 399.928 423.415 399.758 423.745 399.878C423.994 399.971 424.149 400.21 424.149 400.464C424.149 400.537 424.137 400.611 424.11 400.683C422.955 403.823 421.69 406.953 420.355 409.993C420.25 410.228 420.025 410.368 419.785 410.368ZM63.2201 428.008C62.9901 428.008 62.77 427.883 62.66 427.668C61.165 424.698 59.6851 421.698 58.2251 418.668C58.1829 418.58 58.1628 418.488 58.1628 418.397C58.1628 418.164 58.2937 417.94 58.52 417.833C58.8401 417.688 59.2051 417.813 59.3551 418.123C60.8101 421.143 62.28 424.138 63.775 427.103C63.8208 427.194 63.8427 427.291 63.8427 427.387C63.8427 427.615 63.7185 427.833 63.5001 427.943C63.41 427.988 63.3151 428.008 63.2201 428.008ZM410.645 428.168C410.535 428.168 410.425 428.143 410.325 428.083C410.126 427.963 410.018 427.756 410.018 427.545C410.018 427.437 410.046 427.327 410.105 427.228C411.8 424.363 413.425 421.423 414.93 418.483C415.09 418.173 415.46 418.053 415.77 418.213C415.989 418.325 416.113 418.545 416.113 418.771C416.113 418.866 416.091 418.962 416.045 419.053C414.525 422.013 412.89 424.978 411.18 427.863C411.065 428.058 410.855 428.168 410.645 428.168ZM399.485 444.768C399.355 444.768 399.22 444.728 399.105 444.643C398.945 444.521 398.861 444.334 398.861 444.144C398.861 444.012 398.901 443.88 398.985 443.768C400.99 441.118 402.94 438.393 404.78 435.658C404.975 435.373 405.36 435.293 405.65 435.488C405.828 435.609 405.924 435.806 405.924 436.007C405.924 436.128 405.889 436.25 405.815 436.358C403.965 439.113 402.005 441.858 399.985 444.523C399.86 444.683 399.675 444.768 399.485 444.768ZM72.6051 445.713C72.385 445.713 72.175 445.598 72.0601 445.393C70.4651 442.533 68.8551 439.568 67.27 436.578C67.2206 436.483 67.1969 436.381 67.1969 436.281C67.1969 436.058 67.3145 435.843 67.525 435.733C67.8351 435.583 68.2101 435.688 68.3701 435.993C69.9551 438.973 71.5601 441.933 73.15 444.783C73.2045 444.879 73.2302 444.983 73.2302 445.087C73.2302 445.306 73.114 445.52 72.91 445.633C72.8151 445.688 72.7101 445.713 72.6051 445.713ZM386.595 460.058C386.445 460.058 386.29 460.003 386.17 459.888C386.039 459.767 385.973 459.6 385.973 459.433C385.973 459.28 386.028 459.127 386.14 459.008C388.42 456.563 390.65 454.048 392.765 451.543C392.99 451.288 393.385 451.248 393.645 451.468C393.792 451.593 393.869 451.77 393.869 451.949C393.869 452.092 393.82 452.235 393.72 452.353C391.59 454.873 389.35 457.398 387.055 459.863C386.93 459.993 386.765 460.058 386.595 460.058ZM82.7551 462.988C82.55 462.988 82.3451 462.883 82.2251 462.693C80.4901 459.888 78.7451 456.998 77.04 454.103C76.9834 454.003 76.9562 453.893 76.9562 453.785C76.9562 453.569 77.0651 453.359 77.265 453.243C77.5601 453.068 77.9451 453.173 78.1201 453.468C79.8201 456.358 81.5551 459.238 83.29 462.033C83.3527 462.135 83.3826 462.249 83.3826 462.361C83.3826 462.571 83.2775 462.775 83.0851 462.893C82.9851 462.958 82.8701 462.988 82.7551 462.988ZM372.29 474.053C372.115 474.053 371.945 473.983 371.82 473.843C371.714 473.725 371.662 473.577 371.662 473.43C371.662 473.258 371.733 473.086 371.87 472.963C374.38 470.713 376.83 468.423 379.165 466.143C379.41 465.903 379.81 465.913 380.045 466.153C380.166 466.276 380.226 466.434 380.226 466.591C380.226 466.754 380.162 466.916 380.035 467.038C377.69 469.328 375.225 471.633 372.705 473.893C372.585 473.998 372.435 474.053 372.29 474.053ZM93.7551 479.738C93.5551 479.738 93.3601 479.643 93.2401 479.468C91.3501 476.753 89.4601 473.953 87.6251 471.148C87.5537 471.043 87.5198 470.925 87.5198 470.807C87.5198 470.604 87.6212 470.403 87.8051 470.283C88.0901 470.098 88.4751 470.178 88.67 470.468C90.5001 473.263 92.385 476.048 94.265 478.753C94.3422 478.862 94.3792 478.988 94.3792 479.112C94.3792 479.309 94.2852 479.503 94.1101 479.623C94.0001 479.698 93.8801 479.738 93.7551 479.738ZM356.86 486.818C356.67 486.818 356.485 486.733 356.365 486.573C356.278 486.458 356.235 486.324 356.235 486.191C356.235 486.005 356.319 485.82 356.48 485.698C359.135 483.658 361.77 481.568 364.3 479.478C364.565 479.253 364.955 479.293 365.175 479.558C365.272 479.677 365.319 479.819 365.319 479.96C365.319 480.138 365.243 480.315 365.095 480.438C362.55 482.543 359.91 484.643 357.24 486.688C357.125 486.778 356.99 486.818 356.86 486.818ZM105.69 495.823C105.51 495.823 105.325 495.743 105.2 495.588C103.18 493.033 101.125 490.353 99.0901 487.618C99.0077 487.507 98.968 487.377 98.968 487.248C98.968 487.056 99.0557 486.865 99.2201 486.743C99.5001 486.543 99.89 486.598 100.1 486.873C102.12 489.598 104.165 492.268 106.18 494.808C106.272 494.922 106.316 495.06 106.316 495.197C106.316 495.381 106.235 495.564 106.08 495.688C105.965 495.778 105.83 495.823 105.69 495.823ZM340.575 498.473C340.375 498.473 340.18 498.373 340.055 498.193C339.984 498.087 339.95 497.966 339.95 497.847C339.95 497.645 340.048 497.447 340.23 497.328C343.01 495.463 345.775 493.548 348.45 491.638C348.725 491.433 349.12 491.503 349.32 491.783C349.399 491.894 349.438 492.023 349.438 492.151C349.438 492.345 349.349 492.537 349.18 492.658C346.495 494.573 343.72 496.493 340.925 498.368C340.82 498.438 340.695 498.473 340.575 498.473ZM323.64 509.163C323.425 509.163 323.22 509.053 323.1 508.858C323.041 508.758 323.013 508.648 323.013 508.539C323.013 508.326 323.121 508.117 323.32 507.998C326.23 506.263 329.1 504.508 331.845 502.773C332.14 502.598 332.525 502.678 332.71 502.968C332.774 503.072 332.804 503.188 332.804 503.302C332.804 503.51 332.702 503.713 332.515 503.833C329.755 505.568 326.88 507.333 323.96 509.073C323.86 509.133 323.75 509.163 323.64 509.163ZM118.7 511.053C118.535 511.053 118.365 510.983 118.245 510.853C116.02 508.448 113.775 505.918 111.575 503.343C111.476 503.225 111.427 503.079 111.427 502.935C111.427 502.758 111.5 502.583 111.645 502.463C111.91 502.243 112.305 502.268 112.525 502.533C114.715 505.098 116.95 507.608 119.16 510.003C119.272 510.124 119.327 510.276 119.327 510.428C119.327 510.596 119.259 510.764 119.125 510.888C119.005 510.998 118.855 511.053 118.7 511.053ZM306.205 519.033C305.98 519.033 305.765 518.912 305.655 518.708C305.604 518.613 305.579 518.51 305.579 518.41C305.579 518.187 305.698 517.971 305.905 517.858C308.855 516.268 311.775 514.658 314.665 513.023C314.965 512.853 315.345 512.958 315.52 513.258C315.573 513.353 315.598 513.458 315.598 513.561C315.598 513.78 315.484 513.993 315.28 514.113C312.385 515.748 309.455 517.363 306.5 518.958C306.405 519.008 306.305 519.033 306.205 519.033ZM132.94 525.133C132.79 525.133 132.64 525.078 132.525 524.973C130.07 522.773 127.61 520.453 125.22 518.078C125.094 517.954 125.032 517.793 125.032 517.633C125.032 517.473 125.093 517.314 125.215 517.193C125.455 516.948 125.85 516.948 126.095 517.188C128.475 519.552 130.92 521.853 133.36 524.043C133.496 524.165 133.565 524.335 133.565 524.506C133.565 524.656 133.512 524.806 133.405 524.927C133.28 525.062 133.11 525.133 132.94 525.133ZM288.405 528.218C288.175 528.218 287.95 528.093 287.845 527.873C287.801 527.783 287.779 527.688 287.779 527.594C287.779 527.363 287.908 527.139 288.125 527.033C291.125 525.542 294.105 524.042 297.06 522.518C297.36 522.363 297.735 522.483 297.9 522.787C297.947 522.879 297.969 522.977 297.969 523.074C297.969 523.3 297.847 523.52 297.63 523.633C294.67 525.158 291.69 526.662 288.68 528.153C288.59 528.198 288.495 528.218 288.405 528.218ZM270.32 536.853C270.085 536.853 269.86 536.718 269.755 536.488C269.716 536.403 269.697 536.314 269.697 536.226C269.697 535.991 269.831 535.764 270.06 535.663C273.095 534.258 276.12 532.838 279.12 531.408C279.425 531.268 279.81 531.393 279.955 531.703C279.997 531.789 280.016 531.88 280.016 531.97C280.016 532.204 279.884 532.429 279.66 532.538C276.65 533.973 273.625 535.388 270.58 536.793C270.5 536.833 270.41 536.853 270.32 536.853ZM148.575 537.628C148.455 537.628 148.33 537.588 148.22 537.513C145.545 535.633 142.84 533.603 140.185 531.473C140.03 531.349 139.949 531.166 139.949 530.982C139.949 530.845 139.994 530.707 140.085 530.593C140.31 530.328 140.7 530.283 140.965 530.498C143.6 532.608 146.28 534.628 148.935 536.488C149.11 536.61 149.204 536.805 149.204 537.003C149.204 537.127 149.167 537.253 149.09 537.363C148.97 537.533 148.775 537.628 148.575 537.628ZM252.08 545.028C251.84 545.028 251.61 544.888 251.505 544.653C251.471 544.573 251.455 544.489 251.455 544.407C251.455 544.165 251.595 543.932 251.83 543.828C254.89 542.493 257.94 541.148 260.97 539.788C261.285 539.648 261.655 539.788 261.795 540.103C261.832 540.186 261.849 540.272 261.849 540.358C261.849 540.597 261.713 540.824 261.485 540.928C258.445 542.288 255.395 543.638 252.33 544.973C252.25 545.008 252.165 545.028 252.08 545.028ZM165.755 547.873C165.66 547.873 165.565 547.853 165.475 547.807C162.54 546.363 159.57 544.748 156.645 542.993C156.45 542.877 156.342 542.669 156.342 542.457C156.342 542.348 156.371 542.238 156.43 542.138C156.605 541.843 156.99 541.743 157.29 541.923C160.185 543.653 163.125 545.258 166.03 546.688C166.251 546.798 166.378 547.018 166.378 547.248C166.378 547.34 166.358 547.434 166.315 547.523C166.205 547.748 165.98 547.873 165.755 547.873ZM233.615 552.783C233.36 552.783 233.12 552.623 233.03 552.368C233.004 552.297 232.992 552.224 232.992 552.153C232.992 551.897 233.151 551.657 233.405 551.568C234.855 551.043 236.34 550.463 237.82 549.838C239.425 549.158 241.035 548.478 242.64 547.793C242.955 547.663 243.325 547.802 243.46 548.118C243.494 548.199 243.51 548.283 243.51 548.366C243.51 548.61 243.37 548.841 243.135 548.938Q240.72 549.973 238.305 550.993C236.805 551.623 235.3 552.213 233.83 552.743C233.76 552.768 233.685 552.783 233.615 552.783ZM184.43 554.938C184.38 554.938 184.325 554.927 184.275 554.917C181.1 554.078 177.88 553.037 174.7 551.828C174.449 551.735 174.293 551.496 174.293 551.244C174.293 551.17 174.307 551.095 174.335 551.023C174.46 550.698 174.82 550.537 175.14 550.662C178.285 551.853 181.465 552.883 184.59 553.708C184.871 553.783 185.057 554.034 185.057 554.307C185.057 554.36 185.05 554.414 185.035 554.468C184.96 554.753 184.71 554.938 184.43 554.938ZM214.16 557.318C213.84 557.318 213.57 557.078 213.535 556.758C213.533 556.736 213.532 556.714 213.532 556.693C213.532 556.375 213.771 556.105 214.09 556.068C217.355 555.723 220.65 555.163 223.88 554.403C224.23 554.318 224.555 554.538 224.63 554.868C224.643 554.918 224.649 554.969 224.649 555.018C224.649 555.299 224.455 555.554 224.17 555.618C220.885 556.393 217.54 556.958 214.225 557.312C214.2 557.318 214.18 557.318 214.16 557.318ZM204.16 557.748L204.15 557.748C200.835 557.683 197.465 557.403 194.125 556.923C193.816 556.877 193.593 556.612 193.593 556.309C193.593 556.279 193.596 556.248 193.6 556.218C193.645 555.873 193.93 555.628 194.305 555.688C197.59 556.163 200.91 556.433 204.175 556.498C204.509 556.507 204.785 556.783 204.785 557.12C204.785 557.126 204.785 557.132 204.785 557.138C204.78 557.478 204.5 557.748 204.16 557.748Z" clip-rule="evenodd" fill="#D8D5DB" fill-opacity="1.000000" fill-rule="evenodd"/>
	<mask id="mask0_480" mask-type="alpha" maskUnits="userSpaceOnUse" x="46.750000" y="82.129517" width="363.688477" height="491.180511">
		<path id="Clip 9" d="M46.75 82.12L410.43 82.12L410.43 573.31L46.75 573.31L46.75 82.12Z" fill="#000000" fill-opacity="1.000000" fill-rule="evenodd"/>
	</mask>
	<g mask="url(#mask0_480)">
		<path id="Fill 8" d="M407.8 371.379L407.8 371.479C413.1 390.879 409.3 447.829 406.1 479.529C405.1 488.929 404.2 496.129 403.6 499.429C403.8 499.779 404.1 500.079 404.2 500.479C405.85 506.379 403.7 528.479 400.9 533.079C398.05 537.829 385.05 545.779 382.3 544.379C379.7 543.029 376.45 537.679 373.95 531.179C374.25 543.279 374.55 555.529 374.8 565.529C374.85 568.079 374.5 570.479 373.75 572.779C327.05 575.629 273.35 566.879 221.6 549.379C210 545.479 198.5 541.129 187.2 536.329C188.8 515.979 191.05 495.929 194.1 480.679C193.05 480.529 192 480.379 191 480.229C201.85 443.479 207.6 391.079 210.6 344.579C201.4 361.279 192.95 375.729 188.35 383.129C184.8 392.429 174.05 398.679 159.75 391.429C136.7 379.629 79.35 311.529 70.7 299.429C70.3 299.379 69.85 299.229 69.45 299.029C64.1 296.129 49.75 279.229 48.35 273.979C46.95 268.679 50.2 253.829 53.15 252.829C55.3 252.079 58.45 253.029 62.05 254.629L46.75 220.279L50 218.829L61.9 245.429C63.45 241.929 67.5 239.779 69.15 245.029C72.3 254.879 77.6 257.779 80.95 265.179C81.15 265.579 81.35 266.029 81.6 266.679C81.7 266.929 81.8 267.279 81.9 267.579C81.95 267.779 82.05 267.929 82.15 268.179C82.2 268.329 82.2 268.429 82.2 268.529C83.6 273.329 84.55 281.829 84.05 287.079C84.1 287.129 84.15 287.129 84.15 287.179C96.75 300.829 139.45 331.979 163.75 348.779C169 337.329 176 323.229 183.1 309.429L173.5 304.679C173.5 304.679 202.05 244.779 224.65 226.129C231 220.079 240.15 215.579 251.85 212.729C252.3 210.579 252.65 208.179 252.9 205.629C253.25 202.429 253.45 199.029 253.5 195.529C225.182 195.207 229.176 169.019 233.499 140.667C233.87 138.232 234.244 135.781 234.6 133.329C235 130.479 235.55 127.879 236.15 125.329C236.1 125.429 236.05 125.479 236 125.579L233.7 124.529C234.75 122.279 236.15 120.829 237.6 119.829C238.15 118.129 238.7 116.529 239.3 114.979C239.4 111.629 239.65 107.979 240.25 103.779C236.2 102.679 235.05 100.229 238.95 95.7294C244.55 89.2294 265.25 85.0794 283.3 84.7794C296.2 84.5294 307.7 86.1794 311.4 90.2794C312.2 87.6794 310.95 84.3794 310.35 83.3294L312.55 82.1294C312.553 82.1346 312.557 82.1429 312.563 82.1542C312.776 82.5708 315.066 87.0385 313.8 91.0794C313.75 91.1794 313.65 91.2794 313.6 91.4294C317.5 92.2794 318.85 99.3294 319.1 107.679C319.4 116.779 318.3 127.379 317.65 132.829C319.8 135.179 320.85 138.829 319.7 143.229C319.15 145.379 315.15 155.129 306.85 157.029C305.7 174.279 304.7 196.779 304.8 210.129C320.95 211.979 331.75 216.479 339.15 223.379C339.2 223.429 339.25 223.429 339.3 223.479C360.35 237.579 396.35 301.629 396.35 301.629L384.05 305.829C395.15 333.779 404.9 361.929 407.8 371.379ZM385.55 494.679C382.75 495.429 379.95 496.879 377.7 499.429C376.4 500.929 374.7 503.729 373.2 506.679C372.85 496.579 372.5 487.979 372.15 482.679C373.1 482.579 373.65 482.579 373.65 482.579C373.65 481.379 373.65 480.179 373.6 478.879C373.35 454.529 370.7 412.179 367.2 369.979C368.45 372.579 369.65 374.979 370.8 377.129C370.85 377.879 370.85 378.629 371 379.429C372.85 389.529 382.1 445.429 384.8 479.129C385.3 485.179 385.55 490.479 385.55 494.679Z" clip-rule="evenodd" fill="#D1CDD3" fill-opacity="1.000000" fill-rule="evenodd"/>
	</g>
	<path id="Fill 11" d="M280.1 275.57L247.51 254.3C247.51 254.3 215.11 313.91 199.14 348.79C174.85 331.98 132.15 300.84 119.55 287.16C119.51 287.13 119.48 287.1 119.44 287.07C119.94 281.81 118.99 273.34 117.6 268.53C117.57 268.41 117.57 268.31 117.52 268.17C117.45 267.95 117.36 267.76 117.28 267.55C117.18 267.27 117.09 266.92 116.99 266.68C116.73 266.03 116.52 265.56 116.34 265.16C112.99 257.8 107.68 254.86 104.55 245.04C102.37 238.19 96.08 243.94 96.7 248.88C96.7 248.88 97.64 252.09 98.69 255.18C94.54 253.2 90.95 252 88.53 252.82C85.6 253.8 82.32 268.67 83.73 273.99C85.11 279.22 99.48 296.13 104.86 299.04C105.25 299.25 105.66 299.36 106.08 299.43C114.75 311.54 172.1 379.65 195.16 391.41C209.44 398.69 220.16 392.42 223.75 383.14C234.65 365.44 267.63 307.85 280.1 275.57Z" fill="#FFAD69" fill-opacity="1.000000" fill-rule="evenodd"/>
	<path id="Fill 13" d="M284.54 238.94C289.48 263.79 269.62 334.51 269.62 334.51L208.87 304.69C208.87 304.69 271.51 173.39 284.54 238.94Z" fill="#EA3939" fill-opacity="1.000000" fill-rule="evenodd"/>
	<path id="Fill 15" d="M410.2 565.52C410.2 566.32 410.2 567.12 410.1 567.92C398.65 570.42 386.45 572.07 373.75 572.77C327.05 575.62 273.35 566.87 221.6 549.37C223.4 522.67 226.2 494.82 230.5 476.02L373.6 478.87L384.8 479.12L406.1 479.52L407.35 479.57C408.35 490.97 409.55 537.12 410.2 565.52Z" fill="#232323" fill-opacity="1.000000" fill-rule="evenodd"/>
	<path id="Fill 17" d="M328.46 209.29C367.73 210.59 381.01 223.84 387.78 246.77C395.46 272.8 409 430.02 409 482.55C409 482.55 291.48 490.88 226.38 480.21C246.79 411.26 249 287.27 249.41 250.34C249.71 222.62 278.68 207.65 328.46 209.29Z" fill="#FF4E4A" fill-opacity="1.000000" fill-rule="evenodd"/>
	<path id="Fill 19" d="M293.87 145C290 142.09 269.82 144.73 275.63 103.65C277.75 88.66 291.83 98.66 301.79 100.66C311.76 102.66 305.42 145.74 305.42 145.74L293.87 145Z" fill="#232323" fill-opacity="1.000000" fill-rule="evenodd"/>
	<path id="Fill 21" d="M344.11 135.16C342.44 146.05 339.09 204.97 340.48 218.65C341.88 232.34 275.7 236.25 284.35 221.17C293.01 206.09 286.87 156.1 286.87 156.1L344.11 135.16Z" fill="#FFAD69" fill-opacity="1.000000" fill-rule="evenodd"/>
	<path id="Fill 23" d="M339.53 136.83L286.88 156.11C286.88 156.11 290.43 185.22 288.29 205.72C328.44 202.61 338.74 151.9 339.42 142.14C339.53 140.3 339.58 138.52 339.53 136.83Z" fill="#D88344" fill-opacity="1.000000" fill-rule="evenodd"/>
	<path id="Fill 25" d="M269.97 133.31C265.09 166.94 256.8 200.48 297.57 194.96C338.35 189.44 344.68 137.16 344.56 127.3C343.93 74.69 279.56 67.17 269.97 133.31Z" fill="#FFAD69" fill-opacity="1.000000" fill-rule="evenodd"/>
	<path id="Fill 27" d="M348.96 91.41C349.01 91.28 349.12 91.19 349.17 91.06C350.49 86.93 348.05 82.34 347.95 82.14L345.75 83.33C345.77 83.37 347.77 87.17 346.79 90.27C337.86 80.4 283.91 84.61 274.32 95.75C262.13 109.91 299.62 103.53 320.74 99.95C323.7 112.32 337.11 132.81 340.98 135.72L352.53 136.46C352.53 136.46 358.84 93.58 348.96 91.41Z" fill="#232323" fill-opacity="1.000000" fill-rule="evenodd"/>
	<path id="Fill 29" d="M438.98 499.41C441.57 485.02 450.1 396.62 443.2 371.49C443.19 371.45 443.19 371.41 443.18 371.37C438.36 355.64 414.43 287.83 397.1 255.73L359.75 266.69C359.75 266.69 391.01 348.26 406.16 377.11C406.21 377.88 406.21 378.64 406.36 379.44C408.59 391.34 421.05 466.85 420.91 494.66C418.15 495.43 415.34 496.88 413.1 499.43C410.26 502.68 405.3 512.01 405.65 516.15C406.64 527.97 413.21 542.04 417.7 544.37C420.45 545.79 433.41 537.8 436.26 533.1C439.06 528.47 441.22 506.38 439.57 500.49C439.46 500.09 439.19 499.76 438.98 499.41Z" fill="#FFAD69" fill-opacity="1.000000" fill-rule="evenodd"/>
	<path id="Fill 31" d="M374.68 223.48C395.75 237.56 431.71 301.61 431.71 301.61L367.67 323.48C367.67 323.48 319.11 186.34 374.68 223.48Z" fill="#FF4E4A" fill-opacity="1.000000" fill-rule="evenodd"/>
	<path id="Fill 33" d="M304.3 131.64C304.43 133.28 303.55 134.69 302.32 134.79C301.09 134.88 299.99 133.64 299.86 132C299.72 130.36 300.61 128.95 301.84 128.86C303.07 128.76 304.17 130 304.3 131.64Z" fill="#232323" fill-opacity="1.000000" fill-rule="evenodd"/>
	<path id="Fill 35" d="M278.33 132.33C278.46 133.97 277.58 135.38 276.35 135.48C275.12 135.57 274.02 134.33 273.89 132.69C273.75 131.05 274.64 129.64 275.87 129.55C277.1 129.45 278.2 130.69 278.33 132.33Z" fill="#232323" fill-opacity="1.000000" fill-rule="evenodd"/>
	<path id="Fill 37" d="M310.69 122.44C307.21 117.11 301.23 118.38 301.17 118.39L300.62 115.95C300.94 115.88 308.37 114.31 312.78 121.08L310.69 122.44Z" fill="#232323" fill-opacity="1.000000" fill-rule="evenodd"/>
	<path id="Fill 39" d="M271.38 125.56L269.1 124.52C272.48 117.16 280.05 117.64 280.37 117.65L280.2 120.15C279.96 120.13 274.01 119.82 271.38 125.56Z" fill="#232323" fill-opacity="1.000000" fill-rule="evenodd"/>
	<path id="Fill 41" d="M295.96 162.61C294.29 162.61 293.25 162.43 293.21 162.42L293.66 159.96C294.12 160.05 305.1 161.91 311.21 151.73L313.35 153.02C308.31 161.41 300.18 162.61 295.96 162.61Z" fill="#232323" fill-opacity="1.000000" fill-rule="evenodd"/>
	<path id="Fill 43" d="M276.73 151.22L283.09 129.54L285.49 130.24L280.08 148.67L288.84 148.56L288.87 151.06L276.73 151.22Z" fill="#D88344" fill-opacity="1.000000" fill-rule="evenodd"/>
	<path id="Fill 45" d="M114.76 284.68L111.49 286.14L82.14 220.28L85.4 218.82L114.76 284.68Z" fill="#232323" fill-opacity="1.000000" fill-rule="evenodd"/>
	<path id="Fill 47" d="M334.22 139.44C330.54 147.74 325.93 155.77 337.5 157.26C349.06 158.75 354.44 145.77 355.09 143.23C358.59 129.66 341.46 123.12 334.22 139.44Z" fill="#FFAD69" fill-opacity="1.000000" fill-rule="evenodd"/>
	<path id="Fill 49" d="M161.22 0L43.57 0C39.47 0 36.14 3.32 36.14 7.42L36.14 49.31C36.14 53.41 39.47 56.74 43.57 56.74L50.73 56.74L58.81 67.53C60.61 69.93 64.37 69.22 65.17 66.33L67.79 56.74L161.22 56.74C165.32 56.74 168.64 53.41 168.64 49.31L168.64 7.42C168.64 3.32 165.32 0 161.22 0Z" fill="#4D8DFF" fill-opacity="1.000000" fill-rule="evenodd"/>
	<mask id="mask0_504" mask-type="alpha" maskUnits="userSpaceOnUse" x="0.000000" y="0.000000" width="519.784912" height="573.309998">
		<path id="Clip 52" d="M0 573.31L519.78 573.31L519.78 0L0 0L0 573.31Z" fill="#000000" fill-opacity="1.000000" fill-rule="evenodd"/>
	</mask>
	<g mask="url(#mask0_504)">
		<path id="Fill 51" d="M47.7 13.49L151.73 13.49L151.73 10.99L47.7 10.99L47.7 13.49Z" fill="#FFFFFF" fill-opacity="1.000000" fill-rule="evenodd"/>
	</g>
	<g mask="url(#mask0_504)">
		<path id="Fill 53" d="M47.7 25.32L116.39 25.32L116.39 22.82L47.7 22.82L47.7 25.32Z" fill="#FFFFFF" fill-opacity="1.000000" fill-rule="evenodd"/>
	</g>
	<g mask="url(#mask0_504)">
		<path id="Fill 54" d="M47.7 37.15L133.56 37.15L133.56 34.65L47.7 34.65L47.7 37.15Z" fill="#FFFFFF" fill-opacity="1.000000" fill-rule="evenodd"/>
	</g>
	<g mask="url(#mask0_504)">
		<path id="Fill 55" d="M133.56 140.19L43.57 140.19C39.47 140.19 36.15 143.51 36.15 147.61L36.15 189.5C36.15 193.6 39.47 196.93 43.57 196.93L50.73 196.93L58.81 207.72C60.61 210.12 64.38 209.41 65.17 206.52L67.79 196.93L133.56 196.93C137.66 196.93 140.98 193.6 140.98 189.5L140.98 147.61C140.98 143.51 137.66 140.19 133.56 140.19Z" fill="#FF4E4A" fill-opacity="1.000000" fill-rule="evenodd"/>
	</g>
	<g mask="url(#mask0_504)">
		<path id="Fill 56" d="M47.7 153.68L95.59 153.68L95.59 151.18L47.7 151.18L47.7 153.68Z" fill="#FFFFFF" fill-opacity="1.000000" fill-rule="evenodd"/>
	</g>
	<g mask="url(#mask0_504)">
		<path id="Fill 57" d="M105.5 153.68L122.01 153.68L122.01 151.18L105.5 151.18L105.5 153.68Z" fill="#FFFFFF" fill-opacity="1.000000" fill-rule="evenodd"/>
	</g>
	<g mask="url(#mask0_504)">
		<path id="Fill 58" d="M47.7 165.51L81.72 165.51L81.72 163.01L47.7 163.01L47.7 165.51Z" fill="#FFFFFF" fill-opacity="1.000000" fill-rule="evenodd"/>
	</g>
	<g mask="url(#mask0_504)">
		<path id="Fill 59" d="M47.7 177.34L113.42 177.34L113.42 174.84L47.7 174.84L47.7 177.34Z" fill="#FFFFFF" fill-opacity="1.000000" fill-rule="evenodd"/>
	</g>
	<g mask="url(#mask0_504)">
		<path id="Fill 60" d="M103.42 70.05L212.99 70.05C217.09 70.05 220.41 73.38 220.41 77.47L220.41 119.37C220.41 123.47 217.09 126.79 212.99 126.79L205.82 126.79L197.74 137.59C195.95 139.99 192.18 139.27 191.39 136.38L188.77 126.79L103.42 126.79C99.32 126.79 96 123.47 96 119.37L96 77.47C96 73.38 99.32 70.05 103.42 70.05Z" fill="#FFC84D" fill-opacity="1.000000" fill-rule="evenodd"/>
	</g>
	<g mask="url(#mask0_504)">
		<path id="Fill 61" d="M164.94 83.55L208.86 83.55L208.86 81.05L164.94 81.05L164.94 83.55Z" fill="#FFFFFF" fill-opacity="1.000000" fill-rule="evenodd"/>
	</g>
	<g mask="url(#mask0_504)">
		<path id="Fill 62" d="M113.42 95.38L208.86 95.38L208.86 92.88L113.42 92.88L113.42 95.38Z" fill="#FFFFFF" fill-opacity="1.000000" fill-rule="evenodd"/>
	</g>
	<g mask="url(#mask0_504)">
		<path id="Fill 63" d="M161.97 107.21L208.86 107.21L208.86 104.71L161.97 104.71L161.97 107.21Z" fill="#FFFFFF" fill-opacity="1.000000" fill-rule="evenodd"/>
	</g>
	<g mask="url(#mask0_504)">
		<path id="Fill 64" d="M132.57 107.21L154.03 107.21L154.03 104.71L132.57 104.71L132.57 107.21Z" fill="#FFFFFF" fill-opacity="1.000000" fill-rule="evenodd"/>
	</g>
	<g mask="url(#mask0_504)">
		<path id="Fill 65" d="M256.269 311.491C256.269 331.991 272.944 348.666 293.439 348.666C313.939 348.666 330.614 331.991 330.614 311.491C330.614 290.996 313.939 274.321 293.439 274.321C272.944 274.321 256.269 290.996 256.269 311.491ZM258.769 311.491C258.769 292.376 274.324 276.821 293.439 276.821C312.559 276.821 328.114 292.376 328.114 311.491C328.114 330.611 312.559 346.166 293.439 346.166C274.324 346.166 258.769 330.611 258.769 311.491Z" clip-rule="evenodd" fill="#FFFFFF" fill-opacity="1.000000" fill-rule="evenodd"/>
	</g>
</svg>
