<svg width="535.000000" height="521.000000" viewBox="0 0 535 521" fill="none" xmlns="http://www.w3.org/2000/svg" xmlns:xlink="http://www.w3.org/1999/xlink">
	<desc>
			Created with Pixso.
	</desc>
	<defs/>
	<mask id="mask0_275" mask-type="alpha" maskUnits="userSpaceOnUse" x="0.000641" y="53.947998" width="532.614380" height="466.087006">
		<path id="Clip 2" d="M0 53.94L532.61 53.94L532.61 520.03L0 520.03L0 53.94Z" fill="#000000" fill-opacity="1.000000" fill-rule="evenodd"/>
	</mask>
	<g mask="url(#mask0_275)">
		<path id="Fill 1" d="M499.71 308.19C498.06 310.84 496.41 313.45 494.66 316.04C479.31 339.1 460.26 361.24 439.16 381.6C438.21 382.54 437.21 383.5 436.21 384.44C433.21 387.29 430.11 390.15 427.01 392.89C421.66 397.8 416.16 402.54 410.56 407.09C407.61 409.59 404.56 412.05 401.56 414.44C366.66 442.05 329.37 466.2 292.61 484.39C281.21 490.1 269.81 495.19 258.56 499.59C199.86 522.85 145.21 528.3 107.52 505.24C95.51 497.94 85.26 487.74 77.11 474.3C75.81 472.14 74.51 469.99 73.21 467.85C61.16 447.69 49.66 427.45 39.56 407.09C37.16 402.34 34.91 397.65 32.71 392.89C-3.94 314.14 -17.89 234.44 34.06 156.04C54.26 125.55 87.41 101.8 127.21 84.99C138.57 80.15 150.41 75.94 162.71 72.29C168.77 70.39 174.86 68.74 181.11 67.25C188.96 65.25 196.96 63.5 205.06 61.99C211.27 60.8 217.46 59.75 223.71 58.84C226.31 58.5 228.91 58.15 231.51 57.79C249.96 55.45 268.66 54.14 287.26 54C289.71 53.94 292.16 53.94 294.56 53.94C305.81 54 316.96 54.44 327.96 55.35C330.91 55.55 333.86 55.8 336.81 56.14C392.96 61.6 444.46 77.69 479.46 104.4C487.11 110.25 493.96 116.54 499.91 123.4C501.02 124.65 502.06 125.9 503.06 127.19C503.41 127.59 503.71 127.99 504.06 128.4C511.31 137.49 517.11 146.9 521.46 156.5C543.71 204.95 530.71 258.39 499.71 308.19Z" fill="#FDE6D6" fill-opacity="1.000000" fill-rule="evenodd"/>
	</g>
	<path id="Fill 4" d="M386.54 454.63C373.05 468.77 363.44 488.99 377.95 500.97C394.16 514.35 427.58 511.24 444.86 486.01C455.91 469.89 461.75 444.4 449.52 430.11C439.04 417.87 403.09 437.28 386.54 454.63Z" fill="#E8E5EA" fill-opacity="1.000000" fill-rule="evenodd"/>
	<path id="Fill 6" d="M180.316 451.201C183.616 451.201 187.016 451.096 190.366 450.951C190.666 450.951 190.966 451.251 191.016 451.551C191.016 451.896 190.766 452.201 190.416 452.201C187.016 452.346 183.666 452.451 180.316 452.451C179.966 452.451 179.716 452.146 179.716 451.851C179.716 451.496 179.966 451.201 180.316 451.201ZM160.316 450.551C163.516 450.751 166.916 450.951 170.316 451.051C170.666 451.051 170.916 451.351 170.916 451.696C170.916 452.051 170.616 452.301 170.266 452.301C166.866 452.201 163.466 452.001 160.216 451.801C159.866 451.751 159.616 451.451 159.616 451.096C159.666 450.751 159.866 450.501 160.316 450.551ZM200.366 450.401C203.666 450.151 207.016 449.846 210.366 449.501C210.716 449.446 211.016 449.701 211.066 450.046C211.066 450.401 210.816 450.696 210.466 450.751C207.116 451.096 203.766 451.401 200.466 451.651L200.416 451.651C200.066 451.651 199.816 451.401 199.766 451.051C199.766 450.696 200.016 450.401 200.366 450.401ZM140.416 448.146C143.666 448.701 147.016 449.196 150.316 449.551C150.636 449.593 150.872 449.851 150.872 450.159C150.872 450.188 150.87 450.217 150.866 450.246C150.816 450.601 150.566 450.801 150.266 450.801L150.166 450.801C146.816 450.401 143.466 449.951 140.216 449.351C139.896 449.306 139.66 449.047 139.66 448.739C139.66 448.71 139.662 448.681 139.666 448.651C139.766 448.301 140.066 448.101 140.416 448.146ZM220.316 448.301C223.566 447.851 226.866 447.346 230.266 446.851C230.616 446.801 230.916 447.001 230.966 447.346C230.97 447.377 230.972 447.407 230.972 447.437C230.972 447.751 230.74 448.006 230.466 448.051C227.066 448.596 223.716 449.101 220.466 449.551L220.416 449.551C220.116 449.551 219.816 449.301 219.766 448.996C219.762 448.967 219.76 448.938 219.76 448.909C219.76 448.601 219.996 448.343 220.316 448.301ZM120.916 443.651C124.066 444.551 127.316 445.401 130.616 446.151C130.885 446.241 131.074 446.532 131.074 446.804C131.074 446.835 131.071 446.866 131.066 446.896C131.016 447.051 130.966 447.201 130.816 447.251L130.766 447.301C130.666 447.346 130.566 447.401 130.466 447.401L130.316 447.401C130.166 447.346 130.016 447.346 129.866 447.301C126.716 446.551 123.616 445.696 120.566 444.846C120.277 444.768 120.09 444.512 120.09 444.231C120.09 444.172 120.099 444.112 120.116 444.051C120.216 443.701 120.566 443.551 120.916 443.651ZM240.216 445.101C243.366 444.501 246.716 443.796 249.966 443.101C250.316 443.001 250.616 443.251 250.716 443.551C250.721 443.587 250.724 443.623 250.724 443.658C250.724 443.97 250.53 444.257 250.216 444.301C249.216 444.551 248.216 444.751 247.216 444.951C244.916 445.446 242.616 445.896 240.366 446.296L240.266 446.296C239.966 446.296 239.666 446.096 239.616 445.801C239.611 445.765 239.608 445.73 239.608 445.695C239.608 445.389 239.802 445.146 240.116 445.101L240.216 445.101ZM259.766 440.846C263.066 440.046 266.316 439.196 269.466 438.346C269.816 438.301 270.166 438.501 270.266 438.796C270.271 438.833 270.274 438.87 270.274 438.906C270.274 439.221 270.085 439.511 269.816 439.596C266.666 440.401 263.366 441.251 260.066 442.051C260.016 442.096 259.966 442.096 259.916 442.096C259.616 442.096 259.366 441.896 259.316 441.601C259.299 441.54 259.29 441.481 259.29 441.424C259.29 441.153 259.477 440.933 259.766 440.846ZM108.166 439.196C109.266 439.646 110.316 440.046 111.416 440.446C111.695 440.57 111.846 440.817 111.846 441.064C111.846 441.127 111.836 441.19 111.816 441.251C111.716 441.496 111.466 441.651 111.216 441.651L110.966 441.651C110.016 441.296 109.066 440.951 108.166 440.551C105.966 439.646 103.766 438.751 101.666 437.746C101.446 437.64 101.307 437.397 101.307 437.155C101.307 437.067 101.326 436.978 101.366 436.896C101.516 436.601 101.916 436.451 102.216 436.601C104.166 437.501 106.116 438.396 108.166 439.196ZM286.716 433.396C287.416 433.196 288.066 432.946 288.716 432.746C289.066 432.651 289.416 432.851 289.516 433.146C289.534 433.209 289.542 433.272 289.542 433.333C289.542 433.618 289.363 433.869 289.116 433.951C288.416 434.196 287.716 434.396 286.966 434.646C284.566 435.401 282.016 436.151 279.516 436.896L279.316 436.896C279.066 436.896 278.816 436.751 278.716 436.451C278.699 436.39 278.69 436.33 278.69 436.272C278.69 435.999 278.877 435.783 279.166 435.696C281.716 434.951 284.266 434.151 286.716 433.396ZM92.966 431.751L93.316 432.001C93.5219 432.101 93.6571 432.321 93.6571 432.547C93.6571 432.651 93.6288 432.756 93.566 432.851C93.466 433.051 93.266 433.146 93.016 433.146C92.916 433.146 92.816 433.146 92.716 433.101L92.316 432.851C89.516 431.201 86.766 429.446 84.166 427.701C84.0078 427.575 83.9096 427.366 83.9096 427.168C83.9096 427.053 83.9426 426.941 84.016 426.851C84.216 426.551 84.616 426.451 84.866 426.651C87.466 428.451 90.166 430.151 92.966 431.751ZM298.266 429.646C301.366 428.551 304.566 427.451 307.716 426.296C307.966 426.151 308.366 426.296 308.516 426.651C308.536 426.723 308.546 426.794 308.546 426.863C308.546 427.132 308.395 427.368 308.116 427.451C304.966 428.596 301.816 429.751 298.666 430.801C298.566 430.846 298.516 430.846 298.466 430.846C298.166 430.846 297.966 430.696 297.866 430.401C297.846 430.34 297.836 430.277 297.836 430.214C297.836 429.969 297.987 429.73 298.266 429.646ZM326.416 418.951C326.716 418.796 327.066 418.951 327.216 419.301C327.255 419.379 327.274 419.46 327.274 419.54C327.274 419.768 327.125 419.991 326.866 420.101C323.866 421.351 320.716 422.651 317.566 423.901C317.466 423.901 317.366 423.951 317.316 423.951C317.066 423.951 316.816 423.796 316.716 423.551C316.695 423.477 316.685 423.404 316.685 423.332C316.685 423.061 316.829 422.82 317.066 422.701C320.216 421.496 323.366 420.201 326.416 418.951ZM73.516 417.946C74.566 418.851 75.716 419.801 76.866 420.696C77.0117 420.845 77.0894 421.043 77.0894 421.231C77.0894 421.367 77.0495 421.497 76.966 421.601C76.816 421.751 76.666 421.851 76.466 421.851C76.316 421.851 76.166 421.801 76.066 421.696C75.166 421.001 74.316 420.246 73.466 419.501C71.716 418.051 70.066 416.551 68.466 415.046C68.341 414.924 68.2785 414.761 68.2785 414.599C68.2785 414.436 68.341 414.274 68.466 414.151C68.716 413.901 69.116 413.901 69.366 414.151C70.716 415.401 72.066 416.696 73.516 417.946ZM344.766 410.801C345.066 410.646 345.466 410.751 345.616 411.096C345.656 411.178 345.675 411.263 345.675 411.347C345.675 411.574 345.536 411.79 345.316 411.896C342.416 413.301 339.416 414.646 336.116 416.096C336.066 416.151 335.966 416.201 335.866 416.201C335.666 416.201 335.416 416.051 335.316 415.801C335.276 415.721 335.257 415.634 335.257 415.546C335.257 415.309 335.396 415.075 335.616 415.001C338.916 413.551 341.866 412.146 344.766 410.801ZM56.266 399.101C58.166 401.751 60.266 404.396 62.466 406.896C62.516 406.946 62.566 407.001 62.566 407.096C62.5994 407.18 62.616 407.264 62.616 407.346C62.616 407.51 62.5493 407.668 62.416 407.801C62.266 407.901 62.116 407.946 61.966 407.946C61.816 407.946 61.616 407.851 61.516 407.746C61.316 407.546 61.166 407.301 60.966 407.096C58.966 404.751 57.016 402.301 55.266 399.801C55.1825 399.697 55.1426 399.567 55.1426 399.435C55.1426 399.252 55.2204 399.068 55.366 398.951C55.666 398.751 56.066 398.796 56.266 399.101ZM362.716 401.801C363.016 401.651 363.416 401.751 363.566 402.051C363.612 402.143 363.635 402.244 363.635 402.345C363.635 402.571 363.523 402.794 363.316 402.901C360.666 404.301 357.966 405.751 355.166 407.096C354.916 407.251 354.616 407.346 354.366 407.501C354.266 407.546 354.166 407.601 354.066 407.601C353.866 407.601 353.616 407.451 353.516 407.251C353.516 407.235 353.511 407.218 353.505 407.201C353.5 407.183 353.494 407.165 353.494 407.148C353.494 407.13 353.499 407.113 353.516 407.096C353.491 407.035 353.479 406.971 353.479 406.906C353.479 406.711 353.591 406.514 353.816 406.401C356.816 404.901 359.866 403.346 362.716 401.801ZM380.216 391.946C380.516 391.801 380.916 391.896 381.066 392.201C381.136 392.318 381.173 392.434 381.173 392.545C381.173 392.673 381.123 392.794 381.016 392.901C380.966 392.946 380.916 393.001 380.866 393.051C378.066 394.701 375.116 396.401 372.166 398.101C372.066 398.146 371.966 398.146 371.866 398.146C371.616 398.146 371.416 398.051 371.316 397.851C371.245 397.743 371.212 397.623 371.212 397.507C371.212 397.295 371.322 397.095 371.516 397.001C373.966 395.646 376.316 394.301 378.616 392.901C379.166 392.601 379.666 392.251 380.216 391.946ZM46.266 381.851C47.616 384.846 49.166 387.851 50.866 390.696C50.9124 390.791 50.9349 390.894 50.9349 390.997C50.9349 391.225 50.8232 391.448 50.616 391.551C50.516 391.601 50.416 391.651 50.316 391.651C50.066 391.651 49.866 391.551 49.766 391.351C48.066 388.451 46.516 385.401 45.116 382.401C45.0758 382.308 45.0572 382.214 45.0572 382.123C45.0572 381.876 45.1964 381.658 45.416 381.551C45.716 381.401 46.116 381.551 46.266 381.851ZM398.066 381.451C398.066 381.496 398.116 381.551 398.116 381.601C398.143 381.668 398.155 381.739 398.155 381.809C398.155 382 398.062 382.188 397.916 382.301C396.816 383.051 395.716 383.751 394.616 384.446C392.916 385.601 391.216 386.696 389.466 387.801C389.366 387.851 389.216 387.901 389.116 387.901C388.916 387.901 388.716 387.801 388.616 387.601C388.545 387.495 388.512 387.376 388.512 387.259C388.512 387.047 388.622 386.845 388.816 386.751C389.966 386.001 391.166 385.246 392.316 384.446C393.766 383.551 395.266 382.546 396.666 381.601C396.866 381.496 397.016 381.351 397.216 381.251C397.466 381.096 397.866 381.151 398.066 381.451ZM413.566 369.646C413.816 369.446 414.216 369.501 414.416 369.801C414.524 369.907 414.576 370.042 414.576 370.177C414.576 370.355 414.486 370.533 414.316 370.646C411.666 372.651 408.916 374.646 406.216 376.601C406.066 376.696 405.966 376.696 405.816 376.696C405.616 376.696 405.466 376.601 405.316 376.451C405.236 376.331 405.196 376.203 405.196 376.08C405.196 375.895 405.286 375.721 405.466 375.601C408.166 373.651 410.916 371.651 413.566 369.646ZM38.766 362.601C39.116 362.501 39.466 362.701 39.566 363.051C40.416 366.296 41.366 369.501 42.466 372.601C42.5011 372.682 42.517 372.763 42.517 372.842C42.517 373.098 42.3459 373.324 42.116 373.396C42.016 373.451 41.966 373.451 41.916 373.451C41.616 373.451 41.416 373.301 41.316 373.001C40.216 369.901 39.216 366.651 38.316 363.346C38.3109 363.316 38.3083 363.285 38.3083 363.254C38.3083 362.982 38.497 362.691 38.766 362.601ZM429.166 357.051C429.416 356.851 429.816 356.851 430.066 357.096C430.156 357.234 430.205 357.379 430.205 357.52C430.205 357.693 430.131 357.861 429.966 358.001C427.566 360.101 424.966 362.301 422.266 364.446C422.116 364.551 422.016 364.596 421.866 364.596C421.666 364.596 421.516 364.501 421.366 364.351C421.283 364.247 421.243 364.117 421.243 363.985C421.243 363.802 421.32 363.618 421.466 363.501C424.166 361.296 426.716 359.151 429.166 357.051ZM35.366 342.801C35.716 342.746 36.016 343.051 36.016 343.346C36.366 346.751 36.866 350.046 37.416 353.301C37.4211 353.337 37.4236 353.372 37.4236 353.407C37.4236 353.71 37.2303 353.956 36.916 353.996L36.816 353.996C36.516 353.996 36.216 353.796 36.166 353.501C35.616 350.246 35.166 346.896 34.816 343.501C34.8117 343.471 34.8097 343.441 34.8097 343.412C34.8097 343.098 35.0461 342.847 35.366 342.801ZM443.866 343.451C444.116 343.196 444.516 343.196 444.766 343.451C444.891 343.551 444.953 343.701 444.953 343.858C444.953 344.014 444.891 344.176 444.766 344.301C442.416 346.651 439.966 348.996 437.516 351.296C437.366 351.401 437.216 351.451 437.066 351.451C436.916 351.451 436.716 351.401 436.616 351.251C436.503 351.139 436.452 350.996 436.452 350.854C436.452 350.682 436.529 350.511 436.666 350.401C439.116 348.101 441.566 345.751 443.866 343.451ZM457.416 328.651C457.666 328.396 458.066 328.346 458.316 328.596C458.462 328.713 458.539 328.897 458.539 329.08C458.539 329.212 458.5 329.342 458.416 329.446C456.316 331.946 454.066 334.501 451.716 337.051C451.616 337.146 451.466 337.251 451.266 337.251C451.116 337.251 450.966 337.201 450.866 337.096C450.729 336.962 450.652 336.78 450.652 336.603C450.652 336.457 450.703 336.314 450.816 336.201C453.116 333.701 455.366 331.151 457.416 328.651ZM35.316 323.396C35.266 324.901 35.266 326.401 35.266 327.851C35.266 329.701 35.316 331.551 35.366 333.396C35.366 333.751 35.116 333.996 34.766 334.051L34.716 334.051C34.416 334.051 34.116 333.751 34.116 333.451C34.066 331.601 34.016 329.751 34.016 327.851C34.016 326.351 34.016 324.846 34.066 323.346C34.066 323.001 34.366 322.746 34.716 322.746C35.066 322.746 35.316 323.051 35.316 323.396ZM469.566 312.746C469.766 312.451 470.116 312.401 470.416 312.601C470.596 312.688 470.686 312.867 470.686 313.062C470.686 313.192 470.646 313.329 470.566 313.451C468.716 316.201 466.716 318.951 464.716 321.601C464.566 321.801 464.366 321.851 464.216 321.851C464.066 321.851 463.916 321.801 463.816 321.751C463.667 321.632 463.571 321.442 463.571 321.243C463.571 321.108 463.615 320.97 463.716 320.846C465.716 318.196 467.716 315.446 469.566 312.746ZM35.716 303.251C35.766 302.901 36.016 302.651 36.416 302.746C36.736 302.746 36.9724 303.043 36.9724 303.362C36.9724 303.391 36.9703 303.421 36.966 303.451C36.516 306.751 36.166 310.101 35.866 313.396C35.866 313.701 35.566 313.951 35.266 313.951L35.216 313.951C34.866 313.951 34.616 313.651 34.616 313.301C34.916 310.001 35.266 306.651 35.716 303.251ZM479.816 295.601C480.016 295.301 480.366 295.201 480.666 295.301C480.886 295.408 481.025 295.65 481.025 295.893C481.025 295.981 481.006 296.07 480.966 296.151C479.466 299.051 477.816 302.001 476.016 304.951C475.916 305.151 475.716 305.246 475.466 305.246C475.366 305.246 475.266 305.246 475.166 305.201C474.972 305.072 474.862 304.858 474.862 304.642C474.862 304.524 474.895 304.406 474.966 304.301C476.716 301.401 478.366 298.451 479.816 295.601ZM39.266 283.451C39.366 283.101 39.666 282.901 40.016 282.946C40.3303 283.041 40.5236 283.288 40.5236 283.595C40.5236 283.63 40.5211 283.665 40.516 283.701C39.766 287.001 39.116 290.301 38.516 293.551C38.466 293.851 38.216 294.051 37.916 294.051L37.766 294.051C37.4919 293.96 37.2596 293.702 37.2596 293.391C37.2596 293.362 37.2617 293.332 37.266 293.301C37.866 290.046 38.566 286.751 39.266 283.451ZM487.766 277.251C487.866 276.896 488.216 276.751 488.566 276.851C488.796 276.966 488.967 277.196 488.967 277.434C488.967 277.507 488.951 277.58 488.916 277.651C487.866 280.751 486.616 283.901 485.266 287.051C485.166 287.301 484.916 287.451 484.716 287.451C484.616 287.451 484.516 287.401 484.466 287.401C484.208 287.291 484.058 287.068 484.058 286.82C484.058 286.733 484.077 286.642 484.116 286.551C485.466 283.451 486.716 280.301 487.766 277.251ZM44.466 263.996C44.566 263.651 44.916 263.451 45.216 263.551C45.505 263.634 45.6918 263.884 45.6918 264.168C45.6918 264.228 45.6834 264.29 45.666 264.351C44.666 267.546 43.716 270.801 42.916 273.996C42.816 274.251 42.566 274.446 42.316 274.446C42.216 274.446 42.166 274.446 42.116 274.396C41.847 274.356 41.6584 274.066 41.6584 273.758C41.6584 273.723 41.6609 273.687 41.666 273.651C42.516 270.446 43.466 267.201 44.466 263.996ZM493.116 257.946C493.216 257.651 493.516 257.401 493.866 257.501C494.18 257.542 494.374 257.832 494.374 258.144C494.374 258.18 494.371 258.216 494.366 258.251C493.616 261.451 492.766 264.751 491.866 268.001C491.816 268.301 491.566 268.501 491.266 268.501C491.216 268.501 491.166 268.451 491.116 268.451C490.81 268.36 490.657 268.084 490.657 267.816C490.657 267.777 490.66 267.739 490.666 267.701C491.566 264.396 492.416 261.151 493.116 257.946ZM50.966 244.901C51.066 244.596 51.416 244.446 51.766 244.551C52.0034 244.627 52.1469 244.893 52.1469 245.152C52.1469 245.22 52.1369 245.288 52.116 245.351C50.966 248.451 49.816 251.651 48.716 254.801C48.616 255.046 48.416 255.201 48.116 255.201L47.916 255.201C47.6862 255.083 47.515 254.852 47.515 254.614C47.515 254.541 47.5309 254.468 47.566 254.396C48.616 251.251 49.766 248.051 50.966 244.901ZM496.766 238.251C496.816 237.901 497.166 237.651 497.466 237.701C497.816 237.746 498.016 238.101 498.016 238.451C497.566 241.696 497.016 245.046 496.416 248.396C496.316 248.701 496.066 248.901 495.766 248.901L495.666 248.901C495.352 248.807 495.158 248.56 495.158 248.253C495.158 248.218 495.161 248.183 495.166 248.146C495.766 244.846 496.316 241.551 496.766 238.251ZM58.566 226.296C58.716 225.951 59.066 225.801 59.366 225.951C59.6245 226.059 59.7739 226.28 59.7739 226.53C59.7739 226.618 59.7552 226.71 59.716 226.801C58.366 229.846 57.016 232.946 55.766 236.001C55.666 236.251 55.466 236.401 55.216 236.401C55.116 236.401 55.066 236.401 54.966 236.351C54.7286 236.272 54.5852 236.002 54.5852 235.747C54.5852 235.679 54.5952 235.613 54.616 235.551C55.866 232.451 57.216 229.351 58.566 226.296ZM498.566 218.301C498.616 217.946 498.916 217.746 499.216 217.701C499.54 217.743 499.821 218.008 499.821 218.281C499.821 218.303 499.82 218.325 499.816 218.346C499.666 221.751 499.466 225.101 499.116 228.396C499.116 228.751 498.816 228.996 498.516 228.996L498.466 228.996C498.146 228.955 497.91 228.701 497.91 228.39C497.91 228.361 497.912 228.331 497.916 228.301C498.216 225.001 498.416 221.651 498.566 218.301ZM67.166 208.051C67.316 207.746 67.716 207.651 68.016 207.801C68.2356 207.908 68.3749 208.126 68.3749 208.373C68.3749 208.464 68.3562 208.558 68.316 208.651C66.816 211.601 65.316 214.646 63.866 217.651C63.766 217.901 63.566 218.001 63.316 218.001C63.216 218.001 63.166 218.001 63.066 217.946C62.8464 217.84 62.7072 217.624 62.7072 217.377C62.7072 217.286 62.7258 217.192 62.766 217.096C64.166 214.101 65.666 211.051 67.166 208.051ZM499.166 197.651C499.516 197.651 499.816 197.901 499.816 198.246C499.966 201.551 500.066 204.951 500.066 208.301C500.066 208.651 499.766 208.951 499.416 208.951C499.116 208.951 498.816 208.651 498.816 208.301C498.816 204.951 498.716 201.601 498.566 198.301C498.566 197.951 498.816 197.651 499.166 197.651ZM76.666 190.301C76.816 190.001 77.216 189.901 77.516 190.051C77.7231 190.19 77.835 190.399 77.835 190.614C77.835 190.711 77.8124 190.809 77.766 190.901C76.066 193.851 74.466 196.851 72.916 199.701C72.816 199.951 72.566 200.051 72.366 200.051C72.266 200.051 72.166 200.001 72.066 199.951C71.8589 199.848 71.7471 199.649 71.7471 199.437C71.7471 199.342 71.7696 199.244 71.816 199.151C73.366 196.251 74.966 193.246 76.666 190.301ZM497.216 177.651C497.566 177.551 497.866 177.801 497.916 178.151C498.416 181.501 498.816 184.851 499.116 188.201C499.12 188.231 499.122 188.261 499.122 188.29C499.122 188.601 498.886 188.851 498.566 188.851L498.516 188.851C498.166 188.851 497.916 188.651 497.866 188.301C497.566 185.001 497.166 181.651 496.716 178.346C496.711 178.311 496.708 178.276 496.708 178.242C496.708 177.943 496.902 177.696 497.216 177.651ZM86.916 173.001C87.116 172.701 87.516 172.601 87.766 172.801C87.9597 172.931 88.0701 173.12 88.0701 173.32C88.0701 173.43 88.0369 173.543 87.966 173.651C86.216 176.501 84.466 179.351 82.766 182.251C82.666 182.451 82.466 182.551 82.216 182.551C82.116 182.551 82.016 182.501 81.916 182.451C81.7223 182.322 81.6119 182.131 81.6119 181.93C81.6119 181.82 81.6451 181.708 81.716 181.601C83.416 178.701 85.166 175.846 86.916 173.001ZM496.166 167.851L496.216 167.851C496.216 167.951 496.266 168.101 496.266 168.201C496.271 168.237 496.274 168.272 496.274 168.307C496.274 168.611 496.08 168.862 495.766 168.951L495.666 168.951C495.366 168.951 495.116 168.751 495.066 168.451C495.016 168.246 494.966 168.001 494.916 167.801C494.316 164.751 493.666 161.701 492.916 158.651C492.901 158.598 492.894 158.544 492.894 158.492C492.894 158.201 493.112 157.944 493.366 157.901C493.716 157.801 494.066 158.001 494.116 158.346C494.866 161.551 495.616 164.701 496.166 167.851ZM98.166 155.801C98.366 155.501 98.766 155.451 99.016 155.651C99.2084 155.776 99.2979 155.988 99.2979 156.189C99.2979 156.302 99.2698 156.412 99.216 156.501L98.966 156.851C97.066 159.596 95.216 162.401 93.366 165.201C93.266 165.401 93.066 165.501 92.866 165.501C92.766 165.501 92.616 165.451 92.516 165.401C92.336 165.281 92.246 165.089 92.246 164.889C92.246 164.756 92.286 164.618 92.366 164.496C94.166 161.701 96.066 158.901 97.916 156.151L98.166 155.801ZM488.466 139.001C489.266 141.401 490.066 143.851 490.816 146.351C491.066 147.096 491.316 147.851 491.516 148.601C491.534 148.663 491.542 148.725 491.542 148.786C491.542 149.068 491.363 149.319 491.116 149.401L490.916 149.401C490.666 149.401 490.416 149.251 490.316 148.951C490.216 148.551 490.066 148.201 489.966 147.801C489.116 144.951 488.216 142.151 487.266 139.401C487.246 139.34 487.236 139.277 487.236 139.214C487.236 138.967 487.387 138.721 487.666 138.601C487.966 138.501 488.366 138.651 488.466 139.001ZM109.666 139.351C109.866 139.051 110.266 139.001 110.566 139.201C110.724 139.328 110.822 139.515 110.822 139.711C110.822 139.825 110.789 139.941 110.716 140.051C108.766 142.751 106.816 145.501 104.916 148.246C104.766 148.451 104.566 148.501 104.416 148.501C104.266 148.501 104.166 148.501 104.016 148.401C103.858 148.275 103.76 148.068 103.76 147.87C103.76 147.755 103.793 147.643 103.866 147.551C105.816 144.751 107.766 142.051 109.666 139.351ZM121.566 123.101C121.816 122.851 122.166 122.801 122.466 123.001C122.612 123.118 122.689 123.302 122.689 123.485C122.689 123.617 122.65 123.747 122.566 123.851C120.566 126.501 118.566 129.201 116.616 131.901C116.466 132.096 116.266 132.201 116.066 132.201C115.966 132.201 115.816 132.151 115.716 132.051C115.558 131.925 115.46 131.718 115.46 131.52C115.46 131.405 115.493 131.293 115.566 131.201C117.566 128.451 119.566 125.746 121.566 123.101ZM483.916 127.201C484.266 128.001 484.616 128.801 484.916 129.551C484.966 129.596 484.966 129.651 484.966 129.701C484.971 129.733 484.974 129.764 484.974 129.794C484.974 130.052 484.79 130.262 484.566 130.351C484.466 130.401 484.416 130.401 484.316 130.401C484.066 130.401 483.866 130.251 483.766 130.001L483.616 129.701C483.316 128.851 482.966 128.051 482.566 127.201C482.266 126.401 481.916 125.551 481.516 124.701C480.966 123.401 480.366 122.096 479.766 120.801C479.726 120.721 479.707 120.637 479.707 120.554C479.707 120.328 479.846 120.111 480.066 120.001C480.416 119.851 480.766 120.001 480.916 120.301C481.766 122.151 482.616 124.051 483.366 125.901C483.566 126.351 483.766 126.801 483.916 127.201ZM133.916 107.201C134.166 106.951 134.516 106.901 134.816 107.096C134.962 107.245 135.039 107.443 135.039 107.631C135.039 107.767 135 107.897 134.916 108.001C132.816 110.601 130.766 113.201 128.666 115.901L128.566 116.001C128.466 116.101 128.316 116.151 128.166 116.151C128.066 116.151 127.916 116.101 127.816 116.001C127.646 115.888 127.556 115.71 127.556 115.522C127.556 115.379 127.608 115.231 127.716 115.101C127.766 115.001 127.866 114.951 127.916 114.851C129.916 112.301 131.866 109.701 133.916 107.201ZM474.616 107.751C475.266 108.901 475.866 110.051 476.516 111.251C476.556 111.332 476.575 111.419 476.575 111.507C476.575 111.748 476.436 111.99 476.216 112.096C476.116 112.151 476.016 112.151 475.916 112.151C475.716 112.151 475.516 112.051 475.366 111.851C474.816 110.746 474.216 109.651 473.666 108.601C472.616 106.701 471.616 104.851 470.566 103.051C470.495 102.945 470.462 102.833 470.462 102.723C470.462 102.522 470.572 102.331 470.766 102.201C471.066 102.051 471.466 102.151 471.616 102.451C472.666 104.201 473.666 105.951 474.616 107.751ZM146.766 91.7515C147.016 91.5015 147.366 91.4515 147.666 91.6515C147.798 91.7834 147.86 91.9572 147.86 92.1286C147.86 92.282 147.81 92.4334 147.716 92.5515C145.566 95.0515 143.366 97.6015 141.216 100.201C141.116 100.351 140.916 100.451 140.766 100.451C140.616 100.451 140.466 100.401 140.366 100.301C140.201 100.191 140.127 100.021 140.127 99.8394C140.127 99.6914 140.176 99.5363 140.266 99.4015C142.416 96.8015 144.616 94.2515 146.766 91.7515ZM460.666 85.5515C462.616 88.3015 464.516 91.0515 466.316 93.8515C466.396 93.9715 466.436 94.1075 466.436 94.2371C466.436 94.4315 466.346 94.6115 466.166 94.7015C466.066 94.8015 465.916 94.8015 465.816 94.8015C465.616 94.8015 465.416 94.7015 465.316 94.5515C463.516 91.7515 461.566 89.0015 459.616 86.3015C459.543 86.1914 459.51 86.0678 459.51 85.9456C459.51 85.7348 459.608 85.5281 459.766 85.4015C460.066 85.2015 460.466 85.2515 460.666 85.5515ZM160.216 76.7515C160.416 76.5015 160.816 76.5015 161.066 76.7015C161.203 76.8388 161.28 77.0215 161.28 77.1997C161.28 77.3458 161.229 77.4888 161.116 77.6015C158.866 80.0015 156.566 82.5015 154.316 85.0015C154.216 85.1515 154.016 85.2015 153.866 85.2015C153.716 85.2015 153.566 85.1515 153.466 85.0515C153.329 84.9141 153.252 84.7465 153.252 84.5736C153.252 84.4319 153.303 84.2866 153.416 84.1515C155.666 81.6515 157.916 79.1515 160.216 76.7515ZM448.066 69.8015C450.266 72.3015 452.466 74.9015 454.566 77.5515C454.65 77.6558 454.689 77.7863 454.689 77.9175C454.689 78.1006 454.612 78.285 454.466 78.4015C454.316 78.5015 454.216 78.5515 454.066 78.5515C453.866 78.5515 453.716 78.4515 453.566 78.3015C451.516 75.7015 449.316 73.1015 447.166 70.6515C447.047 70.5322 446.984 70.3787 446.984 70.2237C446.984 70.0538 447.059 69.8822 447.216 69.7515C447.466 69.5515 447.866 69.5515 448.066 69.8015ZM174.316 62.4015C174.566 62.1515 174.916 62.1515 175.166 62.4015C175.291 62.5265 175.354 62.689 175.354 62.8515C175.354 63.014 175.291 63.1765 175.166 63.3015C172.816 65.5515 170.416 67.9515 168.066 70.3515C167.916 70.5015 167.766 70.5515 167.616 70.5515C167.416 70.5515 167.266 70.5015 167.166 70.3515C167.041 70.2515 166.979 70.1015 166.979 69.9446C166.979 69.7877 167.041 69.624 167.166 69.4965C169.566 67.0515 171.966 64.6515 174.316 62.4015ZM434.066 55.4015C436.516 57.6515 438.916 60.0515 441.266 62.4515C441.36 62.5459 441.41 62.6849 441.41 62.8317C441.41 62.9957 441.348 63.1695 441.216 63.3015C441.116 63.4515 440.966 63.5015 440.816 63.5015C440.616 63.5015 440.466 63.4015 440.366 63.3015C438.066 60.9515 435.666 58.5515 433.216 56.3015C433.084 56.1695 433.022 55.9957 433.022 55.8243C433.022 55.671 433.072 55.5195 433.166 55.4015C433.416 55.1515 433.816 55.1515 434.066 55.4015ZM189.166 48.8515C189.416 48.6015 189.816 48.6515 190.066 48.9015C190.15 49.0058 190.189 49.1363 190.189 49.2711C190.189 49.4593 190.112 49.6558 189.966 49.8015C188.616 50.9515 187.266 52.0965 185.916 53.3015L184.116 54.9515L182.466 56.4515C182.366 56.5515 182.216 56.6015 182.066 56.6015C181.866 56.6015 181.716 56.5015 181.566 56.4015C181.472 56.2834 181.422 56.1308 181.422 55.9769C181.422 55.8047 181.484 55.6308 181.616 55.5015C181.916 55.2015 182.266 54.9515 182.566 54.7015C182.966 54.3015 183.366 53.9015 183.816 53.5515C185.566 51.9515 187.366 50.4015 189.166 48.8515ZM418.766 42.3515C421.366 44.4015 424.016 46.5015 426.566 48.7015C426.703 48.8114 426.78 48.9817 426.78 49.1543C426.78 49.2958 426.729 49.4388 426.616 49.5515C426.516 49.7015 426.316 49.8015 426.166 49.8015C426.016 49.8015 425.866 49.7515 425.766 49.6515C423.216 47.5015 420.616 45.3515 417.966 43.3465C417.82 43.2329 417.743 43.0497 417.743 42.8572C417.743 42.7193 417.783 42.5767 417.866 42.4515C418.066 42.2015 418.466 42.1515 418.766 42.3515ZM204.916 36.3015C205.166 36.0515 205.566 36.1515 205.766 36.4015C205.849 36.5267 205.889 36.6685 205.889 36.8061C205.889 36.9981 205.812 37.182 205.666 37.3015C203.016 39.2015 200.366 41.2515 197.716 43.4015C197.566 43.5015 197.466 43.5515 197.316 43.5515C197.116 43.5515 196.966 43.4515 196.816 43.3015C196.733 43.1762 196.693 43.0423 196.693 42.9105C196.693 42.7267 196.77 42.5471 196.916 42.4015C199.616 40.3015 202.266 38.2015 204.916 36.3015ZM402.216 30.8015C405.066 32.6015 407.866 34.4515 410.616 36.4015C410.796 36.5215 410.886 36.6955 410.886 36.8803C410.886 37.0035 410.846 37.1315 410.766 37.2515C410.666 37.4515 410.466 37.5015 410.266 37.5015C410.166 37.5015 410.016 37.5015 409.916 37.4015C407.166 35.5015 404.366 33.6515 401.566 31.8515C401.372 31.7546 401.262 31.5535 401.262 31.3424C401.262 31.2266 401.295 31.1077 401.366 31.0015C401.566 30.7015 401.966 30.6515 402.216 30.8015ZM221.616 25.0015C221.866 24.8515 222.266 24.9515 222.466 25.2015C222.52 25.3091 222.548 25.4297 222.548 25.5493C222.548 25.7628 222.458 25.9732 222.266 26.1015C219.416 27.8015 216.616 29.5965 213.816 31.5015C213.716 31.5515 213.616 31.6015 213.466 31.6015C213.266 31.6015 213.066 31.5015 212.966 31.3515C212.886 31.2315 212.846 31.0955 212.846 30.9627C212.846 30.7635 212.936 30.5715 213.116 30.4515C215.916 28.5515 218.766 26.7515 221.616 25.0015ZM384.716 20.8465C387.666 22.3515 390.666 24.0015 393.616 25.6515C393.81 25.7483 393.92 25.9494 393.92 26.1605C393.92 26.2764 393.887 26.3952 393.816 26.5015C393.716 26.7015 393.516 26.8015 393.266 26.8015C393.166 26.8015 393.066 26.8015 392.966 26.7015C390.066 25.0515 387.116 23.5015 384.166 21.9965C383.946 21.8537 383.807 21.6279 383.807 21.3994C383.807 21.3158 383.826 21.2318 383.866 21.1515C384.016 20.8465 384.416 20.7015 384.716 20.8465ZM239.266 15.4015C239.616 15.2515 239.966 15.3515 240.116 15.7015C240.156 15.7819 240.175 15.8658 240.175 15.9486C240.175 16.1747 240.036 16.3917 239.816 16.5015C236.866 17.9515 233.866 19.4515 230.916 21.0515C230.816 21.1015 230.716 21.1515 230.616 21.1515C230.416 21.1515 230.166 21.0515 230.066 20.8015C230.02 20.7086 229.997 20.6109 229.997 20.5144C229.997 20.2991 230.109 20.0896 230.316 19.9515C233.266 18.3465 236.316 16.8015 239.266 15.4015ZM366.366 12.5515C369.466 13.8015 372.566 15.1515 375.616 16.5015C375.875 16.6123 376.024 16.8294 376.024 17.0784C376.024 17.1666 376.005 17.2587 375.966 17.3515C375.866 17.5515 375.616 17.7015 375.366 17.7015C375.266 17.7015 375.216 17.7015 375.116 17.6515C372.116 16.3015 369.016 14.9515 365.916 13.7515C365.658 13.6407 365.508 13.418 365.508 13.1702C365.508 13.0825 365.527 12.9916 365.566 12.9015C365.666 12.6015 366.066 12.4515 366.366 12.5515ZM248.516 11.3015C251.616 10.0515 254.816 8.85146 257.966 7.80146C258.266 7.70147 258.616 7.85146 258.716 8.20147C258.751 8.27161 258.767 8.34448 258.767 8.41626C258.767 8.65146 258.596 8.87485 258.366 8.95147C255.216 10.0015 252.066 11.2015 248.966 12.4515C248.916 12.5015 248.816 12.5015 248.716 12.5015C248.516 12.5015 248.266 12.3515 248.166 12.0965C248.127 12.0194 248.108 11.9385 248.108 11.8584C248.108 11.6322 248.258 11.4123 248.516 11.3015ZM347.316 6.05146C350.516 6.95147 353.716 7.95147 356.916 9.05146C357.195 9.13105 357.346 9.3658 357.346 9.63726C357.346 9.70691 357.336 9.77898 357.316 9.85146C357.216 10.1015 356.966 10.2515 356.716 10.2515L356.516 10.2515C353.366 9.15147 350.116 8.15147 346.966 7.25146C346.677 7.16889 346.49 6.91586 346.49 6.66128C346.49 6.60755 346.499 6.55375 346.516 6.50146C346.616 6.15147 346.966 5.95147 347.316 6.05146ZM267.616 4.90147C270.816 4.00146 274.116 3.24646 277.416 2.60146C277.766 2.55146 278.066 2.80146 278.166 3.10146C278.17 3.13172 278.172 3.16198 278.172 3.19205C278.172 3.50974 277.94 3.80579 277.666 3.85146C274.416 4.49646 271.116 5.25146 267.916 6.10146L267.766 6.10146C267.466 6.10146 267.216 5.90147 267.166 5.65147C267.149 5.59047 267.14 5.52948 267.14 5.47008C267.14 5.18859 267.327 4.94275 267.616 4.90147ZM327.616 1.75146C330.866 2.25146 334.216 2.90147 337.516 3.60146C337.83 3.69126 338.024 3.94231 338.024 4.24601C338.024 4.28054 338.021 4.31574 338.016 4.35146C337.916 4.65147 337.666 4.85146 337.366 4.85146C337.366 4.85146 337.316 4.85146 337.266 4.80146C333.966 4.10146 330.666 3.50146 327.416 3.00146C327.096 2.95576 326.86 2.65932 326.86 2.34138C326.86 2.31153 326.862 2.2815 326.866 2.25146C326.916 1.95147 327.266 1.70147 327.616 1.75146ZM297.416 0.151466L297.466 0.151466C297.766 0.151466 298.066 0.451466 298.066 0.746464C298.07 0.772804 298.072 0.798843 298.072 0.824478C298.072 1.14433 297.794 1.40147 297.516 1.40147C294.166 1.60146 290.816 1.90147 287.516 2.30146L287.466 2.30146C287.116 2.30146 286.866 2.05146 286.816 1.75146C286.812 1.72144 286.81 1.69178 286.81 1.66261C286.81 1.35183 287.046 1.09718 287.366 1.05146C290.666 0.651466 294.066 0.351463 297.416 0.151466ZM307.516 0.00146484C310.866 0.0514641 314.266 0.251465 317.566 0.551464C317.916 0.551464 318.166 0.846466 318.166 1.20147C318.116 1.55146 317.866 1.80146 317.516 1.80146L317.466 1.80146C314.166 1.50146 310.816 1.30146 307.466 1.25146C307.116 1.25146 306.866 0.951466 306.866 0.601463C306.866 0.251465 307.166 0.00146484 307.516 0.00146484Z" clip-rule="evenodd" fill="#D8D5DB" fill-opacity="1.000000" fill-rule="evenodd"/>
	<path id="Fill 8" d="M344.712 184.351L311.717 127.201L504.767 127.201L504.067 128.401L503.667 129.051L499.167 136.901L482.862 165.101L480.762 168.701L421.117 272.051L408.217 294.351L395.362 272.051L359.617 210.151L354.112 200.651L344.712 184.351ZM497.317 135.051L490.817 146.351L489.967 147.801L480.562 164.051L478.517 167.651L418.217 272.051L408.217 289.351L398.217 272.051L362.467 210.151L356.967 200.651L344.712 179.401L316.017 129.701L500.417 129.701L497.317 135.051Z" clip-rule="evenodd" fill="#FFFFFF" fill-opacity="1.000000" fill-rule="evenodd"/>
	<path id="Fill 10" d="M342.81 382.09C342.96 382.64 342.71 383.45 342.16 384.44C340.91 386.79 337.92 390.14 334.77 392.89C334.11 393.45 333.46 393.99 332.81 394.44C330.91 395.99 329.06 397.2 327.61 397.64C322.51 399.34 300.46 396.44 295.11 393.54C294.76 393.34 294.51 393.14 294.26 392.89C292.07 393.04 288.81 393.09 284.86 392.89C283.06 392.8 281.11 392.64 279.01 392.34C274.06 391.79 268.41 390.64 262.31 388.69C259.31 387.8 256.16 386.64 252.96 385.24C249.96 383.89 246.86 382.34 243.76 380.54C243.01 380.14 242.46 379.64 241.81 379.25C242.41 383.85 243.01 388.39 243.66 392.89C243.86 394.14 244.06 395.39 244.21 396.59C244.76 400.14 245.31 403.65 245.91 407.09C248.26 420.64 250.96 433.39 254.21 444.79C254.51 445.99 254.86 447.2 255.21 448.34C254.16 448.49 253.11 448.65 252.11 448.79C252.36 449.94 252.56 451.15 252.76 452.34C255.26 465.84 257.16 482.49 258.56 499.59C199.86 522.84 145.21 528.29 107.51 505.24C95.51 497.94 85.26 487.74 77.11 474.29C75.81 472.14 74.51 469.99 73.21 467.84C73.46 460.79 73.76 454.84 74.01 450.79C73.06 450.69 72.56 450.69 72.56 450.69C72.56 442.54 72.91 431.84 73.46 419.49C73.51 418.99 73.51 418.49 73.51 417.94C73.71 414.44 73.91 410.84 74.16 407.09C74.36 402.49 74.66 397.8 74.96 392.89C75.41 385.79 75.91 378.39 76.46 370.89C64.26 367.64 54.06 364.14 48.31 360.64C40.81 356.09 37.96 349.74 38.16 343.49C38.06 342.24 38.06 340.89 38.36 339.49C41.21 330.04 51.01 301.89 62.11 273.94L49.81 269.74C49.81 269.74 85.76 205.69 106.86 191.59C106.96 191.54 107.01 191.49 107.11 191.44C114.56 184.54 125.31 180.09 141.41 178.29C141.51 164.94 140.46 142.39 139.36 125.14C134.11 123.94 130.56 119.59 128.56 115.99C128.31 115.59 128.06 115.19 127.91 114.84C127.11 113.29 126.66 111.99 126.46 111.34C125.36 106.94 126.41 103.29 128.56 100.94C128.11 97.29 127.46 91.29 127.21 84.99C126.71 73.39 127.36 60.69 132.61 59.54C132.56 59.39 132.46 59.29 132.41 59.19C131.06 55.04 133.51 50.44 133.61 50.29L135.81 51.44C135.81 51.49 133.81 55.29 134.76 58.39C138.96 53.74 153.11 52.24 167.96 53.09C168.81 53.09 169.71 53.19 170.56 53.24C173.61 53.49 176.66 53.79 179.66 54.24C180.66 54.34 181.61 54.49 182.56 54.69C183.06 54.74 183.61 54.84 184.11 54.94C187.36 55.49 190.46 56.19 193.31 56.99C198.21 58.34 202.31 60.04 205.06 61.99C205.96 62.59 206.66 63.24 207.26 63.89C209.76 66.79 210.16 68.84 209.06 70.19C208.41 70.94 207.36 71.49 205.96 71.89C206.56 76.09 206.81 79.74 206.91 83.09C207.21 83.89 207.51 84.74 207.81 85.59C208.06 86.34 208.31 87.14 208.56 87.94C208.61 87.99 208.66 87.99 208.71 88.04C209.01 88.29 209.31 88.49 209.61 88.74C210.71 89.74 211.71 90.99 212.46 92.64L210.21 93.69C210.16 93.59 210.11 93.54 210.06 93.44C210.66 95.99 211.21 98.64 211.61 101.44C212.21 105.59 212.86 109.74 213.51 113.79C213.71 115.34 213.91 116.89 214.11 118.39C214.56 121.49 214.96 124.54 215.21 127.44C215.31 128.34 215.41 129.19 215.41 130.04C216.46 143.24 215.21 154.19 207.31 159.69C205.81 160.79 204.01 161.69 201.96 162.29C199.36 163.14 196.26 163.59 192.66 163.64C192.76 167.14 192.96 170.54 193.26 173.74C193.41 174.99 193.56 176.24 193.76 177.39C193.91 178.59 194.11 179.79 194.36 180.89C207.71 184.09 217.76 189.49 224.11 196.84C224.41 197.14 224.76 197.44 225.06 197.79C228.61 201.24 232.06 206.55 235.31 212.89C239.41 220.84 243.26 230.5 246.66 240.14C246.91 240.89 247.16 241.69 247.46 242.44C247.71 243.29 248.01 244.09 248.26 244.94C249.66 249.09 250.96 253.24 252.16 257.2C253.06 260.14 253.86 263 254.66 265.69C258.51 279.25 260.76 289.25 260.76 289.25L254.66 290.69L252.16 291.29L250.36 291.75C250.96 294.14 251.56 296.49 252.16 298.89C252.21 299.14 252.31 299.44 252.36 299.7C253.16 302.8 253.91 305.95 254.66 308.99C258.51 324.64 261.76 339.14 263.21 348.74C267.51 352.29 270.66 357.84 275.31 363C280.01 368.19 286.36 372.89 297.11 374.74C297.16 374.74 297.16 374.79 297.21 374.79C301.42 371.49 309.21 367.6 313.96 366.15C314.61 365.99 315.17 365.84 315.66 365.74C316.06 365.64 316.42 365.59 316.71 365.59C318.72 365.19 319.01 365.34 320.21 366.09C320.66 366.44 321.26 366.89 322.21 367.44C326.11 369.74 330.21 371.89 333.76 373.99C338.16 376.55 341.61 378.99 342.61 381.59C342.71 381.75 342.76 381.94 342.81 382.09Z" fill="#D1CDD3" fill-opacity="1.000000" fill-rule="evenodd"/>
	<path id="Fill 12" d="M357.66 367.42C354.1 365.29 355.14 365.02 351.11 365.76C346.76 366.56 337.4 371.05 332.66 374.79C332.61 374.79 332.58 374.76 332.53 374.75C311.09 371.08 307.32 355.91 298.65 348.73C293.84 317.25 269.63 231.58 269.63 231.58L233.15 245.15C238.47 281.24 259.86 349.89 265.41 365.38C266.32 367.26 267.49 368.75 268.81 369.96C270.63 373.8 273.9 377.51 279.18 380.57C301.05 393.21 321.75 393.39 329.67 392.88C329.93 393.14 330.22 393.36 330.55 393.54C335.91 396.47 357.92 399.34 363.06 397.66C368.29 395.94 378.99 385.11 378.22 382.11C376.97 377.21 366.6 372.77 357.66 367.42Z" fill="#FFAD69" fill-opacity="1.000000" fill-rule="evenodd"/>
	<path id="Fill 14" d="M236.9 208.44C226.6 231.59 230.38 304.95 230.38 304.95L296.21 289.26C296.21 289.26 264.06 147.37 236.9 208.44Z" fill="#377ADB" fill-opacity="1.000000" fill-rule="evenodd"/>
	<path id="Fill 16" d="M292.61 484.39C281.22 490.1 269.81 495.19 258.56 499.59C199.86 522.84 145.22 528.29 107.51 505.24C108.06 483.59 108.81 461.04 109.41 450.79C109.51 449.59 109.61 448.54 109.66 447.69L129.86 447.29L130.76 447.29L130.81 447.24L240.11 445.1L240.22 445.1L247.21 444.94L254.21 444.79L286.51 444.14C286.87 445.64 287.21 447.24 287.51 448.85C289.61 459.05 291.26 471.29 292.61 484.39Z" fill="#232323" fill-opacity="1.000000" fill-rule="evenodd"/>
	<path id="Fill 18" d="M188.55 177.42C149.28 178.72 136 191.97 129.23 214.9C121.54 240.93 108 398.15 108 450.68C108 450.68 225.53 459.01 290.63 448.34C270.22 379.38 268.01 255.4 267.6 218.46C267.29 190.75 238.33 175.78 188.55 177.42Z" fill="#4D8DFF" fill-opacity="1.000000" fill-rule="evenodd"/>
	<mask id="mask0_358" mask-type="alpha" maskUnits="userSpaceOnUse" x="0.000000" y="0.000000" width="532.614990" height="520.034973">
		<path id="Clip 21" d="M0 520.03L532.61 520.03L532.61 0L0 0L0 520.03Z" fill="#000000" fill-opacity="1.000000" fill-rule="evenodd"/>
	</mask>
	<g mask="url(#mask0_358)">
		<path id="Fill 20" d="M254.665 316.8L192.465 316.8L192.465 242.45L254.665 242.45L254.665 316.8ZM252.165 314.3L194.965 314.3L194.965 244.95L252.165 244.95L252.165 314.3Z" clip-rule="evenodd" fill="#FFFFFF" fill-opacity="1.000000" fill-rule="evenodd"/>
	</g>
	<g mask="url(#mask0_358)">
		<path id="Fill 22" d="M223.14 113.13C227.01 110.22 247.19 112.86 241.38 71.78C239.26 56.79 225.18 66.79 215.21 68.79C205.25 70.79 211.59 113.87 211.59 113.87L223.14 113.13Z" fill="#232323" fill-opacity="1.000000" fill-rule="evenodd"/>
	</g>
	<g mask="url(#mask0_358)">
		<path id="Fill 23" d="M172.9 103.29C174.57 114.18 177.92 173.1 176.53 186.78C175.13 200.47 241.31 204.37 232.65 189.3C224 174.22 230.14 124.23 230.14 124.23L172.9 103.29Z" fill="#FFAD69" fill-opacity="1.000000" fill-rule="evenodd"/>
	</g>
	<g mask="url(#mask0_358)">
		<path id="Fill 24" d="M177.48 104.96L230.13 124.24C230.13 124.24 226.58 153.35 228.72 173.85C188.57 170.74 178.27 120.03 177.59 110.27C177.48 108.43 177.42 106.65 177.48 104.96Z" fill="#D88344" fill-opacity="1.000000" fill-rule="evenodd"/>
	</g>
	<g mask="url(#mask0_358)">
		<path id="Fill 25" d="M247.04 101.44C251.92 135.07 260.2 168.61 219.43 163.09C178.66 157.57 172.33 105.29 172.44 95.44C173.08 42.82 237.44 35.3 247.04 101.44Z" fill="#FFAD69" fill-opacity="1.000000" fill-rule="evenodd"/>
	</g>
	<g mask="url(#mask0_358)">
		<path id="Fill 26" d="M242.69 63.88C233.09 52.74 179.15 48.53 170.22 58.4C169.24 55.3 171.24 51.49 171.26 51.46L169.06 50.27C168.95 50.46 166.52 55.06 167.84 59.19C167.89 59.32 168 59.41 168.04 59.54C158.17 61.71 164.47 104.59 164.47 104.59L176.03 103.85C179.89 100.94 193.31 80.45 196.26 68.09C217.39 71.66 254.88 78.05 242.69 63.88Z" fill="#232323" fill-opacity="1.000000" fill-rule="evenodd"/>
	</g>
	<g mask="url(#mask0_358)">
		<path id="Fill 27" d="M236.95 368.61C232.82 368.84 216.8 371.62 211.17 370.32C192.27 365.9 143.55 344.05 117.32 331.83C133.46 296.81 157.21 234.82 157.21 234.82L119.86 223.86C102.53 255.96 78.6 323.77 73.78 339.5C73.51 340.91 73.49 342.24 73.57 343.51C73.4 349.73 76.25 356.09 83.74 360.65C104.5 373.29 182.81 385.56 204.5 387.96C204.9 388.77 205.43 389.5 206.29 389.99C211.6 392.97 235.74 395.2 240.7 396.08C246.93 397.18 265.82 398.78 265.01 396.25C263.67 392.1 256.67 367.5 236.95 368.61Z" fill="#FFAD69" fill-opacity="1.000000" fill-rule="evenodd"/>
	</g>
	<g mask="url(#mask0_358)">
		<path id="Fill 28" d="M142.28 191.61C121.21 205.69 85.25 269.74 85.25 269.74L149.29 291.61C149.29 291.61 197.85 154.47 142.28 191.61Z" fill="#4D8DFF" fill-opacity="1.000000" fill-rule="evenodd"/>
	</g>
	<g mask="url(#mask0_358)">
		<path id="Fill 29" d="M212.71 99.78C212.58 101.42 213.46 102.82 214.69 102.92C215.92 103.02 217.02 101.77 217.15 100.13C217.29 98.5 216.4 97.09 215.17 96.99C213.94 96.89 212.84 98.14 212.71 99.78Z" fill="#232323" fill-opacity="1.000000" fill-rule="evenodd"/>
	</g>
	<g mask="url(#mask0_358)">
		<path id="Fill 30" d="M238.68 100.46C238.55 102.1 239.43 103.51 240.66 103.61C241.89 103.7 242.99 102.46 243.12 100.82C243.25 99.18 242.36 97.77 241.14 97.67C239.91 97.58 238.81 98.82 238.68 100.46Z" fill="#232323" fill-opacity="1.000000" fill-rule="evenodd"/>
	</g>
	<g mask="url(#mask0_358)">
		<path id="Fill 31" d="M206.32 90.57L204.22 89.21C208.64 82.44 216.06 84.01 216.38 84.08L215.84 86.52C215.6 86.47 209.77 85.28 206.32 90.57Z" fill="#232323" fill-opacity="1.000000" fill-rule="evenodd"/>
	</g>
	<g mask="url(#mask0_358)">
		<path id="Fill 32" d="M245.63 93.69C242.99 87.93 237.05 88.25 236.81 88.27L236.64 85.78C236.96 85.76 244.53 85.29 247.9 92.64L245.63 93.69Z" fill="#232323" fill-opacity="1.000000" fill-rule="evenodd"/>
	</g>
	<g mask="url(#mask0_358)">
		<path id="Fill 33" d="M221.05 130.74C216.82 130.74 208.7 129.54 203.65 121.15L205.79 119.86C211.91 130.03 222.88 128.18 223.34 128.09L223.8 130.55C223.76 130.56 222.7 130.74 221.05 130.74Z" fill="#232323" fill-opacity="1.000000" fill-rule="evenodd"/>
	</g>
	<g mask="url(#mask0_358)">
		<path id="Fill 34" d="M240.27 119.35L228.13 119.19L228.17 116.69L236.92 116.81L231.52 98.37L233.91 97.66L240.27 119.35Z" fill="#D88344" fill-opacity="1.000000" fill-rule="evenodd"/>
	</g>
	<g mask="url(#mask0_358)">
		<path id="Fill 35" d="M182.78 107.57C186.46 115.87 191.08 123.9 179.51 125.39C167.95 126.89 162.57 113.9 161.91 111.36C158.41 97.78 175.54 91.25 182.78 107.57Z" fill="#FFAD69" fill-opacity="1.000000" fill-rule="evenodd"/>
	</g>
	<g mask="url(#mask0_358)">
		<path id="Fill 36" d="M495.89 407.08L17.45 407.08C13.54 407.08 10.35 403.89 10.35 399.98C10.35 396.08 13.54 392.88 17.45 392.88L495.89 392.88C499.79 392.88 502.99 396.08 502.99 399.98C502.99 403.89 499.79 407.08 495.89 407.08Z" fill="#FFFFFF" fill-opacity="1.000000" fill-rule="evenodd"/>
	</g>
	<g mask="url(#mask0_358)">
		<path id="Fill 37" d="M194.51 407.08L13.9 407.08C9.99 407.08 6.8 403.89 6.8 399.98C6.8 396.08 9.99 392.88 13.9 392.88L194.51 392.88C198.41 392.88 201.61 396.08 201.61 399.98C201.61 403.89 198.41 407.08 194.51 407.08Z" fill="#D8D5DB" fill-opacity="1.000000" fill-rule="evenodd"/>
	</g>
	<g mask="url(#mask0_358)">
		<path id="Fill 38" d="M472.46 381.61L324.05 381.61C318.38 381.61 314.62 377.01 315.65 371.34L331.84 282.33C332.87 276.66 338.3 272.06 343.98 272.06L492.38 272.06C498.05 272.06 501.81 276.66 500.78 282.33L484.6 371.34C483.56 377.01 478.13 381.61 472.46 381.61Z" fill="#2B2B2B" fill-opacity="1.000000" fill-rule="evenodd"/>
	</g>
	<g mask="url(#mask0_358)">
		<path id="Fill 39" d="M476.09 381.61L327.68 381.61C322.01 381.61 318.25 377.01 319.28 371.34L335.47 282.33C336.5 276.66 341.93 272.06 347.6 272.06L496.01 272.06C501.68 272.06 505.44 276.66 504.41 282.33L488.22 371.34C487.19 377.01 481.76 381.61 476.09 381.61Z" fill="#232323" fill-opacity="1.000000" fill-rule="evenodd"/>
	</g>
	<g mask="url(#mask0_358)">
		<path id="Fill 40" d="M387.615 347.348L395.065 306.353L436.115 306.353L428.615 347.348L387.615 347.348ZM390.62 344.848L426.565 344.848L433.12 308.853L397.165 308.853L390.62 344.848Z" clip-rule="evenodd" fill="#FFFFFF" fill-opacity="1.000000" fill-rule="evenodd"/>
	</g>
	<g mask="url(#mask0_358)">
		<path id="Fill 41" d="M298.02 384.45C298.02 389.09 301.82 392.88 306.46 392.88L461.7 392.88C466.34 392.88 470.14 389.09 470.14 384.45L298.02 384.45Z" fill="#232323" fill-opacity="1.000000" fill-rule="evenodd"/>
	</g>
	<g mask="url(#mask0_358)">
		<path id="Fill 42" d="M252.92 384.45C252.92 389.09 256.71 392.88 261.35 392.88L322.4 392.88C327.04 392.88 330.83 389.09 330.83 384.45L252.92 384.45Z" fill="#2B2B2B" fill-opacity="1.000000" fill-rule="evenodd"/>
	</g>
	<g mask="url(#mask0_358)">
		<path id="Fill 43" d="M423.45 108.22C418.19 108.22 413.93 112.49 413.93 117.74L432.96 117.74C432.96 112.49 428.71 108.22 423.45 108.22Z" fill="#377ADB" fill-opacity="1.000000" fill-rule="evenodd"/>
	</g>
	<g mask="url(#mask0_358)">
		<path id="Fill 44" d="M423.45 108.22L423.45 200.65C423.45 205.92 419.18 210.14 413.92 210.14L344.71 210.14L344.71 117.76C344.71 112.49 348.98 108.22 354.21 108.22L423.45 108.22Z" fill="#4D8DFF" fill-opacity="1.000000" fill-rule="evenodd"/>
	</g>
	<g mask="url(#mask0_358)">
		<path id="Fill 45" d="M404.43 200.65L335.19 200.64C335.19 205.9 339.45 210.16 344.71 210.16L413.92 210.14C408.66 210.14 404.43 205.92 404.43 200.65Z" fill="#6EA9FF" fill-opacity="1.000000" fill-rule="evenodd"/>
	</g>
	<g mask="url(#mask0_358)">
		<path id="Fill 46" d="M355.07 123.75L413.12 123.75L413.12 121.25L355.07 121.25L355.07 123.75Z" fill="#FFFFFF" fill-opacity="1.000000" fill-rule="evenodd"/>
	</g>
	<g mask="url(#mask0_358)">
		<path id="Fill 47" d="M355.07 133.22L413.12 133.22L413.12 130.72L355.07 130.72L355.07 133.22Z" fill="#FFFFFF" fill-opacity="1.000000" fill-rule="evenodd"/>
	</g>
	<g mask="url(#mask0_358)">
		<path id="Fill 48" d="M355.07 142.69L413.12 142.69L413.12 140.19L355.07 140.19L355.07 142.69Z" fill="#FFFFFF" fill-opacity="1.000000" fill-rule="evenodd"/>
	</g>
	<g mask="url(#mask0_358)">
		<path id="Fill 49" d="M355.07 152.16L413.12 152.16L413.12 149.66L355.07 149.66L355.07 152.16Z" fill="#FFFFFF" fill-opacity="1.000000" fill-rule="evenodd"/>
	</g>
	<g mask="url(#mask0_358)">
		<path id="Fill 50" d="M355.07 161.63L413.12 161.63L413.12 159.13L355.07 159.13L355.07 161.63Z" fill="#FFFFFF" fill-opacity="1.000000" fill-rule="evenodd"/>
	</g>
	<g mask="url(#mask0_358)">
		<path id="Fill 51" d="M355.07 171.1L413.12 171.1L413.12 168.6L355.07 168.6L355.07 171.1Z" fill="#FFFFFF" fill-opacity="1.000000" fill-rule="evenodd"/>
	</g>
	<g mask="url(#mask0_358)">
		<path id="Fill 52" d="M355.07 180.57L413.12 180.57L413.12 178.07L355.07 178.07L355.07 180.57Z" fill="#FFFFFF" fill-opacity="1.000000" fill-rule="evenodd"/>
	</g>
	<g mask="url(#mask0_358)">
		<path id="Fill 53" d="M355.07 190.04L413.12 190.04L413.12 187.54L355.07 187.54L355.07 190.04Z" fill="#FFFFFF" fill-opacity="1.000000" fill-rule="evenodd"/>
	</g>
	<g mask="url(#mask0_358)">
		<path id="Fill 54" d="M520.18 157.89C506.93 171.14 485.44 171.14 472.18 157.89C458.93 144.63 458.93 123.15 472.18 109.89C485.44 96.64 506.93 96.64 520.18 109.89C533.43 123.15 533.43 144.63 520.18 157.89Z" fill="#FFC84D" fill-opacity="1.000000" fill-rule="evenodd"/>
	</g>
	<g mask="url(#mask0_358)">
		<path id="Fill 55" d="M496.18 133.89L523.15 160.86C508.36 175.65 484 175.65 469.21 160.86C462.88 154.52 458.97 146.15 458.19 137.22L496.18 133.89Z" fill="#232323" fill-opacity="1.000000" fill-rule="evenodd"/>
	</g>
	<g mask="url(#mask0_358)">
		<path id="Fill 56" d="M496.18 133.89L458.3 138.31C457.8 134.03 458.03 129.7 458.98 125.5C459.93 121.3 461.58 117.29 463.87 113.64L496.18 133.89Z" fill="#FFFFFF" fill-opacity="1.000000" fill-rule="evenodd"/>
	</g>
	<g mask="url(#mask0_358)">
		<path id="Fill 57" d="M330.07 84.79L301.32 84.79C297.61 84.79 294.57 81.76 294.57 78.04L294.57 49.3C294.57 45.59 297.61 42.55 301.32 42.55L330.07 42.55C333.78 42.55 336.82 45.59 336.82 49.3L336.82 78.04C336.82 81.76 333.78 84.79 330.07 84.79Z" fill="#232323" fill-opacity="1.000000" fill-rule="evenodd"/>
	</g>
	<g mask="url(#mask0_358)">
		<path id="Fill 58" d="M321.66 93.2L292.91 93.2C289.2 93.2 286.16 90.16 286.16 86.45L286.16 57.7C286.16 53.99 289.2 50.95 292.91 50.95L321.66 50.95C325.37 50.95 328.41 53.99 328.41 57.7L328.41 86.45C328.41 90.16 325.37 93.2 321.66 93.2Z" fill="#FF4E4A" fill-opacity="1.000000" fill-rule="evenodd"/>
	</g>
</svg>
