<svg width="50.000000" height="50.000000" viewBox="0 0 50 50" fill="none" xmlns="http://www.w3.org/2000/svg" xmlns:xlink="http://www.w3.org/1999/xlink">
	<desc>
			Created with Pixso.
	</desc>
	<defs>
		<clipPath id="clip0_565">
			<rect id="icon" width="50.000000" height="50.000000" fill="white" fill-opacity="0"/>
		</clipPath>
	</defs>
	<rect id="icon" width="50.000000" height="50.000000" fill="#FFFFFF" fill-opacity="0"/>
	<g clip-path="url(#clip0_565)">
		<rect id="icon bd" rx="19.000000" width="50.000000" height="50.000000" fill="#4DADF7" fill-opacity="1.000000"/>
		<path id="" d="M31.42 19.14L30.57 19.14C30.57 22.44 28.99 24.83 27.24 26C28.99 27.16 30.57 29.55 30.57 32.85L31.42 32.85C31.58 32.85 31.71 32.98 31.71 33.14L31.71 33.71C31.71 33.87 31.58 34 31.42 34L18.28 34C18.12 34 18 33.87 18 33.71L18 33.14C18 32.98 18.12 32.85 18.28 32.85L19.14 32.85C19.14 29.55 20.72 27.16 22.47 26C20.72 24.83 19.14 22.44 19.14 19.14L18.28 19.14C18.12 19.14 18 19.01 18 18.85L18 18.28C18 18.12 18.12 18 18.28 18L31.42 18C31.58 18 31.71 18.12 31.71 18.28L31.71 18.85C31.71 19.01 31.58 19.14 31.42 19.14ZM28.66 22.57C29.13 21.59 29.42 20.44 29.42 19.14L20.28 19.14C20.28 20.44 20.58 21.59 21.04 22.57L28.66 22.57ZM20.79 30L28.91 30C28.25 28.27 27.07 27.05 25.88 26.57L23.83 26.57C22.64 27.05 21.45 28.27 20.79 30Z" fill="#FFFFFF" fill-opacity="1.000000" fill-rule="evenodd"/>
	</g>
</svg>
