<svg width="51.000000" height="50.000000" viewBox="0 0 51 50" fill="none" xmlns="http://www.w3.org/2000/svg" xmlns:xlink="http://www.w3.org/1999/xlink">
	<desc>
			Created with Pixso.
	</desc>
	<defs>
		<clipPath id="clip0_541">
			<rect id="icon" width="51.000000" height="50.000000" fill="white" fill-opacity="0"/>
		</clipPath>
	</defs>
	<rect id="icon" width="51.000000" height="50.000000" fill="#FFFFFF" fill-opacity="0"/>
	<g clip-path="url(#clip0_541)">
		<rect id="icon bd" rx="19.000000" width="50.000000" height="50.000000" fill="#7752BE" fill-opacity="1.000000"/>
		<path id="" d="M19.97 18.16L29.11 27.31C29.28 27.47 29.33 27.72 29.24 27.92C29.15 28.14 28.94 28.28 28.71 28.28L25.3 28.28L27.09 32.53C27.22 32.83 27.08 33.16 26.79 33.28L25.21 33.95C24.91 34.08 24.58 33.93 24.46 33.65L22.75 29.61L19.97 32.4C19.86 32.5 19.72 32.57 19.57 32.57C19.5 32.57 19.41 32.55 19.35 32.52C19.14 32.43 19 32.23 19 32L19 18.57C19 18.33 19.14 18.13 19.35 18.04C19.41 18.01 19.5 18 19.57 18C19.72 18 19.86 18.05 19.97 18.16Z" fill="#FFFFFF" fill-opacity="1.000000" fill-rule="evenodd"/>
	</g>
</svg>
