<svg width="50.000000" height="50.000000" viewBox="0 0 50 50" fill="none" xmlns="http://www.w3.org/2000/svg" xmlns:xlink="http://www.w3.org/1999/xlink">
	<desc>
			Created with Pixso.
	</desc>
	<defs>
		<clipPath id="clip0_549">
			<rect id="icon" width="50.000000" height="50.000000" fill="white" fill-opacity="0"/>
		</clipPath>
	</defs>
	<rect id="icon" width="50.000000" height="50.000000" fill="#FFFFFF" fill-opacity="0"/>
	<g clip-path="url(#clip0_549)">
		<rect id="icon bd" rx="19.000000" width="50.000000" height="50.000000" fill="#FAB005" fill-opacity="1.000000"/>
		<path id="" d="M26.65 24.9L25.48 24.35L25.48 23.3C25.48 22.8 25.07 22.39 24.57 22.39C24.07 22.39 23.66 22.8 23.66 23.3L23.66 28.76C23.66 30.85 21.92 32.54 19.83 32.54C17.71 32.54 16 30.83 16 28.71L16 26.33L18.92 26.33L18.92 28.67C18.92 29.18 19.33 29.58 19.83 29.58C20.33 29.58 20.75 29.18 20.75 28.67L20.75 23.14C20.75 21.09 22.5 19.45 24.57 19.45C26.65 19.45 28.39 21.1 28.39 23.16L28.39 24.38L26.65 24.9ZM30.21 28.79L30.21 26.33L33.14 26.33L33.14 28.71C33.14 30.83 31.42 32.54 29.31 32.54C27.2 32.54 25.48 30.84 25.48 28.75L25.48 26.35L26.65 26.9L28.39 26.38L28.39 28.79C28.39 29.29 28.8 29.69 29.3 29.69C29.8 29.69 30.21 29.29 30.21 28.79Z" fill="#FFFFFF" fill-opacity="1.000000" fill-rule="evenodd"/>
	</g>
</svg>
