<svg width="50.000000" height="50.000000" viewBox="0 0 50 50" fill="none" xmlns="http://www.w3.org/2000/svg" xmlns:xlink="http://www.w3.org/1999/xlink">
	<desc>
			Created with Pixso.
	</desc>
	<defs>
		<clipPath id="clip0_557">
			<rect id="icon" width="50.000000" height="50.000000" fill="white" fill-opacity="0"/>
		</clipPath>
	</defs>
	<rect id="icon" width="50.000000" height="50.000000" fill="#FFFFFF" fill-opacity="0"/>
	<g clip-path="url(#clip0_557)">
		<rect id="icon bd" rx="19.000000" width="50.000000" height="50.000000" fill="#F03E3D" fill-opacity="1.000000"/>
		<path id="" d="M25.39 32.69C25.28 32.8 25.14 32.85 25 32.85C24.85 32.85 24.71 32.8 24.6 32.69L19.03 27.32C18.96 27.25 17 25.46 17 23.32C17 20.7 18.59 19.14 21.26 19.14C22.83 19.14 24.29 20.37 25 21.07C25.7 20.37 27.16 19.14 28.73 19.14C31.4 19.14 33 20.7 33 23.32C33 25.46 31.03 27.25 30.95 27.33L25.39 32.69Z" fill="#FFFFFF" fill-opacity="1.000000" fill-rule="evenodd"/>
	</g>
</svg>
