<svg width="602.000000" height="494.000000" viewBox="0 0 602 494" fill="none" xmlns="http://www.w3.org/2000/svg" xmlns:xlink="http://www.w3.org/1999/xlink">
	<desc>
			Created with Pixso.
	</desc>
	<defs/>
	<ellipse id="Oval" rx="233.500000" ry="219.000000" transform="matrix(-1 1 0 0 285.5 247)" fill="#FFE5D2" fill-opacity="1.000000"/>
	<path id="Fill 1" d="M479.4 342.69C479.5 342.63 480.13 343.46 481.06 345.09C481.99 346.72 483.14 349.2 484.22 352.39C486.42 358.75 487.81 368.14 486.99 378.38C486.17 388.62 483.81 397.6 481.99 404C480.13 410.4 478.76 414.29 478.53 414.22C478.27 414.15 479.19 410.13 480.72 403.67C482.21 397.21 484.33 388.27 485.13 378.24C485.93 368.21 484.79 359.08 482.96 352.78C481.18 346.44 479.11 342.84 479.4 342.69Z" fill="#FFFFFF" fill-opacity="1.000000" fill-rule="evenodd"/>
	<path id="Fill 3" d="M485.69 291.45C485.81 291.39 486.57 292.78 487.83 295.35C489.09 297.92 490.87 301.66 492.97 306.32C497.13 315.65 502.74 328.71 506.81 343.88C508.8 351.47 510.17 358.84 510.86 365.61C511.55 372.38 511.62 378.54 511.28 383.67C510.94 388.81 510.29 392.93 509.67 395.73C509.05 398.54 508.57 400.05 508.46 400.03C508.11 399.96 509.63 393.78 509.96 383.61C510.36 373.46 509.03 359.36 505 344.36C500.98 329.36 495.61 316.29 491.76 306.85C489.82 302.12 488.25 298.29 487.17 295.65C486.11 292.99 485.57 291.5 485.69 291.45Z" fill="#FFFFFF" fill-opacity="1.000000" fill-rule="evenodd"/>
	<path id="Fill 5" d="M252.99 351.59C253.2 351.82 251.09 353.85 248.34 357.61C247.66 358.55 246.92 359.58 246.23 360.76C245.47 361.9 244.81 363.21 244.08 364.55C242.71 367.3 241.42 370.42 240.42 373.81C239.47 377.22 238.91 380.55 238.61 383.6C238.52 385.13 238.38 386.59 238.42 387.95C238.38 389.32 238.46 390.6 238.54 391.76C238.87 396.41 239.59 399.25 239.28 399.33C239.1 399.4 237.91 396.65 237.23 391.89C237.06 390.71 236.91 389.4 236.88 387.99C236.77 386.58 236.85 385.07 236.89 383.48C237.11 380.31 237.63 376.83 238.63 373.29C239.66 369.77 241.06 366.54 242.56 363.74C243.36 362.37 244.09 361.05 244.93 359.91C245.71 358.73 246.53 357.71 247.3 356.79C250.4 353.13 252.86 351.44 252.99 351.59Z" fill="#FFFFFF" fill-opacity="1.000000" fill-rule="evenodd"/>
	<path id="Fill 7" d="M257.95 368C258.11 368.25 256.93 369.15 255.39 370.88C254.61 371.74 253.79 372.84 252.98 374.13C252.21 375.43 251.47 376.93 250.88 378.58C250.33 380.24 249.99 381.88 249.8 383.39C249.65 384.9 249.61 386.28 249.7 387.43C249.85 389.75 250.22 391.19 249.95 391.29C249.75 391.38 248.91 390.06 248.39 387.61C248.13 386.39 248.02 384.9 248.08 383.24C248.19 381.59 248.51 379.79 249.12 377.97C249.75 376.17 250.62 374.55 251.54 373.18C252.5 371.84 253.51 370.73 254.47 369.94C256.37 368.32 257.85 367.8 257.95 368Z" fill="#FFFFFF" fill-opacity="1.000000" fill-rule="evenodd"/>
	<path id="Fill 9" d="M189.01 215.1C189.11 215.02 189.94 215.84 191.37 217.42C192.1 218.19 192.96 219.17 193.87 220.38C194.79 221.58 195.9 222.91 196.93 224.51C197.47 225.3 198.03 226.12 198.62 226.98C199.19 227.85 199.72 228.8 200.3 229.76C201.5 231.66 202.57 233.81 203.73 236.05C205.94 240.59 208.04 245.75 209.71 251.34C211.34 256.95 212.37 262.42 212.98 267.44C213.22 269.95 213.48 272.34 213.51 274.59C213.54 275.71 213.61 276.79 213.59 277.84C213.57 278.88 213.54 279.88 213.52 280.83C213.52 282.74 213.31 284.46 213.19 285.97C213.08 287.48 212.89 288.77 212.7 289.82C212.35 291.92 212.09 293.07 211.96 293.05C211.64 293 212.26 288.35 212.2 280.82C212.19 279.88 212.17 278.89 212.15 277.86C212.13 276.84 212.02 275.77 211.96 274.67C211.87 272.46 211.55 270.12 211.28 267.65C210.58 262.74 209.52 257.37 207.92 251.87C206.28 246.38 204.26 241.3 202.19 236.8C201.08 234.58 200.08 232.44 198.96 230.53C198.42 229.57 197.93 228.62 197.39 227.75C196.85 226.87 196.33 226.04 195.84 225.24C191.8 218.89 188.76 215.32 189.01 215.1Z" fill="#FFFFFF" fill-opacity="1.000000" fill-rule="evenodd"/>
	<path id="Fill 11" d="M210.14 223.87C210.3 223.73 212.44 225.74 215.17 229.62C216.54 231.55 217.98 233.98 219.39 236.79C220.76 239.61 222.06 242.82 223.1 246.29C224.11 249.78 224.75 253.18 225.13 256.29C225.47 259.42 225.58 262.24 225.47 264.61C225.28 269.35 224.57 272.21 224.36 272.18C224.06 272.14 224.3 269.25 224.15 264.61C224.09 262.29 223.85 259.54 223.43 256.52C222.96 253.5 222.29 250.21 221.31 246.82C220.3 243.45 219.08 240.32 217.84 237.53C216.55 234.76 215.26 232.32 214.06 230.34C211.68 226.37 209.91 224.07 210.14 223.87Z" fill="#FFFFFF" fill-opacity="1.000000" fill-rule="evenodd"/>
	<path id="Fill 13" d="M136.15 377.07L134.53 373.74L89.31 408.41L109.04 440.48L154.05 402.4L136.15 377.07Z" fill="#FF7B5B" fill-opacity="1.000000" fill-rule="evenodd"/>
	<path id="Fill 15" d="M91.2 409.15L108.53 439.22L109.64 438.73L94.21 410.61L91.2 409.15Z" fill="#D7D4D4" fill-opacity="1.000000" fill-rule="evenodd"/>
	<path id="Fill 17" d="M135.26 376.41L91.2 409.15C91.2 409.15 91.39 409.85 92.48 410.29C93.57 410.72 94.21 410.61 94.21 410.61L140.52 378.8C140.52 378.8 137.85 378.18 136.89 377.46C135.92 376.73 135.26 376.41 135.26 376.41Z" fill="#F5F3F3" fill-opacity="1.000000" fill-rule="evenodd"/>
	<path id="Fill 19" d="M141.66 377.52L93.38 409.87L109.06 439.69L111.59 443.82L159.86 407.97C159.86 407.97 154.78 400.35 151.73 395.76C148.67 391.16 142.68 380.32 142.35 379.62C142.03 378.93 141.66 377.52 141.66 377.52Z" fill="#FF7B5B" fill-opacity="1.000000" fill-rule="evenodd"/>
	<path id="Fill 21" d="M539.78 154.16L541.15 151.37L579.12 180.48L562.55 207.4L524.75 175.43L539.78 154.16Z" fill="#775298" fill-opacity="1.000000" fill-rule="evenodd"/>
	<path id="Fill 23" d="M577.53 181.1L562.97 206.35L562.04 205.93L575 182.32L577.53 181.1Z" fill="#D7D4D4" fill-opacity="1.000000" fill-rule="evenodd"/>
	<path id="Fill 25" d="M540.53 153.61L577.53 181.1C577.53 181.1 577.37 181.69 576.45 182.05C575.53 182.42 575 182.32 575 182.32L536.11 155.62C536.11 155.62 538.35 155.09 539.16 154.48C539.98 153.87 540.53 153.61 540.53 153.61Z" fill="#F5F3F3" fill-opacity="1.000000" fill-rule="evenodd"/>
	<path id="Fill 27" d="M535.16 154.54L575.7 181.71L562.53 206.74L560.41 210.21L519.87 180.11C519.87 180.11 524.14 173.71 526.7 169.85C529.27 165.99 534.3 156.88 534.57 156.3C534.85 155.72 535.16 154.54 535.16 154.54Z" fill="#775298" fill-opacity="1.000000" fill-rule="evenodd"/>
	<path id="Fill 29" d="M82.16 101.77C82.16 101.77 79.3 103.76 80.73 107.08C82.16 110.4 88.45 120.24 96.94 119.91C97.29 119.9 86.24 101.77 86.24 101.77L82.16 101.77Z" fill="#FF7B5B" fill-opacity="1.000000" fill-rule="evenodd"/>
	<path id="Fill 31" d="M69.18 283.29C69.18 283.29 58.56 273.77 55.16 275.48C51.01 277.56 27.23 300.93 28.16 311.94C28.54 316.45 33.78 312.58 43.1 302.88C52.42 293.18 64.16 297.34 64.16 297.34L69.18 283.29Z" fill="#775298" fill-opacity="1.000000" fill-rule="evenodd"/>
	<path id="Fill 33" d="M94.97 299.34L82.15 291.62C82.15 291.62 48.93 322.88 54.12 327.04C58.06 330.2 60.37 327.37 69.69 317.67C79.02 307.97 90.83 313.54 90.83 313.54L94.97 299.34Z" fill="#775298" fill-opacity="1.000000" fill-rule="evenodd"/>
	<path id="Fill 35" d="M173.27 196.52L175.68 230.77L122.32 216.82L173.27 196.52Z" fill="#F3A683" fill-opacity="1.000000" fill-rule="evenodd"/>
	<path id="Fill 37" d="M122.32 218C122.32 218 168.99 220.95 175.21 218.87C175.21 218.87 184.33 308.77 168.1 318.47C151.87 328.17 115.44 313.97 115.44 313.97L125.28 294.57L146.48 293.18L146.48 258.54L144.96 258.88L122.32 218Z" fill="#112129" fill-opacity="1.000000" fill-rule="evenodd"/>
	<path id="Fill 39" d="M63.81 279.32C63.81 279.32 52.07 284.17 55.87 295.95C55.87 295.95 95.94 327.48 115.44 320.2C126.37 316.13 138.1 285.03 146.31 258.46L175.21 218.87C175.21 218.87 161.58 219.55 157.03 219.54C148.35 219.5 122.32 218 122.32 218C122.32 218 108.72 289.37 103.88 291.1C99.03 292.83 63.81 279.32 63.81 279.32Z" fill="#22343D" fill-opacity="1.000000" fill-rule="evenodd"/>
	<path id="Fill 41" d="M133.19 128.48C133.19 128.48 161.17 102.15 166 95.22C170.83 88.29 181.19 65.08 193.97 55.38L187.75 42.21C187.75 42.21 191.55 40.13 193.97 45.68C193.97 45.68 202.95 27.66 205.02 28.01C207.09 28.35 200.88 41.87 200.88 41.87C200.88 41.87 209.51 29.39 211.93 29.74C214.34 30.09 205.71 43.76 205.71 43.76C205.71 43.76 215.38 32.51 216.76 33.9C218.14 35.28 209.16 43.76 209.16 43.76C209.16 43.76 218.83 38.19 219.87 40.03C220.9 41.87 210.2 46.72 210.2 46.72C210.2 46.72 209.16 54.68 202.6 58.15C202.6 58.15 189.61 93.36 177.87 104.79L140.16 144.12L133.19 128.48Z" fill="#FFC6B2" fill-opacity="1.000000" fill-rule="evenodd"/>
	<path id="Fill 43" d="M99.8 142.13C99.8 142.13 73.3 169.95 66.35 174.73C59.4 179.51 36.17 189.69 26.38 202.42L13.32 196.06C13.32 196.06 11.21 199.85 16.71 202.33C16.71 202.33 -1.33 211.17 -1 213.25C-0.68 215.33 12.85 209.22 12.85 209.22C12.85 209.22 0.34 217.77 0.66 220.2C0.98 222.62 14.69 214.09 14.69 214.09C14.69 214.09 3.39 223.68 4.76 225.08C6.13 226.48 14.66 217.56 14.66 217.56C14.66 217.56 9.02 227.2 10.84 228.26C12.66 229.31 17.6 218.62 17.6 218.62C17.6 218.62 25.55 217.66 29.06 211.11C29.06 211.11 62.3 197.84 73.81 186.16L115.18 156.75L99.8 142.13Z" fill="#FFC6B2" fill-opacity="1.000000" fill-rule="evenodd"/>
	<path id="Fill 45" d="M109.74 131.04L96.34 144.21L99.73 159.05C99.73 159.05 112.94 190.86 114.94 198.62C118.04 210.69 113.02 229.09 113.02 229.09C113.02 229.09 135.41 227.22 155.78 226.53C176.15 225.84 182.82 219.25 182.82 219.25C182.82 219.25 165.15 160.23 152.96 143.73C140.76 127.24 136.33 122.07 136.33 122.07L118.37 126.01L109.74 131.04Z" fill="#FFFFFF" fill-opacity="1.000000" fill-rule="evenodd"/>
	<path id="Fill 47" d="M149.08 141.79L163.05 132.83C163.05 132.83 165.18 123.24 148.34 111.93L128.59 124.34L149.08 141.79Z" fill="#FFFFFF" fill-opacity="1.000000" fill-rule="evenodd"/>
	<path id="Fill 49" d="M99.16 143.17C91.5 144.25 77.51 163.72 75.95 163.68C75.95 163.68 85.8 179.8 93.6 180.33C93.6 180.33 127.93 139.12 99.16 143.17Z" fill="#FFFFFF" fill-opacity="1.000000" fill-rule="evenodd"/>
	<path id="Fill 51" d="M126.19 130.5C126.19 130.5 115.06 122.15 115.45 118.83C115.54 117.99 117.09 116.63 117.49 115.42C119.64 108.93 109.24 92.19 102.85 88.66C97.82 85.89 100.02 85.64 89.44 91.95C78.85 98.26 84.88 109.18 89.61 114.82C94.08 120.15 99.2 122.44 103.8 122.83L110.35 137.41L126.19 130.5Z" fill="#FFC6B2" fill-opacity="1.000000" fill-rule="evenodd"/>
	<path id="Fill 53" d="M106.11 142.08C104 136.9 107.99 130.37 115.01 127.5C122.04 124.62 129.43 126.49 131.54 131.67C133.65 136.85 126.58 144.64 122.63 146.25C118.69 147.87 108.21 147.26 106.11 142.08Z" fill="#FFC6B2" fill-opacity="1.000000" fill-rule="evenodd"/>
	<path id="Fill 55" d="M89.61 114.82C89.61 114.82 86 114.62 85.6 117.03C85.2 119.45 92.22 119.45 94.83 117.64L89.61 114.82Z" fill="#FFC6B2" fill-opacity="1.000000" fill-rule="evenodd"/>
	<path id="Fill 57" d="M91.42 117.03C90.73 112.67 86.1 109.43 86.33 105.18C88.55 105.2 89.98 102.44 88.97 100.08C88.57 99.15 87.89 98.36 87.46 97.44C87.03 96.53 86.92 95.33 87.58 94.82C87.89 94.57 88.31 94.53 88.72 94.49C92.01 94.15 97.65 95.14 100.68 94.01C103.57 92.94 106.66 90.86 106.36 87.31C106.09 84.22 103.38 81.72 100.88 79.83C99.45 78.74 95.36 75.91 93.82 76.17C91.47 76.56 90.9 79.71 90.73 82.35C89.08 80.77 86.65 81.02 85.22 82.3C83.79 83.58 83.11 85.62 82.49 87.58C81.86 89.54 81.2 91.58 79.79 92.89C78.48 94.1 76.39 95.02 76.67 97.09C76.99 99.55 80.2 100.43 81.68 102.53C81.32 102.01 81.01 105.3 81.22 105.86C81.85 107.54 83.43 108.65 84.57 109.94C87 112.68 88.19 115.43 91.42 117.03Z" fill="#FF7B5B" fill-opacity="1.000000" fill-rule="evenodd"/>
	<path id="Fill 59" d="M111.58 107.06L103.36 111.33C103.36 111.33 113.24 118.52 111.58 107.06Z" fill="#FFFFFF" fill-opacity="1.000000" fill-rule="evenodd"/>
	<path id="Fill 61" d="M100.27 108.75C100.72 109.61 100.05 110.84 98.78 111.51C97.51 112.19 96.12 112.04 95.67 111.18C95.22 110.32 95.88 109.09 97.15 108.42C98.43 107.75 99.82 107.9 100.27 108.75Z" fill="#FFB2A0" fill-opacity="1.000000" fill-rule="evenodd"/>
	<path id="Fill 63" d="M112.28 100.52C112.73 101.38 112.06 102.61 110.79 103.28C109.52 103.95 108.13 103.8 107.68 102.95C107.23 102.09 107.89 100.86 109.16 100.19C110.44 99.51 111.83 99.66 112.28 100.52Z" fill="#FFB2A0" fill-opacity="1.000000" fill-rule="evenodd"/>
	<path id="Fill 65" d="M105.84 106.76C105.8 106.71 105.96 106.51 106.31 106.25C106.65 105.99 107.24 105.7 107.68 105.23C108.12 104.77 108.27 103.81 107.61 103.68C106.92 103.44 106.13 104.24 105.23 104.99C105.01 105.18 104.79 105.36 104.57 105.54C104.37 105.73 103.94 106.01 103.49 105.95C102.64 105.81 102.28 105.24 101.95 104.86C101.3 104.02 100.9 103.15 100.68 102.39C100.24 100.85 100.43 99.86 100.54 99.86C100.69 99.86 100.74 100.81 101.3 102.16C101.58 102.83 102 103.6 102.62 104.32C102.92 104.68 103.3 105.02 103.57 105.04C103.68 105.04 103.77 105 103.98 104.82C104.19 104.64 104.41 104.46 104.63 104.27C105.08 103.91 105.48 103.53 106 103.19C106.5 102.85 107.22 102.63 107.86 102.85C108.55 103.03 108.95 103.84 108.83 104.4C108.76 104.96 108.47 105.38 108.15 105.69C107.48 106.26 106.87 106.4 106.49 106.57C106.1 106.72 105.88 106.81 105.84 106.76Z" fill="#FF7B5B" fill-opacity="1.000000" fill-rule="evenodd"/>
	<path id="Fill 67" d="M103.8 122.83C103.8 122.83 109.05 122.86 111.89 121.1C111.89 121.1 109.49 124.06 104.67 124.83L103.8 122.83Z" fill="#FFA192" fill-opacity="1.000000" fill-rule="evenodd"/>
	<path id="Fill 69" d="M106.08 99.22C106.03 99.48 105.3 99.56 104.52 99.9C103.73 100.22 103.17 100.7 102.95 100.55C102.72 100.43 103.09 99.49 104.16 99.04C105.22 98.59 106.15 98.97 106.08 99.22Z" fill="#22343D" fill-opacity="1.000000" fill-rule="evenodd"/>
	<path id="Fill 71" d="M95.79 105.99C95.6 105.84 95.91 104.99 96.66 104.14C97.43 103.28 98.4 102.99 98.51 103.23C98.62 103.47 98.02 104.01 97.35 104.78C96.67 105.54 96.01 106.15 95.79 105.99Z" fill="#22343D" fill-opacity="1.000000" fill-rule="evenodd"/>
	<path id="Fill 73" d="M91.81 104.68C91.38 104.36 91.05 103.01 92.68 101.19C94.32 99.32 96.16 99.65 96.38 100.17C96.61 100.68 96 101.4 94.56 103.04C93.1 104.67 92.27 105.02 91.81 104.68Z" fill="#FF7B5B" fill-opacity="1.000000" fill-rule="evenodd"/>
	<path id="Fill 75" d="M100.45 97.5C100.21 97.05 100.47 95.77 102.59 94.87C104.73 93.95 106.16 94.97 106.14 95.5C106.14 96.03 105.33 96.4 103.44 97.21C101.55 98.01 100.7 97.98 100.45 97.5Z" fill="#FF7B5B" fill-opacity="1.000000" fill-rule="evenodd"/>
	<path id="Fill 77" d="M551.76 110.28C551.9 110.42 549.62 112.99 544.89 115.79C540.22 118.59 532.87 121.36 524.42 121.43C515.97 121.49 508.58 118.82 503.87 116.09C499.1 113.36 496.78 110.82 496.92 110.68C497.11 110.43 499.71 112.58 504.48 114.92C509.21 117.28 516.34 119.61 524.4 119.55C532.48 119.49 539.57 117.05 544.26 114.63C549 112.21 551.56 110.03 551.76 110.28Z" fill="#775298" fill-opacity="1.000000" fill-rule="evenodd"/>
	<path id="Fill 79" d="M500.19 106.39C500.06 106.68 497.54 105.63 493.29 104.68C491.17 104.17 488.6 103.79 485.74 103.43C482.86 103.11 479.69 102.86 476.33 102.62C472.98 102.38 469.77 102.11 466.85 101.75C463.93 101.36 461.31 100.9 459.15 100.31C454.81 99.18 452.36 97.83 452.45 97.64C452.56 97.36 455.14 98.24 459.43 99.02C461.57 99.43 464.16 99.74 467.04 100.03C469.92 100.3 473.11 100.51 476.47 100.75C479.83 100.99 483.05 101.3 485.96 101.72C488.87 102.18 491.49 102.71 493.63 103.39C497.92 104.71 500.29 106.21 500.19 106.39Z" fill="#775298" fill-opacity="1.000000" fill-rule="evenodd"/>
	<mask id="mask0_618" mask-type="alpha" maskUnits="userSpaceOnUse" x="432.031738" y="34.206055" width="169.324585" height="83.235107">
		<path id="Clip 82" d="M432.03 34.2L601.35 34.2L601.35 117.44L432.03 117.44L432.03 34.2Z" fill="#000000" fill-opacity="1.000000" fill-rule="evenodd"/>
	</mask>
	<g mask="url(#mask0_618)">
		<path id="Fill 81" d="M449.06 51.06C457.12 49.34 465.47 50.82 473.59 52.18C481.72 53.54 490.16 54.76 498.1 52.58C512.45 48.63 523.34 34.08 538.21 34.2C544.34 34.25 550.11 36.87 556.08 38.26C563.49 39.99 571.21 39.8 578.71 41.03C586.22 42.26 593.97 45.29 598.22 51.63C603.25 59.14 601.87 69.75 596.59 77.09C591.31 84.44 582.85 88.91 574.18 91.45C568.14 93.21 561.7 94.24 556.47 97.75C551.17 101.31 547.72 107.04 542.79 111.08C530.42 121.23 511.17 118.32 498.39 108.69C495.18 106.28 492.2 103.47 488.59 101.7C473.92 94.49 452.82 104.03 440.19 90.92C427.35 77.61 429.18 55.29 449.06 51.06Z" fill="#775298" fill-opacity="1.000000" fill-rule="evenodd"/>
	</g>
	<path id="Fill 84" d="M445.03 308.91C445.03 308.91 458.47 337.82 460.05 332.47C461.62 327.11 461.1 314.26 460.26 312.42C459.41 310.59 453.91 302.48 453.91 302.48L445.03 308.91Z" fill="#FFB2A0" fill-opacity="1.000000" fill-rule="evenodd"/>
	<path id="Fill 86" d="M542.23 75.15C543.48 76.75 542.65 75.03 544.06 77.33C549.91 77.13 553.84 72.16 553.84 72.16C553.84 72.16 563.13 72.41 563.02 70.74C562.92 69.07 554.11 69.7 554.11 69.7C554.11 69.7 563.42 66.76 562.91 65.3C562.4 63.83 551.66 68.5 551.66 68.5C551.66 68.5 562.5 61.75 560.9 60.66C559.3 59.58 548.86 65.48 548.86 65.48C548.86 65.48 557.93 58.01 556.57 57.04C555.22 56.08 542.64 65.81 542.64 65.81C542.82 61.02 539.4 61.19 539.4 61.19L539.54 72.87C539.54 72.87 541.66 74.41 542.23 75.15Z" fill="#FFC6B2" fill-opacity="1.000000" fill-rule="evenodd"/>
	<path id="Fill 88" d="M404.52 22.26C402.53 22.63 404.07 21.94 401.49 22.73C397.25 18.67 397.81 12.3 397.81 12.3C397.81 12.3 390.71 6.3 391.88 5.12C393.07 3.95 399.24 10.27 399.24 10.27C399.24 10.27 394.22 1.88 395.57 1.12C396.92 0.37 401.87 11.02 401.87 11.02C401.87 11.02 398.22 -1.26 400.14 -1C402.05 -0.74 405.96 10.62 405.96 10.62C405.96 10.62 404.12 -1.01 405.77 -0.83C407.42 -0.65 410.39 15.01 410.39 15.01C413.42 11.31 415.87 13.71 415.87 13.71L408.19 22.18C408.19 22.18 405.43 22.1 404.52 22.26Z" fill="#FFC6B2" fill-opacity="1.000000" fill-rule="evenodd"/>
	<path id="Fill 90" d="M452.74 71.07C450.17 70.65 443.95 74.79 440.84 81.55C439.1 85.33 437.9 89.17 439.9 95.32C440.84 98.21 442.81 98.58 443.25 99.87C443.81 101.51 441.97 106.68 441.97 106.68L449.31 109.66C449.78 106.1 450.32 102.53 453.93 100.99C455.28 100.41 456.73 100.04 458 99.31C461.44 97.33 463.27 93.01 464.69 89.47C465.74 86.82 459.19 72.13 452.74 71.07Z" fill="#FFC6B2" fill-opacity="1.000000" fill-rule="evenodd"/>
	<path id="Fill 92" d="M444.01 171.47L431.71 166.53C431.71 166.53 395.23 234.41 395.38 253.24C395.53 272.07 445.49 309.78 445.49 309.78L453.91 302.48C453.91 302.48 438.49 275.49 430.24 265.98C422 256.46 444.01 171.47 444.01 171.47Z" fill="#FFB2A0" fill-opacity="1.000000" fill-rule="evenodd"/>
	<path id="Fill 94" d="M505.04 248.8C505.04 248.8 532.14 235.9 526.7 234.77C521.25 233.63 508.52 235.19 506.76 236.19C505.01 237.18 497.4 243.33 497.4 243.33L505.04 248.8Z" fill="#FFC6B2" fill-opacity="1.000000" fill-rule="evenodd"/>
	<path id="Fill 96" d="M456.08 170.89L437.43 177.69C437.43 177.69 418.78 260.02 425.9 272.94C433.02 285.87 453.02 277.32 481.5 261.72L505.36 248.65L497.4 243.33C497.4 243.33 469.63 248.79 461.84 254.23C461.84 254.23 465.91 242.67 471.33 226.34C476.76 210.01 480.5 193.34 456.08 170.89Z" fill="#FFC6B2" fill-opacity="1.000000" fill-rule="evenodd"/>
	<path id="Fill 98" d="M433.13 114.8C433.13 109.33 434.88 105.37 440.33 105.37C445.78 105.37 453.32 107.29 453.32 112.76C453.32 118.24 449.02 127.12 443.57 127.12C438.12 127.12 433.13 120.27 433.13 114.8Z" fill="#FFC6B2" fill-opacity="1.000000" fill-rule="evenodd"/>
	<path id="Fill 100" d="M437.43 104.59C437.43 104.59 420.48 86.18 417.09 68.15C413.7 50.12 407.93 20.87 407.93 20.87L401.49 22.73C401.49 22.73 398.44 62.71 401.49 68.83C404.54 74.96 419.45 115.72 423.99 126.43L437.43 104.59Z" fill="#FFC6B2" fill-opacity="1.000000" fill-rule="evenodd"/>
	<path id="Fill 102" d="M455.64 118.94C455.64 118.94 456.95 113.21 478.38 105.43C499.82 97.65 540.26 72.43 540.26 72.43L544.3 77.06C544.3 77.06 522.32 102.52 509.54 106.99C496.75 111.46 469.6 129.07 466.81 130.48C462.58 132.61 462.63 135.3 455.64 118.94Z" fill="#FFC6B2" fill-opacity="1.000000" fill-rule="evenodd"/>
	<path id="Fill 104" d="M437.43 104.59C437.43 104.59 420.21 110.19 420.21 136.49C420.21 136.49 420.22 172.5 424.28 179.05C424.28 179.05 430.88 180.75 439.1 179.05C447.73 177.27 456.08 170.89 456.08 170.89L469.63 130.08L468.01 110.96L449.59 107.39C449.59 107.39 454.87 132.16 435.75 121.51C432.04 119.44 441.22 105.39 441.22 105.39L437.43 104.59Z" fill="#22343D" fill-opacity="1.000000" fill-rule="evenodd"/>
	<path id="Fill 106" d="M422.86 125.98L414.37 108.24C414.37 108.24 415.59 97.47 431.17 93.62C431.17 93.62 432.74 99.04 434.47 101.12C436.2 103.19 441.22 105.39 441.22 105.39L422.86 125.98Z" fill="#22343D" fill-opacity="1.000000" fill-rule="evenodd"/>
	<path id="Fill 108" d="M454.94 133.11L481.93 127.56C481.93 127.56 486.62 117.8 475.5 106.2C475.5 106.2 454.45 107.48 451.72 107.7C449.04 107.93 450.88 110 450.88 110L454.94 133.11Z" fill="#22343D" fill-opacity="1.000000" fill-rule="evenodd"/>
	<path id="Fill 110" d="M424.23 170.28C424.23 170.28 398.71 217.63 394.49 226.09C394.49 226.09 469.8 260.8 500.37 219.02C500.37 219.02 482.98 182.09 456.1 168.03L444.5 164.55L424.69 170.05L424.23 170.28Z" fill="#22343D" fill-opacity="1.000000" fill-rule="evenodd"/>
	<path id="Fill 112" d="M463.7 89.02C463.7 89.02 466.61 86.1 468.39 88.12C470.18 90.14 461.91 93.06 461.91 93.06L463.7 89.02Z" fill="#FFC6B2" fill-opacity="1.000000" fill-rule="evenodd"/>
	<path id="Fill 114" d="M516.88 49.23C516.91 49.33 515.79 49.82 513.64 50.33C511.51 50.85 508.33 51.32 504.39 51.4C500.45 51.48 495.76 51.12 490.64 50.43C485.5 49.74 479.93 48.74 474.06 48.1C468.21 47.47 462.58 47.36 457.59 48.16C452.6 48.96 448.28 50.6 444.98 52.51C441.68 54.44 439.39 56.58 437.98 58.2C436.56 59.82 435.92 60.86 435.78 60.77C435.7 60.73 436.12 59.57 437.41 57.75C438.68 55.94 440.94 53.54 444.3 51.38C447.66 49.23 452.12 47.39 457.3 46.46C462.5 45.52 468.3 45.6 474.26 46.24C480.22 46.89 485.81 47.95 490.88 48.72C495.95 49.5 500.53 49.98 504.39 50.07C512.13 50.29 516.81 48.91 516.88 49.23Z" fill="#775298" fill-opacity="1.000000" fill-rule="evenodd"/>
	<path id="Fill 116" d="M448.89 87.36C448.88 87.48 448.05 87.56 446.79 87.14C446.48 87.03 446.11 86.88 445.76 86.57C445.59 86.41 445.44 86.2 445.34 85.95C445.2 85.59 445.21 85.19 445.35 84.89C445.39 84.83 445.39 84.68 445.47 84.68L445.71 84.67C445.87 84.65 446.06 84.7 446.24 84.73C446.57 84.8 446.68 84.79 446.92 84.8C447.34 84.81 447.77 84.77 448.2 84.68C449.96 84.3 451.15 83.01 451.68 81.95C452.23 80.89 452.28 80.08 452.43 80.09C452.53 80.08 452.74 80.93 452.28 82.22C452.05 82.85 451.64 83.57 450.98 84.21C450.33 84.84 449.43 85.36 448.4 85.59C447.89 85.7 447.38 85.75 446.88 85.72C446.67 85.71 446.33 85.67 446.23 85.64C446.14 85.63 446.15 85.61 446.13 85.62C446.12 85.63 446.11 85.65 446.11 85.67C446.15 85.8 446.22 85.91 446.31 86.02C446.5 86.23 446.77 86.39 447.04 86.53C448.14 87.06 448.91 87.22 448.89 87.36Z" fill="#FF7B5B" fill-opacity="1.000000" fill-rule="evenodd"/>
	<path id="Fill 118" d="M442.84 87.68L452.78 91.61C452.78 91.61 444.04 97.65 442.84 87.68Z" fill="#FFFFFF" fill-opacity="1.000000" fill-rule="evenodd"/>
	<path id="Fill 120" d="M457.02 89.57C456.67 90.24 455.58 90.36 454.58 89.83C453.58 89.31 453.06 88.33 453.41 87.66C453.76 86.99 454.86 86.87 455.86 87.4C456.85 87.93 457.38 88.9 457.02 89.57Z" fill="#FFB2A0" fill-opacity="1.000000" fill-rule="evenodd"/>
	<path id="Fill 122" d="M445.93 83.67C445.63 84.37 444.54 84.57 443.51 84.12C442.47 83.67 441.88 82.74 442.18 82.04C442.48 81.34 443.56 81.14 444.6 81.59C445.63 82.04 446.23 82.97 445.93 83.67Z" fill="#FFB2A0" fill-opacity="1.000000" fill-rule="evenodd"/>
	<path id="Fill 124" d="M442.25 98.62C442.25 98.62 445.73 101.55 449.37 100.6C449.37 100.6 448.11 102.49 443.29 101.8C443.29 101.8 443.69 99.72 442.25 98.62Z" fill="#FFA192" fill-opacity="1.000000" fill-rule="evenodd"/>
	<path id="Fill 126" d="M456.07 83.31C456.07 83.74 455.72 84.1 455.28 84.1C454.85 84.1 454.49 83.74 454.49 83.31C454.49 82.87 454.85 82.52 455.28 82.52C455.72 82.52 456.07 82.87 456.07 83.31Z" fill="#22343D" fill-opacity="1.000000" fill-rule="evenodd"/>
	<path id="Fill 128" d="M449.62 80.98C449.62 81.41 449.27 81.77 448.84 81.77C448.4 81.77 448.05 81.41 448.05 80.98C448.05 80.54 448.4 80.19 448.84 80.19C449.27 80.19 449.62 80.54 449.62 80.98Z" fill="#22343D" fill-opacity="1.000000" fill-rule="evenodd"/>
	<path id="Fill 130" d="M458.6 81.2C458.36 81.3 457.89 80.73 457.18 80.27C456.48 79.79 455.77 79.57 455.77 79.31C455.75 79.05 456.74 78.85 457.69 79.49C458.65 80.13 458.84 81.12 458.6 81.2Z" fill="#775298" fill-opacity="1.000000" fill-rule="evenodd"/>
	<path id="Fill 132" d="M447.24 77.37C447.22 77.12 448.07 76.81 449.2 76.84C450.36 76.86 451.21 77.42 451.09 77.66C450.98 77.9 450.18 77.79 449.17 77.78C448.15 77.75 447.26 77.63 447.24 77.37Z" fill="#775298" fill-opacity="1.000000" fill-rule="evenodd"/>
	<path id="Fill 134" d="M450.79 320.66C450.79 320.66 454.93 335.39 459.2 334.18C463.47 332.97 460.25 312.42 460.25 312.42L455.99 305.67C455.99 305.67 460 340.07 450.79 320.66Z" fill="#22343D" fill-opacity="1.000000" fill-rule="evenodd"/>
	<path id="Fill 136" d="M502.94 239.01C502.94 239.01 505.94 235.72 509.59 235.17C513.24 234.62 526.27 233.07 528.18 234.8C530.09 236.54 517.62 242.37 517.62 242.37C517.62 242.37 521.96 239.59 520.16 238.55C516.97 236.72 502.94 239.01 502.94 239.01Z" fill="#22343D" fill-opacity="1.000000" fill-rule="evenodd"/>
	<path id="Fill 138" d="M497.77 242.95L501.85 251.26L504.07 250.02L498.63 241.84L497.77 242.95Z" fill="#22343D" fill-opacity="1.000000" fill-rule="evenodd"/>
	<path id="Fill 140" d="M452.15 299.14L442.13 308.2L445.1 310.68L453.51 301.5L452.15 299.14Z" fill="#22343D" fill-opacity="1.000000" fill-rule="evenodd"/>
	<path id="Fill 142" d="M242.77 208.99C239.93 201.9 238.83 194 234.58 187.66C228.47 178.53 216.72 174 211.76 164.18C209.65 160.02 208.99 155.25 208.97 150.58C208.93 141.33 211.68 131.51 218.8 125.63C226.98 118.88 239.25 118.98 248.82 123.51C258.4 128.05 265.71 136.28 271.93 144.88C278.16 153.47 283.6 162.7 290.85 170.45C296.22 176.19 302.59 181.15 306.63 187.9C317.73 206.4 306.31 229.81 286.73 236.49C269.53 242.35 248.73 223.81 242.77 208.99Z" fill="#22343D" fill-opacity="1.000000" fill-rule="evenodd"/>
	<path id="Fill 144" d="M218.26 339.49C219.96 340.89 218.11 339.92 220.58 341.54C220.03 347.75 214.31 351.66 214.31 351.66C214.31 351.66 214.07 361.55 212.23 361.34C210.38 361.14 211.56 351.82 211.56 351.82C211.56 351.82 207.79 361.56 206.2 360.94C204.61 360.32 210.38 349.15 210.38 349.15C210.38 349.15 202.29 360.32 201.18 358.56C200.07 356.8 207.19 346.02 207.19 346.02C207.19 346.02 198.4 355.26 197.41 353.77C196.42 352.28 207.89 339.42 207.89 339.42C202.58 339.36 202.96 335.74 202.96 335.74L215.89 336.51C215.89 336.51 217.48 338.84 218.26 339.49Z" fill="#FFC6B2" fill-opacity="1.000000" fill-rule="evenodd"/>
	<path id="Fill 146" d="M341.86 153.04C344.07 153.43 342.35 152.69 345.22 153.53C349.94 149.23 349.32 142.48 349.32 142.48C349.32 142.48 357.23 136.11 355.92 134.86C354.6 133.62 347.73 140.33 347.73 140.33C347.73 140.33 353.32 131.42 351.81 130.62C350.32 129.82 344.81 141.12 344.81 141.12C344.81 141.12 348.86 128.1 346.73 128.37C344.6 128.64 340.26 140.69 340.26 140.69C340.26 140.69 342.3 128.36 340.46 128.55C338.62 128.75 335.65 144.9 335.65 144.9C331.32 141.36 328.28 143.63 328.28 143.63L337.77 152.96C337.77 152.96 340.84 152.86 341.86 153.04Z" fill="#FFC6B2" fill-opacity="1.000000" fill-rule="evenodd"/>
	<path id="Fill 148" d="M287.69 207.03C291.7 206.4 303.9 214.34 300.8 230.46C300.54 231.81 298.78 234.79 298.34 236.02C297.78 237.58 302.1 243.29 302.1 243.29L290.95 246.86C290.48 243.49 291.28 238.55 287.68 237.08C286.33 236.53 284.89 236.19 283.62 235.49C280.18 233.61 278.35 229.49 276.94 226.13C275.89 223.61 275.09 220.9 275.12 218.17C275.19 211.3 281.26 208.04 287.69 207.03Z" fill="#FFC6B2" fill-opacity="1.000000" fill-rule="evenodd"/>
	<path id="Fill 150" d="M310.01 251.17C310.01 245.37 308.18 243.15 302.11 243.15C296.04 243.15 288.03 245.37 288.03 251.17C288.03 256.97 292.32 264.23 298.39 264.23C304.46 264.23 310.01 256.97 310.01 251.17Z" fill="#FFC6B2" fill-opacity="1.000000" fill-rule="evenodd"/>
	<path id="Fill 152" d="M305.22 240.34C305.22 240.34 324.09 220.82 327.87 201.7C331.64 182.58 338.05 151.56 338.05 151.56L345.22 153.53C345.22 153.53 348.62 195.93 345.22 202.43C341.83 208.92 322.58 254.01 322.96 265.56L305.22 240.34Z" fill="#FFC6B2" fill-opacity="1.000000" fill-rule="evenodd"/>
	<path id="Fill 154" d="M271.59 249.79C271.59 249.79 265.17 250.87 255.36 273.24C245.55 295.61 215.36 337.25 215.36 337.25L220.26 341.78C220.26 341.78 249.7 319.78 255.36 306.43C261.02 293.08 268.19 276.49 271.59 277.21C274.98 277.93 289.32 258.09 271.59 249.79Z" fill="#FFC6B2" fill-opacity="1.000000" fill-rule="evenodd"/>
	<path id="Fill 156" d="M322.1 268.54L330.89 244.21C330.89 244.21 329.53 232.8 312.19 228.71L302.37 242.91L322.1 268.54Z" fill="#FF7B5B" fill-opacity="1.000000" fill-rule="evenodd"/>
	<path id="Fill 158" d="M274.52 247.93C274.52 247.93 264.15 248.8 255.75 267.32C255.75 267.32 264.99 280.11 271.75 280.55C271.75 280.55 296.85 259.02 274.52 247.93Z" fill="#FF7B5B" fill-opacity="1.000000" fill-rule="evenodd"/>
	<path id="Fill 160" d="M303 467.48C303 467.48 288.03 498.14 286.29 492.46C284.54 486.79 285.12 473.15 286.05 471.2C286.99 469.26 293.11 460.66 293.11 460.66L303 467.48Z" fill="#FFC6B2" fill-opacity="1.000000" fill-rule="evenodd"/>
	<path id="Fill 162" d="M304.14 321.74L317.82 316.49C317.82 316.49 358.43 388.48 358.26 408.45C358.09 428.42 302.49 468.41 302.49 468.41L293.11 460.66C293.11 460.66 319.47 421.78 328.64 411.69C333.23 406.65 300.38 381.92 295.4 358.13C290.43 334.34 304.14 321.74 304.14 321.74Z" fill="#654287" fill-opacity="1.000000" fill-rule="evenodd"/>
	<path id="Fill 164" d="M221.87 451.42C221.87 451.42 193.88 472.12 195.05 466.31C196.22 460.5 203.26 448.63 205.03 447.31C206.8 446 216.35 441.03 216.35 441.03L221.87 451.42Z" fill="#FFC6B2" fill-opacity="1.000000" fill-rule="evenodd"/>
	<path id="Fill 166" d="M266.91 347.23L307.4 323.69C307.4 323.69 309 405.46 299.28 423.14C289.57 440.82 220.98 452.02 220.98 452.02L216.35 441.03C216.35 441.03 258.67 415.73 271.66 410.78C284.65 405.83 266.91 347.23 266.91 347.23Z" fill="#775298" fill-opacity="1.000000" fill-rule="evenodd"/>
	<path id="Fill 168" d="M291.02 307.59C291.02 307.59 261.22 318.18 266.91 347.23C272.61 376.29 282.11 381.73 282.11 381.73L299.2 353.59L316.37 316.73L299.2 314.55L291.02 307.59Z" fill="#775298" fill-opacity="1.000000" fill-rule="evenodd"/>
	<path id="Fill 170" d="M305.22 240.34C305.22 240.34 327.17 252.68 327.17 280.57C327.17 280.57 324.38 312.35 319.86 319.3C319.86 319.3 312.52 321.1 303.36 319.3C293.76 317.41 284.47 310.64 284.47 310.64L276.97 271.72L271.13 249L274.29 247.95L290.8 246.13C290.8 246.13 288.43 270.87 306.86 258.59C310.74 256 302.03 243.1 302.03 243.1L305.22 240.34Z" fill="#FF7B5B" fill-opacity="1.000000" fill-rule="evenodd"/>
	<path id="Fill 172" d="M318.66 134.97L364.67 161.91L390.55 112.85L347.41 88.81L318.66 134.97Z" fill="#FFFFFF" fill-opacity="1.000000" fill-rule="evenodd"/>
	<path id="Fill 174" d="M382.67 369.78L415.57 349.34L388.39 301.73L358.3 321.3L382.67 369.78Z" fill="#FFFFFF" fill-opacity="1.000000" fill-rule="evenodd"/>
	<path id="Fill 176" d="M220.64 166.89C220.72 166.81 221.74 167.73 223.35 169.62C224.95 171.51 227.13 174.38 229.32 178.26C231.52 182.12 233.69 187.02 235.25 192.71C236.85 198.36 237.93 204.7 240.4 210.82C241.69 213.84 243.24 216.65 245.09 219.13C246.96 221.6 249.03 223.77 251.16 225.66C255.52 229.34 260.09 231.87 264.15 233.33C268.22 234.81 271.7 235.48 274.12 235.72C276.54 235.98 277.9 236.02 277.9 236.18C277.91 236.28 276.55 236.49 274.07 236.44C271.58 236.42 267.97 235.95 263.72 234.58C259.46 233.23 254.65 230.74 250.06 226.98C247.8 225.04 245.61 222.81 243.63 220.24C241.67 217.65 240.02 214.69 238.68 211.53C236.1 205.14 235.08 198.74 233.59 193.16C232.16 187.58 230.17 182.77 228.16 178.9C226.16 175.01 224.18 172.07 222.77 170.07C221.36 168.07 220.53 166.98 220.64 166.89Z" fill="#22343D" fill-opacity="1.000000" fill-rule="evenodd"/>
	<path id="Fill 178" d="M277.17 135.38C277.51 135.33 277.83 139.87 280.37 146.59C281.63 149.94 283.52 153.79 286.22 157.66C287.57 159.59 289.13 161.49 290.89 163.39C292.63 165.3 294.54 167.23 296.34 169.41C299.95 173.79 302.43 178.53 304.77 182.71C307.09 186.93 308.94 190.95 309.88 194.54C310.86 198.13 310.91 201.21 310.6 203.25C310.28 205.31 309.77 206.35 309.68 206.32C309.52 206.28 309.79 205.18 309.88 203.19C309.96 201.2 309.71 198.3 308.61 194.92C307.55 191.52 305.65 187.69 303.27 183.55C300.85 179.42 298.35 174.78 294.9 170.6C293.17 168.51 291.29 166.58 289.54 164.63C287.77 162.68 286.16 160.66 284.8 158.63C282.08 154.58 280.26 150.53 279.13 147.04C277.96 143.54 277.47 140.59 277.23 138.56C277 136.53 277.06 135.39 277.17 135.38Z" fill="#22343D" fill-opacity="1.000000" fill-rule="evenodd"/>
	<path id="Fill 180" d="M291.27 224.55C291.26 224.42 292.01 224.3 292.71 223.46C292.88 223.27 293.04 222.99 293.04 222.83C293.03 222.65 292.91 222.35 292.7 222.17C292.48 221.97 292.24 221.88 291.92 221.91C291.59 221.94 291.18 222.1 290.66 222.18C289.5 222.33 288.6 221.68 288.01 221.15C287.4 220.59 286.94 220.03 286.59 219.52C285.9 218.5 285.69 217.76 285.79 217.71C285.91 217.64 286.33 218.25 287.11 219.11C287.5 219.53 287.99 220.02 288.57 220.49C289.14 220.95 289.83 221.36 290.53 221.25C290.9 221.21 291.33 221.03 291.85 221C292.39 220.94 292.98 221.19 293.31 221.56C293.65 221.94 293.85 222.38 293.81 222.9C293.7 223.44 293.42 223.69 293.19 223.92C292.17 224.82 291.24 224.67 291.27 224.55Z" fill="#FF7B5B" fill-opacity="1.000000" fill-rule="evenodd"/>
	<path id="Fill 182" d="M296.71 225.32L287.87 228.54C287.87 228.54 295.37 235.12 296.71 225.32Z" fill="#FFFFFF" fill-opacity="1.000000" fill-rule="evenodd"/>
	<path id="Fill 184" d="M286.99 224.77C287.35 225.44 286.82 226.41 285.82 226.94C284.83 227.47 283.73 227.35 283.38 226.68C283.03 226.01 283.55 225.03 284.55 224.5C285.54 223.98 286.64 224.09 286.99 224.77Z" fill="#FFB2A0" fill-opacity="1.000000" fill-rule="evenodd"/>
	<path id="Fill 186" d="M297.47 219.38C297.76 220.08 297.15 221 296.1 221.43C295.06 221.86 293.98 221.65 293.69 220.94C293.4 220.24 294.01 219.32 295.06 218.89C296.1 218.46 297.18 218.67 297.47 219.38Z" fill="#FFB2A0" fill-opacity="1.000000" fill-rule="evenodd"/>
	<path id="Fill 188" d="M288.14 237.32C288.14 237.32 291.09 237.92 294.86 236.98C294.86 236.98 293 238.79 289.97 239.21C289.97 239.21 289.29 237.95 288.14 237.32Z" fill="#FFA192" fill-opacity="1.000000" fill-rule="evenodd"/>
	<path id="Fill 190" d="M291.16 217.39C291.49 217.67 291.53 218.17 291.25 218.5C290.97 218.83 290.47 218.87 290.14 218.59C289.81 218.31 289.76 217.81 290.05 217.48C290.33 217.15 290.82 217.11 291.16 217.39Z" fill="#22343D" fill-opacity="1.000000" fill-rule="evenodd"/>
	<path id="Fill 192" d="M285.22 220.82C285.55 221.1 285.59 221.6 285.31 221.93C285.03 222.26 284.53 222.3 284.2 222.02C283.87 221.74 283.83 221.24 284.11 220.91C284.39 220.57 284.89 220.53 285.22 220.82Z" fill="#22343D" fill-opacity="1.000000" fill-rule="evenodd"/>
	<path id="Fill 194" d="M291.19 214.09C291.11 214.34 290.38 214.33 289.56 214.58C288.75 214.8 288.13 215.2 287.93 215.03C287.72 214.88 288.2 213.99 289.31 213.68C290.41 213.36 291.29 213.85 291.19 214.09Z" fill="#22343D" fill-opacity="1.000000" fill-rule="evenodd"/>
	<path id="Fill 196" d="M280.93 220.31C280.73 220.16 281.04 219.31 281.8 218.46C282.56 217.6 283.54 217.31 283.64 217.55C283.75 217.78 283.16 218.33 282.49 219.1C281.81 219.85 281.15 220.47 280.93 220.31Z" fill="#22343D" fill-opacity="1.000000" fill-rule="evenodd"/>
	<path id="Fill 198" d="M277.6 226.89C277.6 226.89 274.76 224.5 273.4 226.66C272.04 228.82 279.53 229.96 279.53 229.96L277.6 226.89Z" fill="#FFC6B2" fill-opacity="1.000000" fill-rule="evenodd"/>
	<path id="Fill 200" d="M209.45 444.7C209.45 444.7 205.38 446.47 204.32 447.54C203.26 448.6 193.55 465.44 194.78 467.56C196.02 469.69 205.77 462.47 205.77 462.47C205.77 462.47 197.61 464.02 209.45 444.7Z" fill="#775298" fill-opacity="1.000000" fill-rule="evenodd"/>
	<path id="Fill 202" d="M288.74 466.97C288.74 466.97 285.85 470.1 285.41 471.53C284.96 472.97 284.17 492.41 286.25 493.72C288.33 495.02 294.02 484.29 294.02 484.29C294.02 484.29 287.22 489.64 288.74 467.01L288.74 466.97Z" fill="#775298" fill-opacity="1.000000" fill-rule="evenodd"/>
</svg>
